{"glyphs":{"0":{"ha":644,"x_min":33,"x_max":613,"o":"m 301 0 q 163 38 226 0 q 64 143 99 76 q 40 207 47 174 q 33 283 33 240 l 33 571 q 39 641 33 611 q 60 703 44 671 l 63 713 l 78 743 l 78 747 q 100 803 86 776 q 144 863 118 836 q 201 910 169 890 q 342 949 267 949 q 482 910 415 949 q 582 803 547 868 q 606 736 599 769 q 613 661 613 703 l 613 372 q 606 296 613 329 q 582 231 599 263 l 568 207 l 550 165 l 539 143 q 440 38 503 76 q 301 0 376 0 m 342 919 q 216 885 274 919 q 126 790 158 850 q 105 731 111 761 q 99 661 99 701 l 99 372 q 106 303 99 333 q 126 244 113 272 q 216 150 158 185 q 342 115 274 115 q 466 150 408 115 q 556 244 524 185 q 583 372 583 299 l 583 661 q 577 731 583 701 q 556 790 571 761 q 466 885 524 850 q 342 919 408 919 m 342 278 q 287 301 310 278 q 264 357 264 325 l 264 663 q 267 699 264 679 q 290 736 271 718 q 342 756 313 756 q 397 733 374 756 q 419 678 419 710 l 419 371 q 416 336 419 356 q 392 297 413 317 q 342 278 369 278 m 353 588 q 338 625 353 610 q 301 640 322 640 q 298 640 299 640 q 296 639 297 639 l 293 639 l 293 357 q 308 323 293 338 q 342 308 322 308 q 353 310 349 308 l 353 588 m 229 703 q 215 667 229 682 q 179 653 200 653 q 144 667 158 653 q 129 703 129 682 q 144 737 129 722 q 179 751 158 751 q 215 737 200 751 q 229 703 229 722 m 226 579 q 212 545 226 560 q 176 531 197 531 q 142 545 157 531 q 128 579 128 560 q 142 615 128 600 q 176 629 157 629 q 212 615 197 629 q 226 579 226 600 m 226 457 q 212 423 226 438 q 176 408 197 408 q 142 423 157 408 q 128 457 128 438 q 142 492 128 478 q 176 507 157 507 q 212 492 197 507 q 226 457 226 478 m 411 804 q 426 840 411 825 q 461 854 440 854 q 495 840 481 854 q 510 804 510 825 q 495 770 510 785 q 461 756 481 756 q 426 770 440 756 q 411 804 411 785 m 296 842 q 310 877 296 863 q 346 892 325 892 q 380 877 365 892 q 394 842 394 863 q 380 806 394 821 q 346 792 365 792 q 310 806 325 792 q 296 842 296 821 m 178 811 q 192 845 178 831 q 228 860 207 860 q 263 845 249 860 q 276 811 276 831 q 263 776 276 790 q 228 761 249 761 q 192 776 207 761 q 178 811 178 790 m 133 340 q 148 375 133 361 q 183 389 163 389 q 218 375 204 389 q 232 340 232 361 q 218 305 232 319 q 183 290 204 290 q 148 305 163 290 q 133 340 133 319 m 192 242 q 206 277 192 263 q 240 292 221 292 q 276 277 261 292 q 290 242 290 263 q 276 206 290 221 q 240 192 261 192 q 206 206 221 192 q 192 242 192 221 m 300 201 q 315 236 300 222 q 350 250 329 250 q 385 236 371 250 q 400 201 400 222 q 385 166 400 181 q 350 151 371 151 q 315 166 329 151 q 300 201 300 181 m 410 247 q 424 281 410 267 q 460 296 439 296 q 494 281 479 296 q 508 247 508 267 q 494 212 508 226 q 460 197 479 197 q 424 212 439 197 q 410 247 410 226 m 456 461 q 470 497 456 482 q 506 511 485 511 q 540 497 525 511 q 554 461 554 482 q 540 427 554 442 q 506 413 525 413 q 470 427 485 413 q 456 461 456 442 m 454 349 q 469 383 454 368 q 503 397 483 397 q 538 383 524 397 q 553 349 553 368 q 538 313 553 328 q 503 299 524 299 q 469 313 483 299 q 454 349 454 328 m 456 581 q 470 616 456 601 q 506 631 485 631 q 540 616 525 631 q 554 581 554 601 q 540 547 554 561 q 506 532 525 532 q 470 547 485 532 q 456 581 456 561 m 451 696 q 466 731 451 717 q 501 746 481 746 q 535 731 521 746 q 550 696 550 717 q 535 661 550 675 q 501 647 521 647 q 466 661 481 647 q 451 696 451 675 z "},"1":{"ha":442,"x_min":36,"x_max":401,"o":"m 72 947 l 401 947 l 401 86 l 394 86 l 357 0 l 142 0 l 142 639 l 36 639 l 36 854 l 72 936 l 72 947 m 207 754 l 207 115 l 371 115 l 371 918 l 101 918 l 101 754 l 207 754 m 342 833 q 327 799 342 814 q 293 785 313 785 q 258 799 272 785 q 243 833 243 814 q 258 869 243 854 q 293 883 272 883 q 327 869 313 883 q 342 833 342 854 m 215 833 q 201 799 215 814 q 165 785 186 785 q 131 799 146 785 q 117 833 117 814 q 131 869 117 854 q 165 883 146 883 q 201 869 186 883 q 215 833 215 854 m 342 706 q 327 672 342 686 q 293 657 313 657 q 258 672 272 657 q 243 706 243 686 q 258 741 243 726 q 293 756 272 756 q 327 741 313 756 q 342 706 342 726 m 342 583 q 327 549 342 564 q 293 535 313 535 q 258 549 272 535 q 243 583 243 564 q 258 619 243 604 q 293 633 272 633 q 327 619 313 633 q 342 583 342 604 m 342 450 q 327 415 342 429 q 293 400 313 400 q 258 415 272 400 q 243 450 243 429 q 258 484 243 469 q 293 499 272 499 q 327 484 313 499 q 342 450 342 469 m 342 325 q 327 290 342 304 q 293 275 313 275 q 258 290 272 275 q 243 325 243 304 q 258 359 243 344 q 293 374 272 374 q 327 359 313 374 q 342 325 342 344 m 342 200 q 327 165 342 179 q 293 150 313 150 q 258 165 272 150 q 243 200 243 179 q 258 234 243 219 q 293 249 272 249 q 327 234 313 249 q 342 200 342 219 z "},"2":{"ha":644,"x_min":35,"x_max":615,"o":"m 343 322 q 332 321 338 321 q 319 321 326 321 q 307 321 313 321 q 294 318 301 321 l 296 318 l 296 313 l 296 310 l 615 310 l 615 86 l 608 86 l 571 0 l 36 0 l 36 278 q 60 378 39 326 l 82 424 q 100 474 89 450 q 126 518 111 497 q 197 585 156 557 l 35 585 l 35 586 q 64 704 40 651 l 86 756 q 122 832 101 803 q 158 876 142 861 q 247 929 199 911 q 347 947 296 947 q 481 913 421 947 q 579 814 542 878 q 615 676 615 754 q 604 599 615 638 q 569 526 593 561 l 547 475 q 525 436 538 456 q 496 399 513 417 q 426 348 463 367 q 343 322 389 329 m 336 628 q 304 638 322 638 q 285 634 297 638 q 263 615 272 631 q 298 624 281 622 q 336 628 315 626 m 265 585 q 150 501 196 560 q 103 367 107 439 l 103 115 l 586 115 l 586 279 l 267 279 l 267 313 q 268 363 265 338 q 282 403 271 388 q 323 432 301 428 q 360 436 344 436 q 369 436 364 436 q 378 438 374 436 q 455 460 422 444 q 517 507 488 475 q 563 572 546 536 q 584 647 579 608 q 581 724 589 685 q 553 797 574 763 q 466 887 519 856 q 347 918 413 918 q 258 901 301 918 q 179 854 214 885 q 104 700 113 789 l 271 700 q 297 738 278 724 q 344 753 317 753 q 403 729 379 753 q 422 672 424 706 q 397 619 419 640 q 340 599 375 599 q 265 585 299 597 m 556 736 q 541 701 556 715 q 506 686 526 686 q 471 701 485 686 q 457 736 457 715 q 471 770 457 756 q 506 785 485 785 q 541 770 526 785 q 556 736 556 756 m 556 613 q 541 578 556 593 q 506 564 526 564 q 471 578 485 564 q 457 613 457 593 q 471 648 457 633 q 506 663 485 663 q 541 648 526 663 q 556 613 556 633 m 378 818 q 392 853 378 839 q 426 868 407 868 q 462 853 447 868 q 476 818 476 839 q 462 784 476 799 q 426 769 447 769 q 392 784 407 769 q 378 818 378 799 m 263 836 q 277 870 263 856 q 313 885 292 885 q 347 870 332 885 q 361 836 361 856 q 347 801 361 815 q 313 786 332 786 q 277 801 292 786 q 263 836 263 815 m 161 769 q 176 803 161 789 q 211 818 190 818 q 245 803 231 818 q 260 769 260 789 q 245 734 260 749 q 211 719 231 719 q 176 734 190 719 q 161 769 161 749 m 482 197 q 490 233 479 217 q 521 253 501 250 q 556 243 540 256 q 575 211 572 231 q 567 174 578 190 q 536 156 556 158 q 501 165 517 153 q 482 197 485 176 m 133 210 q 152 241 136 229 q 188 250 168 253 q 217 231 207 247 q 225 194 228 214 q 206 163 222 175 q 171 153 190 150 q 140 172 151 156 q 133 210 129 189 m 133 332 q 152 364 136 351 q 188 374 168 376 q 217 354 207 371 q 225 317 228 338 q 206 285 222 297 q 171 276 190 274 q 140 296 151 279 q 133 332 129 313 m 171 444 q 190 476 174 464 q 225 485 206 488 q 256 465 244 482 q 264 429 267 449 q 244 397 260 408 q 208 388 228 385 q 178 407 189 390 q 171 444 168 424 m 267 507 q 285 539 269 526 q 321 549 301 551 q 351 529 340 546 q 360 492 363 513 q 341 460 357 472 q 306 451 325 449 q 275 471 286 454 q 267 507 264 488 m 376 540 q 395 573 379 561 q 431 582 411 585 q 461 563 450 579 q 469 525 472 546 q 450 494 465 506 q 415 485 435 482 q 385 504 396 488 q 376 540 374 521 m 250 213 q 269 244 253 232 q 304 254 285 257 q 335 234 324 251 q 343 197 346 217 q 324 165 340 178 q 289 156 308 153 q 258 176 269 158 q 250 213 247 193 m 363 206 q 381 237 365 225 q 417 246 397 249 q 447 226 436 243 q 456 190 458 210 q 437 158 453 171 q 401 149 421 146 q 371 168 382 151 q 363 206 360 185 z "},"3":{"ha":644,"x_min":29,"x_max":611,"o":"m 457 313 q 472 348 457 333 q 506 363 486 363 q 541 348 526 363 q 556 313 556 333 q 541 278 556 293 q 506 264 526 264 q 472 278 486 264 q 457 313 457 293 m 611 676 q 567 532 611 597 l 560 515 q 611 358 611 440 q 599 276 611 314 q 585 247 592 261 q 569 219 579 233 l 546 167 q 479 74 522 114 q 383 15 436 33 q 299 0 338 0 q 199 20 247 0 q 113 76 150 40 l 113 75 l 111 78 q 29 269 38 149 l 67 353 q 65 363 65 356 l 65 364 l 138 364 l 138 535 l 161 586 l 29 586 l 29 588 q 56 688 36 643 q 58 694 56 692 l 63 706 l 63 704 l 81 747 q 122 830 96 793 q 183 893 149 867 q 256 934 217 919 q 339 949 296 949 q 425 935 388 949 q 532 866 485 914 q 599 758 579 818 q 611 676 611 721 m 532 532 q 578 635 568 579 q 569 749 588 692 q 512 847 551 806 q 415 907 472 888 q 339 919 378 919 q 250 903 292 919 q 176 857 208 886 q 124 788 144 828 q 99 701 103 749 l 264 701 q 293 740 272 725 q 339 756 314 756 q 394 732 371 756 q 410 647 429 694 q 382 612 401 625 q 339 599 363 599 l 204 599 l 204 436 l 314 436 q 358 432 333 436 q 399 410 382 428 q 415 339 422 379 q 396 306 408 319 q 367 286 383 292 q 339 281 356 281 q 292 295 313 281 q 264 333 272 310 l 99 333 q 169 186 104 249 q 247 134 203 153 q 339 115 290 115 q 415 129 375 115 q 512 188 472 147 q 569 286 551 228 q 578 400 588 344 q 532 503 568 456 l 522 518 l 532 532 m 331 629 q 299 640 315 640 q 269 629 285 640 l 331 629 m 543 732 q 528 698 543 713 q 493 683 514 683 q 459 698 474 683 q 444 732 444 713 q 459 767 444 753 q 493 782 474 782 q 528 767 514 782 q 543 732 543 753 m 532 611 q 517 577 532 592 q 483 563 503 563 q 448 577 463 563 q 433 611 433 592 q 448 647 433 632 q 483 661 463 661 q 517 647 503 661 q 532 611 532 632 m 365 815 q 380 849 365 835 q 415 864 394 864 q 449 849 435 864 q 464 815 464 835 q 449 780 464 794 q 415 765 435 765 q 380 780 394 765 q 365 815 365 794 m 250 832 q 265 867 250 853 q 300 882 279 882 q 335 867 321 882 q 349 832 349 853 q 335 798 349 813 q 300 783 321 783 q 265 798 279 783 q 250 832 250 813 m 149 765 q 163 801 149 786 q 199 815 178 815 q 233 801 219 815 q 247 765 247 786 q 233 731 247 746 q 199 717 219 717 q 163 731 178 717 q 149 765 149 746 m 156 268 q 170 303 156 289 q 204 318 185 318 q 240 303 225 318 q 254 268 254 289 q 240 234 254 249 q 204 219 225 219 q 170 234 185 219 q 156 268 156 249 m 250 194 q 265 230 250 215 q 300 244 279 244 q 334 230 319 244 q 349 194 349 215 q 334 159 349 174 q 300 144 319 144 q 265 159 279 144 q 250 194 250 174 m 375 207 q 390 241 375 226 q 425 256 404 256 q 460 241 446 256 q 475 207 475 226 q 460 172 475 186 q 425 157 446 157 q 390 172 404 157 q 375 207 375 186 m 429 429 q 444 465 429 450 q 479 479 458 479 q 513 465 499 479 q 528 429 528 450 q 513 395 528 410 q 479 381 499 381 q 444 395 458 381 q 429 429 429 410 m 343 519 q 358 553 343 539 q 393 568 372 568 q 427 553 413 568 q 442 519 442 539 q 427 484 442 499 q 393 469 413 469 q 358 484 372 469 q 343 519 343 499 m 225 519 q 240 553 225 539 q 275 568 254 568 q 309 553 294 568 q 324 519 324 539 q 309 484 324 499 q 275 469 294 469 q 240 484 254 469 q 225 519 225 499 z "},"4":{"ha":644,"x_min":32,"x_max":611,"o":"m 388 949 l 611 949 l 611 86 l 604 86 l 567 0 l 351 0 l 351 265 q 254 272 301 265 q 161 306 207 278 q 88 370 117 333 q 43 458 58 407 q 33 533 35 488 q 32 617 32 578 l 32 854 l 68 936 l 68 949 l 292 949 l 292 671 q 293 621 292 635 q 297 603 294 607 q 351 574 307 574 l 351 854 l 388 936 l 388 949 m 378 544 l 368 544 q 362 544 365 544 q 356 543 358 543 q 339 544 350 543 q 315 549 328 544 q 290 563 301 553 q 269 590 278 572 q 263 624 265 600 q 263 707 261 647 l 263 918 l 99 918 l 99 719 l 99 706 q 99 667 99 688 q 99 625 99 646 q 102 586 100 604 q 108 556 104 568 q 147 475 122 507 q 215 417 172 443 q 302 385 258 389 q 393 381 346 381 l 418 381 l 418 115 l 581 115 l 581 918 l 418 918 l 418 544 l 378 544 m 549 835 q 535 801 549 815 q 500 786 521 786 q 465 801 479 786 q 450 835 450 815 q 465 870 450 856 q 500 885 479 885 q 535 870 521 885 q 549 835 549 856 m 549 707 q 535 673 549 688 q 500 658 521 658 q 465 673 479 658 q 450 707 450 688 q 465 742 450 728 q 500 757 479 757 q 535 742 521 757 q 549 707 549 728 m 549 581 q 535 547 549 561 q 500 532 521 532 q 465 547 479 532 q 450 581 450 561 q 465 616 450 601 q 500 631 479 631 q 535 616 521 631 q 549 581 549 601 m 549 450 q 535 416 549 431 q 500 401 521 401 q 465 416 479 401 q 450 450 450 431 q 465 485 450 471 q 500 500 479 500 q 535 485 521 500 q 549 450 549 471 m 549 326 q 535 291 549 306 q 500 276 521 276 q 465 291 479 276 q 450 326 450 306 q 465 360 450 346 q 500 375 479 375 q 535 360 521 375 q 549 326 549 346 m 549 201 q 535 166 549 181 q 500 151 521 151 q 465 166 479 151 q 450 201 450 181 q 465 235 450 221 q 500 250 479 250 q 535 235 521 250 q 549 201 549 221 m 122 840 q 137 876 122 861 q 172 890 151 890 q 206 876 192 890 q 221 840 221 861 q 206 806 221 821 q 172 792 192 792 q 137 806 151 792 q 122 840 122 821 m 122 713 q 137 748 122 733 q 172 763 151 763 q 206 748 192 763 q 221 713 221 733 q 206 678 221 693 q 172 664 192 664 q 137 678 151 664 q 122 713 122 693 m 122 583 q 137 619 122 604 q 172 633 151 633 q 206 619 192 633 q 221 583 221 604 q 206 549 221 564 q 172 535 192 535 q 137 549 151 535 q 122 583 122 564 m 201 481 q 216 515 201 500 q 251 529 231 529 q 285 515 271 529 q 300 481 300 500 q 285 445 300 460 q 251 431 271 431 q 216 445 231 431 q 201 481 201 460 m 331 457 q 345 492 331 478 q 381 507 360 507 q 415 492 401 507 q 429 457 429 478 q 415 423 429 438 q 381 408 401 408 q 345 423 360 408 q 331 457 331 438 z "},"5":{"ha":644,"x_min":38,"x_max":618,"o":"m 74 947 l 618 947 l 618 726 l 611 726 l 574 640 l 299 640 l 299 629 l 303 629 q 454 606 397 629 q 579 497 536 569 q 617 358 617 431 q 604 279 617 319 q 568 203 592 239 l 565 196 l 554 171 l 556 172 l 547 156 q 514 99 535 125 q 420 26 474 51 q 308 0 367 0 q 209 19 258 0 q 122 74 160 39 q 65 158 88 106 q 38 269 43 210 l 60 319 l 38 319 l 38 854 l 74 936 l 74 947 m 269 600 l 269 756 l 589 756 l 589 918 l 104 918 l 104 435 l 338 435 q 387 422 365 435 q 419 388 408 410 q 406 307 438 344 q 347 279 382 279 q 301 294 321 279 q 272 333 281 310 l 107 333 q 181 182 115 239 q 258 133 214 150 q 349 115 301 115 q 450 138 403 115 q 533 204 497 161 q 588 340 582 264 q 553 482 593 417 q 506 540 532 518 q 443 579 481 563 q 380 597 413 593 q 303 600 347 600 l 269 600 m 226 828 q 212 794 226 808 q 178 779 197 779 q 142 794 157 779 q 128 828 128 808 q 142 863 128 849 q 178 878 157 878 q 212 863 197 878 q 226 828 226 849 m 339 832 q 324 797 339 811 q 289 782 310 782 q 255 797 269 782 q 240 832 240 811 q 255 867 240 853 q 289 881 269 881 q 324 867 310 881 q 339 832 339 853 m 451 831 q 438 797 451 811 q 403 782 424 782 q 367 797 382 782 q 353 831 353 811 q 367 866 353 851 q 403 881 382 881 q 438 866 424 881 q 451 831 451 851 m 567 829 q 552 795 567 810 q 518 781 538 781 q 483 795 497 781 q 468 829 468 810 q 483 865 468 850 q 518 879 497 879 q 552 865 538 879 q 567 829 567 850 m 226 678 q 212 644 226 658 q 178 629 197 629 q 142 644 157 629 q 128 678 128 658 q 142 713 128 699 q 178 728 157 728 q 212 713 197 728 q 226 678 226 699 m 222 529 q 208 494 222 508 q 174 479 194 479 q 138 494 153 479 q 124 529 124 508 q 138 563 124 549 q 174 578 153 578 q 208 563 194 578 q 222 529 222 549 m 349 526 q 334 491 349 506 q 300 476 319 476 q 265 491 279 476 q 250 526 250 506 q 265 560 250 546 q 300 575 279 575 q 334 560 319 575 q 349 526 349 546 m 472 493 q 458 458 472 472 q 422 443 443 443 q 388 458 403 443 q 374 493 374 472 q 388 528 374 514 q 422 543 403 543 q 458 528 443 543 q 472 493 472 514 m 550 389 q 536 353 550 368 q 501 339 522 339 q 466 353 481 339 q 451 389 451 368 q 466 423 451 408 q 501 438 481 438 q 536 423 522 438 q 550 389 550 408 m 528 258 q 513 224 528 239 q 478 210 499 210 q 444 224 458 210 q 429 258 429 239 q 444 294 429 279 q 478 308 458 308 q 513 294 499 308 q 528 258 528 279 m 401 194 q 387 160 401 175 q 353 146 372 146 q 317 160 332 146 q 303 194 303 175 q 317 230 303 215 q 353 244 332 244 q 387 230 372 244 q 401 194 401 215 m 272 250 q 258 216 272 231 q 222 201 243 201 q 188 216 203 201 q 174 250 174 231 q 188 285 174 271 q 222 300 203 300 q 258 285 243 300 q 272 250 272 271 z "},"6":{"ha":644,"x_min":32,"x_max":614,"o":"m 529 129 q 432 35 493 69 q 301 0 371 0 q 147 49 217 0 l 146 49 q 82 113 108 76 q 44 193 56 149 q 33 256 35 225 q 33 318 32 286 l 33 517 q 36 613 33 567 q 58 701 39 660 l 81 751 q 157 875 99 821 q 339 949 235 949 q 439 928 389 949 q 528 872 489 908 q 586 785 564 836 q 614 672 608 733 l 614 671 l 608 671 l 569 586 l 490 586 q 561 514 528 561 q 613 358 613 443 q 574 217 613 283 l 564 201 l 547 164 l 547 165 l 544 158 q 538 146 542 151 q 532 135 535 140 q 529 129 529 132 m 176 854 q 131 799 147 826 q 108 740 115 771 q 100 676 101 710 q 99 606 99 643 l 99 406 q 99 347 99 375 q 110 289 100 318 q 200 160 131 210 q 342 115 264 115 q 462 146 408 115 q 547 233 515 176 q 583 366 585 294 q 539 497 581 438 q 486 552 514 532 q 427 583 458 572 q 361 596 396 593 q 288 599 326 599 l 263 599 l 263 638 q 266 696 260 665 q 304 743 272 726 q 340 754 319 754 q 386 740 365 754 q 414 701 407 725 l 581 701 q 507 851 574 789 q 428 901 472 883 q 339 918 385 918 q 176 854 249 918 m 293 628 q 311 628 303 628 q 329 626 319 628 q 300 639 314 639 q 298 638 299 639 q 294 638 297 638 q 293 636 294 636 l 293 628 m 279 308 q 263 354 264 326 q 263 400 263 382 l 263 435 l 297 435 q 306 436 301 436 q 315 436 311 436 q 389 418 364 436 q 418 360 415 397 q 396 301 421 326 q 340 279 374 279 q 279 308 304 279 m 317 315 q 329 310 321 313 q 324 313 326 311 q 317 315 321 314 m 301 806 q 287 772 301 786 q 253 757 272 757 q 217 772 232 757 q 203 806 203 786 q 217 841 203 826 q 253 856 232 856 q 287 841 272 856 q 301 806 301 826 m 242 699 q 227 665 242 679 q 193 650 213 650 q 158 665 172 650 q 143 699 143 679 q 158 734 143 719 q 193 749 172 749 q 227 734 213 749 q 242 699 242 719 m 231 576 q 216 542 231 556 q 181 528 201 528 q 145 542 160 528 q 131 576 131 556 q 145 612 131 597 q 181 626 160 626 q 216 612 201 626 q 231 576 231 597 m 236 318 q 222 283 236 297 q 186 269 207 269 q 152 283 167 269 q 138 318 138 297 q 152 353 138 339 q 186 368 167 368 q 222 353 207 368 q 236 318 236 339 m 318 221 q 303 187 318 201 q 269 172 289 172 q 234 187 249 172 q 219 221 219 201 q 234 256 219 242 q 269 271 249 271 q 303 256 289 271 q 318 221 318 242 m 449 207 q 434 172 449 186 q 399 157 419 157 q 363 172 378 157 q 349 207 349 186 q 363 241 349 226 q 399 256 378 256 q 434 241 419 256 q 449 207 449 226 m 544 293 q 530 258 544 272 q 496 243 515 243 q 460 258 475 243 q 446 293 446 272 q 460 327 446 313 q 496 342 475 342 q 530 327 515 342 q 544 293 544 313 m 553 406 q 538 370 553 385 q 503 356 524 356 q 469 370 483 356 q 454 406 454 385 q 469 441 454 426 q 503 456 483 456 q 538 441 524 456 q 553 406 553 426 m 474 494 q 459 459 474 474 q 424 444 444 444 q 390 459 404 444 q 375 494 375 474 q 390 528 375 514 q 424 543 404 543 q 459 528 444 543 q 474 494 474 514 m 351 519 q 337 484 351 499 q 301 469 322 469 q 267 484 282 469 q 253 519 253 499 q 267 555 253 540 q 301 569 282 569 q 337 555 322 569 q 351 519 351 540 m 233 449 q 219 413 233 428 q 185 399 206 399 q 149 413 164 399 q 135 449 135 428 q 149 483 135 468 q 185 497 164 497 q 219 483 206 497 q 233 449 233 468 m 528 772 q 513 737 528 751 q 478 722 499 722 q 444 737 458 722 q 429 772 429 751 q 444 806 429 792 q 478 821 458 821 q 513 806 499 821 q 528 772 528 792 m 426 836 q 412 801 426 815 q 376 786 397 786 q 342 801 356 786 q 328 836 328 815 q 342 871 328 857 q 376 885 356 885 q 412 871 397 885 q 426 836 426 857 z "},"7":{"ha":644,"x_min":29,"x_max":610,"o":"m 67 947 l 610 947 l 610 729 l 440 86 l 435 86 l 397 0 l 175 0 l 343 639 l 29 639 l 31 854 l 67 935 l 67 947 m 96 918 l 96 754 l 415 754 l 249 115 l 418 115 l 579 732 l 579 918 l 96 918 m 507 574 q 500 537 511 554 q 469 515 489 519 q 433 522 450 511 q 411 554 415 533 q 418 591 407 574 q 450 613 429 608 q 487 604 469 615 q 507 574 504 593 m 460 822 q 468 858 457 842 q 499 878 479 875 q 534 868 518 881 q 553 836 550 856 q 544 799 556 815 q 514 779 533 782 q 478 789 494 776 q 460 822 463 801 m 444 685 q 453 722 442 706 q 485 742 465 739 q 519 732 504 744 q 538 699 535 719 q 529 663 540 679 q 499 643 518 646 q 463 653 479 640 q 444 685 447 665 m 378 433 q 386 470 375 454 q 417 489 397 486 q 452 480 436 492 q 471 447 468 468 q 463 411 474 428 q 432 392 451 394 q 397 401 413 389 q 378 433 381 414 m 344 306 q 353 342 342 325 q 385 361 365 358 q 419 352 404 364 q 438 319 435 340 q 429 283 440 300 q 399 264 418 267 q 363 274 379 261 q 344 306 347 286 m 310 190 q 319 228 307 211 q 350 247 331 244 q 385 238 369 250 q 403 204 400 225 q 394 168 406 185 q 364 149 383 151 q 328 158 344 146 q 310 190 313 171 m 115 835 q 134 866 118 854 q 169 875 150 878 q 199 856 189 872 q 207 819 210 839 q 188 787 204 799 q 153 778 172 775 q 122 797 133 781 q 115 835 111 814 m 232 838 q 251 869 235 857 q 286 878 267 881 q 317 858 306 875 q 325 822 328 842 q 306 790 322 801 q 271 781 290 778 q 240 800 251 783 q 232 838 229 817 m 343 836 q 362 868 346 856 q 397 878 378 881 q 428 858 417 875 q 436 821 439 842 q 417 789 432 801 q 382 779 401 776 q 351 800 363 783 q 343 836 340 817 z "},"8":{"ha":644,"x_min":31,"x_max":611,"o":"m 568 531 l 560 513 q 611 360 611 438 q 582 236 611 294 q 573 219 578 228 q 563 203 568 211 l 549 171 l 550 172 l 542 156 l 539 149 q 440 39 503 78 q 299 0 376 0 q 160 40 225 0 q 60 149 96 81 q 31 269 31 208 q 54 376 31 322 l 76 428 q 79 436 76 431 q 31 586 31 501 q 57 697 31 643 l 60 706 l 76 742 q 85 770 81 757 q 97 796 90 783 q 197 906 133 865 q 266 937 229 926 q 339 947 303 947 q 482 907 417 947 q 582 796 546 869 q 611 675 611 738 q 601 601 611 638 q 568 532 590 564 l 568 531 m 533 532 q 581 654 575 588 q 556 785 588 721 q 467 883 524 847 q 339 918 410 918 q 212 883 268 918 q 124 785 156 847 q 97 656 92 722 q 146 532 103 589 l 157 517 l 146 503 q 98 379 104 446 q 124 250 92 313 q 212 151 156 186 q 339 115 268 115 q 467 151 410 115 q 556 250 524 186 q 581 379 588 313 q 533 503 575 446 l 521 517 l 533 532 m 339 754 q 394 731 371 754 q 417 676 417 708 q 394 622 417 644 q 339 599 371 599 q 284 622 307 599 q 261 676 261 644 q 284 731 261 708 q 339 754 307 754 m 329 631 q 310 639 321 636 q 329 631 318 633 m 339 435 q 394 413 371 435 q 417 357 417 390 q 394 302 417 325 q 339 279 371 279 q 284 302 307 279 q 261 357 261 325 q 284 412 261 389 q 339 435 307 435 m 329 311 q 310 319 321 317 q 329 311 318 314 m 224 703 q 209 667 224 682 q 175 653 194 653 q 140 667 154 653 q 125 703 125 682 q 140 737 125 722 q 175 751 154 751 q 209 737 194 751 q 224 703 224 722 m 540 688 q 526 653 540 668 q 492 639 513 639 q 456 653 471 639 q 442 688 442 668 q 456 723 442 708 q 492 738 471 738 q 526 723 513 738 q 540 688 540 708 m 400 796 q 415 831 400 817 q 450 846 429 846 q 484 831 469 846 q 499 796 499 817 q 484 762 499 776 q 450 747 469 747 q 415 762 429 747 q 400 796 400 776 m 294 835 q 309 870 294 856 q 343 885 324 885 q 378 870 364 885 q 393 835 393 856 q 378 801 393 815 q 343 786 364 786 q 309 801 324 786 q 294 835 294 815 m 185 803 q 199 837 185 822 q 233 851 213 851 q 269 837 254 851 q 283 803 283 822 q 269 767 283 782 q 233 753 254 753 q 199 767 213 753 q 185 803 185 782 m 453 336 q 467 370 453 356 q 501 385 481 385 q 537 370 522 385 q 551 336 551 356 q 537 301 551 315 q 501 286 522 286 q 467 301 481 286 q 453 336 453 315 m 419 446 q 434 481 419 467 q 468 496 449 496 q 503 481 489 496 q 518 446 518 467 q 503 412 518 426 q 468 397 489 397 q 434 412 449 397 q 419 446 419 426 m 125 338 q 140 372 125 357 q 175 386 154 386 q 209 372 194 386 q 224 338 224 357 q 209 302 224 317 q 175 288 194 288 q 140 302 154 288 q 125 338 125 317 m 165 457 q 180 491 165 476 q 214 506 194 506 q 249 491 235 506 q 264 457 264 476 q 249 422 264 436 q 214 407 235 407 q 180 422 194 407 q 165 457 165 436 m 160 582 q 174 616 160 601 q 210 631 189 631 q 244 616 229 631 q 258 582 258 601 q 244 547 258 561 q 210 532 229 532 q 174 547 189 532 q 160 582 160 561 m 286 515 q 301 549 286 535 q 335 564 315 564 q 370 549 356 564 q 385 515 385 535 q 370 480 385 494 q 335 465 356 465 q 301 480 315 465 q 286 515 286 494 m 407 575 q 422 609 407 594 q 457 624 436 624 q 491 609 476 624 q 506 575 506 594 q 491 540 506 554 q 457 525 476 525 q 422 540 436 525 q 407 575 407 554 m 281 226 q 266 192 281 207 q 231 178 251 178 q 195 192 210 178 q 181 226 181 207 q 195 262 181 247 q 231 276 210 276 q 266 262 251 276 q 281 226 281 247 m 393 183 q 378 149 393 164 q 343 135 364 135 q 308 149 322 135 q 294 183 294 164 q 308 219 294 204 q 343 233 322 233 q 378 219 364 233 q 393 183 393 204 m 504 225 q 490 190 504 204 q 456 175 475 175 q 420 190 435 175 q 406 225 406 204 q 420 260 406 246 q 456 275 435 275 q 490 260 475 275 q 504 225 504 246 z "},"9":{"ha":644,"x_min":31,"x_max":611,"o":"m 600 754 q 610 697 608 725 q 611 640 611 669 l 611 429 q 604 313 611 369 q 561 204 597 257 l 540 154 q 481 72 522 111 q 397 19 443 38 q 301 0 350 0 q 201 19 250 0 q 114 75 153 39 q 31 269 43 143 l 32 269 l 69 353 q 68 363 68 356 l 68 364 l 150 364 q 81 435 107 394 q 44 508 57 468 q 32 589 32 547 q 56 699 32 644 q 58 706 56 703 l 58 704 l 78 749 q 107 818 88 788 q 205 915 144 881 q 339 949 265 949 q 423 935 381 949 q 499 899 465 922 q 560 836 533 874 q 600 754 586 799 m 351 321 q 332 321 340 321 q 313 322 324 321 q 340 311 324 311 q 350 313 346 311 l 351 313 l 351 321 m 100 333 q 172 183 108 244 q 252 133 208 151 q 342 115 296 115 q 503 181 435 115 q 549 235 532 207 q 572 294 565 264 q 581 358 579 325 q 582 429 582 392 l 582 629 l 582 640 q 581 694 582 668 q 572 746 579 719 q 481 875 547 828 q 415 908 451 896 q 339 919 379 919 q 220 889 274 919 q 132 801 167 858 q 99 668 96 739 q 143 539 101 597 q 195 483 168 503 q 253 452 222 463 q 319 439 285 442 q 393 436 354 436 l 418 436 l 418 396 q 415 340 419 372 q 378 290 410 308 q 340 281 358 281 q 294 295 315 281 q 265 333 274 310 l 100 333 m 340 756 q 400 726 378 756 q 417 683 415 710 q 418 635 419 657 l 418 600 l 365 600 q 325 603 344 600 q 292 617 306 606 q 263 674 265 638 q 285 733 260 708 q 340 756 310 756 m 325 633 q 311 640 318 638 q 325 633 315 636 m 394 231 q 409 265 394 250 q 444 279 424 279 q 478 265 464 279 q 493 231 493 250 q 478 195 493 210 q 444 181 464 181 q 409 195 424 181 q 394 231 394 210 m 454 338 q 469 372 454 357 q 504 386 483 386 q 538 372 524 386 q 553 338 553 357 q 538 302 553 317 q 504 288 524 288 q 469 302 483 288 q 454 338 454 317 m 467 460 q 481 494 467 481 q 517 508 496 508 q 551 494 536 508 q 565 460 565 481 q 551 424 565 439 q 517 410 536 410 q 481 424 496 410 q 467 460 467 439 m 461 718 q 476 753 461 739 q 510 767 490 767 q 545 753 531 767 q 560 718 560 739 q 545 683 560 697 q 510 668 531 668 q 476 683 490 668 q 461 718 461 697 m 378 814 q 392 849 378 835 q 428 864 407 864 q 463 849 449 864 q 476 814 476 835 q 463 780 476 794 q 428 765 449 765 q 392 780 407 765 q 378 814 378 794 m 249 829 q 263 865 249 850 q 299 879 278 879 q 333 865 318 879 q 347 829 347 850 q 333 795 347 810 q 299 781 318 781 q 263 795 278 781 q 249 829 249 810 m 151 743 q 166 778 151 764 q 201 793 181 793 q 237 778 222 793 q 251 743 251 764 q 237 709 251 724 q 201 694 222 694 q 166 709 181 694 q 151 743 151 724 m 136 621 q 151 655 136 640 q 185 669 165 669 q 220 655 206 669 q 235 621 235 640 q 220 585 235 600 q 185 571 206 571 q 151 585 165 571 q 136 621 136 600 m 213 529 q 227 565 213 550 q 263 579 242 579 q 298 565 283 579 q 313 529 313 550 q 298 495 313 510 q 263 481 283 481 q 227 495 242 481 q 213 529 213 510 m 342 513 q 356 548 342 533 q 390 563 371 563 q 426 548 411 563 q 440 513 440 533 q 426 478 440 492 q 390 464 411 464 q 356 478 371 464 q 342 513 342 492 m 463 588 q 477 623 463 608 q 513 638 492 638 q 547 623 532 638 q 561 588 561 608 q 547 553 561 568 q 513 539 532 539 q 477 553 492 539 q 463 588 463 568 m 169 264 q 184 299 169 285 q 218 314 199 314 q 253 299 239 314 q 268 264 268 285 q 253 230 268 244 q 218 215 239 215 q 184 230 199 215 q 169 264 169 244 m 271 200 q 285 235 271 221 q 319 250 300 250 q 355 235 340 250 q 369 200 369 221 q 355 165 369 179 q 319 151 340 151 q 285 165 300 151 q 271 200 271 179 z "},"\u0000":{"ha":0,"x_min":0,"x_max":0,"o":""},"\r":{"ha":429,"x_min":0,"x_max":0,"o":""}," ":{"ha":429,"x_min":0,"x_max":0,"o":""},"G":{"ha":644,"x_min":33,"x_max":614,"o":"m 607 672 l 588 629 l 613 629 l 613 357 q 565 204 613 274 l 544 158 q 447 43 513 86 q 303 0 382 0 q 222 13 260 0 q 115 76 161 32 q 49 181 69 121 q 35 240 38 211 q 33 303 33 269 l 33 551 q 35 615 33 586 q 49 675 38 644 q 53 687 51 682 q 57 699 54 692 l 79 747 l 85 767 q 152 872 106 826 q 261 936 199 917 q 302 945 282 943 q 343 947 322 947 q 442 926 394 947 q 525 867 489 904 q 585 781 561 831 q 614 672 608 731 l 607 672 m 343 918 q 269 908 307 918 q 174 850 215 890 q 114 757 133 810 q 102 701 104 729 q 100 642 100 674 l 100 392 q 102 333 100 361 q 114 278 104 306 q 174 184 133 224 q 269 126 215 144 q 306 118 289 121 q 343 115 324 115 q 437 134 393 115 q 513 186 481 153 q 565 263 546 219 q 583 357 583 307 l 583 599 l 292 599 l 292 435 l 419 435 l 419 357 q 398 303 419 325 q 344 279 376 281 l 342 279 q 288 300 310 279 q 264 351 267 321 q 262 395 261 374 q 263 436 263 417 l 263 464 q 264 491 264 478 q 264 517 264 504 q 264 544 264 531 q 263 569 264 557 l 263 597 q 262 639 263 618 q 264 683 261 660 q 289 733 267 713 q 342 754 311 754 l 344 754 q 415 701 397 751 l 582 701 q 557 787 578 747 q 503 856 536 826 q 430 901 471 885 q 343 918 389 918 m 353 319 l 311 319 q 343 310 325 310 q 353 311 350 310 l 353 319 m 236 699 q 222 663 236 678 q 186 649 207 649 q 151 663 165 649 q 136 699 136 678 q 151 733 136 718 q 186 747 165 747 q 222 733 207 747 q 236 699 236 718 m 225 574 q 210 538 225 553 q 176 524 196 524 q 141 538 156 524 q 126 574 126 553 q 141 608 126 593 q 176 622 156 622 q 210 608 196 622 q 225 574 225 593 m 225 451 q 210 417 225 431 q 176 403 196 403 q 141 417 156 403 q 126 451 126 431 q 141 487 126 472 q 176 501 156 501 q 210 487 196 501 q 225 451 225 472 m 415 782 q 430 817 415 803 q 465 831 444 831 q 501 817 486 831 q 515 782 515 803 q 501 747 515 761 q 465 732 486 732 q 430 747 444 732 q 415 782 415 761 m 306 838 q 320 872 306 858 q 354 886 335 886 q 390 872 375 886 q 404 838 404 858 q 390 802 404 817 q 354 788 375 788 q 320 802 335 788 q 306 838 306 817 m 193 803 q 208 837 193 822 q 243 851 222 851 q 277 837 263 851 q 292 803 292 822 q 277 767 292 782 q 243 753 263 753 q 208 767 222 753 q 193 803 193 782 m 132 332 q 147 367 132 353 q 182 382 161 382 q 217 367 203 382 q 232 332 232 353 q 217 298 232 313 q 182 283 203 283 q 147 298 161 283 q 132 332 132 313 m 200 235 q 215 269 200 254 q 250 283 229 283 q 284 269 269 283 q 299 235 299 254 q 284 199 299 214 q 250 185 269 185 q 215 199 229 185 q 200 235 200 214 m 324 210 q 338 244 324 229 q 374 258 353 258 q 408 244 393 258 q 422 210 422 229 q 408 174 422 189 q 374 160 393 160 q 338 174 353 160 q 324 210 324 189 m 425 276 q 440 311 425 297 q 475 325 454 325 q 509 311 494 325 q 524 276 524 297 q 509 241 524 256 q 475 226 494 226 q 440 241 454 226 q 425 276 425 256 m 451 394 q 466 428 451 414 q 501 443 481 443 q 535 428 521 443 q 550 394 550 414 q 535 359 550 374 q 501 344 521 344 q 466 359 481 344 q 451 394 451 374 m 446 519 q 460 553 446 539 q 494 568 475 568 q 530 553 515 568 q 544 519 544 539 q 530 484 544 499 q 494 469 515 469 q 460 484 475 469 q 446 519 446 499 m 328 517 q 342 551 328 536 q 378 565 357 565 q 412 551 397 565 q 426 517 426 536 q 412 481 426 496 q 378 467 397 467 q 342 481 357 467 q 328 517 328 496 z "},"F":{"ha":644,"x_min":32,"x_max":611,"o":"m 247 0 l 32 0 l 32 854 l 68 935 l 68 947 l 611 947 l 611 724 l 604 724 l 567 639 l 292 639 l 292 628 l 611 628 l 611 404 l 604 404 l 567 319 l 292 319 l 292 86 l 285 86 l 247 0 m 99 115 l 263 115 l 263 435 l 582 435 l 582 599 l 263 599 l 263 754 l 582 754 l 582 918 l 99 918 l 99 115 m 221 824 q 206 789 221 803 q 171 775 192 775 q 137 789 151 775 q 122 824 122 803 q 137 859 122 844 q 171 874 151 874 q 206 859 192 874 q 221 824 221 844 m 338 826 q 323 791 338 806 q 288 776 308 776 q 253 791 267 776 q 239 826 239 806 q 253 861 239 847 q 288 875 267 875 q 323 861 308 875 q 338 826 338 847 m 567 824 q 552 789 567 803 q 517 775 538 775 q 483 789 497 775 q 468 824 468 803 q 483 859 468 844 q 517 874 497 874 q 552 859 538 874 q 567 824 567 844 m 221 696 q 206 662 221 676 q 171 647 192 647 q 137 662 151 647 q 122 696 122 676 q 137 731 122 717 q 171 746 151 746 q 206 731 192 746 q 221 696 221 717 m 221 569 q 206 535 221 550 q 171 521 192 521 q 137 535 151 521 q 122 569 122 550 q 137 605 122 590 q 171 619 151 619 q 206 605 192 619 q 221 569 221 590 m 221 439 q 206 405 221 419 q 171 390 192 390 q 137 405 151 390 q 122 439 122 419 q 137 474 122 460 q 171 489 151 489 q 206 474 192 489 q 221 439 221 460 m 440 510 q 426 475 440 489 q 390 461 411 461 q 356 475 369 461 q 342 510 342 489 q 356 545 342 531 q 390 560 369 560 q 426 545 411 560 q 440 510 440 531 m 449 825 q 434 790 449 804 q 399 775 419 775 q 363 790 378 775 q 349 825 349 804 q 363 860 349 846 q 399 874 378 874 q 434 860 419 874 q 449 825 449 846 m 561 513 q 547 477 561 492 q 511 463 532 463 q 476 477 490 463 q 461 513 461 492 q 476 547 461 532 q 511 561 490 561 q 547 547 532 561 q 561 513 561 532 m 328 508 q 313 474 328 488 q 278 460 299 460 q 244 474 258 460 q 229 508 229 488 q 244 544 229 529 q 278 558 258 558 q 313 544 299 558 q 328 508 328 529 m 221 315 q 206 280 221 294 q 171 265 192 265 q 137 280 151 265 q 122 315 122 294 q 137 349 122 335 q 171 364 151 364 q 206 349 192 364 q 221 315 221 335 m 221 189 q 206 155 221 169 q 171 140 192 140 q 137 155 151 140 q 122 189 122 169 q 137 224 122 210 q 171 239 151 239 q 206 224 192 239 q 221 189 221 210 z "},"O":{"ha":644,"x_min":33,"x_max":613,"o":"m 301 0 q 163 38 226 0 q 64 143 99 76 q 40 207 47 174 q 33 283 33 240 l 33 571 q 39 641 33 611 q 60 703 44 671 l 63 713 l 78 743 l 78 747 q 100 803 86 776 q 144 863 118 836 q 201 910 169 890 q 342 949 267 949 q 482 910 415 949 q 582 803 547 868 q 606 736 599 769 q 613 661 613 703 l 613 372 q 606 296 613 329 q 582 231 599 263 l 568 207 l 550 165 l 539 143 q 440 38 503 76 q 301 0 376 0 m 342 919 q 216 885 274 919 q 126 790 158 850 q 105 731 111 761 q 99 661 99 701 l 99 372 q 106 303 99 333 q 126 244 113 272 q 216 150 158 185 q 342 115 274 115 q 466 150 408 115 q 556 244 524 185 q 583 372 583 299 l 583 661 q 577 731 583 701 q 556 790 571 761 q 466 885 524 850 q 342 919 408 919 m 342 278 q 287 301 310 278 q 264 357 264 325 l 264 663 q 267 699 264 679 q 290 736 271 718 q 342 756 313 756 q 397 733 374 756 q 419 678 419 710 l 419 371 q 416 336 419 356 q 392 297 413 317 q 342 278 369 278 m 353 588 q 338 625 353 610 q 301 640 322 640 q 298 640 299 640 q 296 639 297 639 l 293 639 l 293 357 q 308 323 293 338 q 342 308 322 308 q 353 310 349 308 l 353 588 m 229 703 q 215 667 229 682 q 179 653 200 653 q 144 667 158 653 q 129 703 129 682 q 144 737 129 722 q 179 751 158 751 q 215 737 200 751 q 229 703 229 722 m 226 579 q 212 545 226 560 q 176 531 197 531 q 142 545 157 531 q 128 579 128 560 q 142 615 128 600 q 176 629 157 629 q 212 615 197 629 q 226 579 226 600 m 226 457 q 212 423 226 438 q 176 408 197 408 q 142 423 157 408 q 128 457 128 438 q 142 492 128 478 q 176 507 157 507 q 212 492 197 507 q 226 457 226 478 m 411 804 q 426 840 411 825 q 461 854 440 854 q 495 840 481 854 q 510 804 510 825 q 495 770 510 785 q 461 756 481 756 q 426 770 440 756 q 411 804 411 785 m 296 842 q 310 877 296 863 q 346 892 325 892 q 380 877 365 892 q 394 842 394 863 q 380 806 394 821 q 346 792 365 792 q 310 806 325 792 q 296 842 296 821 m 178 811 q 192 845 178 831 q 228 860 207 860 q 263 845 249 860 q 276 811 276 831 q 263 776 276 790 q 228 761 249 761 q 192 776 207 761 q 178 811 178 790 m 133 340 q 148 375 133 361 q 183 389 163 389 q 218 375 204 389 q 232 340 232 361 q 218 305 232 319 q 183 290 204 290 q 148 305 163 290 q 133 340 133 319 m 192 242 q 206 277 192 263 q 240 292 221 292 q 276 277 261 292 q 290 242 290 263 q 276 206 290 221 q 240 192 261 192 q 206 206 221 192 q 192 242 192 221 m 300 201 q 315 236 300 222 q 350 250 329 250 q 385 236 371 250 q 400 201 400 222 q 385 166 400 181 q 350 151 371 151 q 315 166 329 151 q 300 201 300 181 m 410 247 q 424 281 410 267 q 460 296 439 296 q 494 281 479 296 q 508 247 508 267 q 494 212 508 226 q 460 197 479 197 q 424 212 439 197 q 410 247 410 226 m 456 461 q 470 497 456 482 q 506 511 485 511 q 540 497 525 511 q 554 461 554 482 q 540 427 554 442 q 506 413 525 413 q 470 427 485 413 q 456 461 456 442 m 454 349 q 469 383 454 368 q 503 397 483 397 q 538 383 524 397 q 553 349 553 368 q 538 313 553 328 q 503 299 524 299 q 469 313 483 299 q 454 349 454 328 m 456 581 q 470 616 456 601 q 506 631 485 631 q 540 616 525 631 q 554 581 554 601 q 540 547 554 561 q 506 532 525 532 q 470 547 485 532 q 456 581 456 561 m 451 696 q 466 731 451 717 q 501 746 481 746 q 535 731 521 746 q 550 696 550 717 q 535 661 550 675 q 501 647 521 647 q 466 661 481 647 q 451 696 451 675 z "},"E":{"ha":644,"x_min":35,"x_max":614,"o":"m 569 0 l 35 0 l 35 856 l 71 935 l 71 949 l 614 949 l 614 725 l 607 725 l 569 639 l 294 639 l 294 629 l 614 629 l 614 406 l 607 406 l 569 319 l 294 319 l 294 310 l 614 310 l 614 86 l 607 86 l 569 0 m 100 115 l 585 115 l 585 279 l 264 279 l 264 435 l 585 435 l 585 599 l 264 599 l 264 756 l 585 756 l 585 919 l 100 919 l 100 115 m 451 510 q 437 476 451 490 q 403 461 422 461 q 367 476 382 461 q 353 510 353 490 q 367 545 353 531 q 403 560 382 560 q 437 545 422 560 q 451 510 451 531 m 567 513 q 552 477 567 492 q 517 463 538 463 q 483 477 497 463 q 468 513 468 492 q 483 548 468 533 q 517 563 497 563 q 552 548 538 563 q 567 513 567 533 m 343 510 q 328 474 343 489 q 294 460 314 460 q 259 474 274 460 q 244 510 244 489 q 259 544 244 529 q 294 558 274 558 q 328 544 314 558 q 343 510 343 529 m 231 832 q 216 797 231 811 q 181 782 201 782 q 146 797 160 782 q 132 832 132 811 q 146 867 132 853 q 181 882 160 882 q 216 867 201 882 q 231 832 231 853 m 344 835 q 330 799 344 814 q 296 785 315 785 q 260 799 275 785 q 246 835 246 814 q 260 869 246 856 q 296 883 275 883 q 330 869 315 883 q 344 835 344 856 m 568 832 q 553 797 568 811 q 519 782 539 782 q 484 797 499 782 q 469 832 469 811 q 484 867 469 853 q 519 882 499 882 q 553 867 539 882 q 568 832 568 853 m 231 704 q 216 670 231 685 q 181 656 201 656 q 146 670 160 656 q 132 704 132 685 q 146 740 132 725 q 181 754 160 754 q 216 740 201 754 q 231 704 231 725 m 231 578 q 216 542 231 557 q 181 528 201 528 q 146 542 160 528 q 132 578 132 557 q 146 613 132 599 q 181 626 160 626 q 216 613 201 626 q 231 578 231 599 m 231 447 q 216 412 231 426 q 181 397 201 397 q 146 412 160 397 q 132 447 132 426 q 146 483 132 468 q 181 497 160 497 q 216 483 201 497 q 231 447 231 468 m 451 833 q 437 798 451 813 q 403 783 422 783 q 367 798 382 783 q 353 833 353 813 q 367 868 353 854 q 403 882 382 882 q 437 868 422 882 q 451 833 451 854 m 340 196 q 326 160 340 175 q 292 146 311 146 q 256 160 271 146 q 242 196 242 175 q 256 230 242 215 q 292 244 271 244 q 326 230 311 244 q 340 196 340 215 m 568 193 q 554 158 568 172 q 519 143 540 143 q 484 158 499 143 q 469 193 469 172 q 484 227 469 213 q 519 242 499 242 q 554 227 540 242 q 568 193 568 213 m 451 194 q 437 159 451 174 q 403 144 422 144 q 367 159 382 144 q 353 194 353 174 q 367 228 353 214 q 403 243 382 243 q 437 228 422 243 q 451 194 451 214 m 231 322 q 216 288 231 303 q 181 274 201 274 q 146 288 160 274 q 132 322 132 303 q 146 358 132 343 q 181 372 160 372 q 216 358 201 372 q 231 322 231 343 m 231 197 q 216 162 231 176 q 181 147 201 147 q 146 162 160 147 q 132 197 132 176 q 146 231 132 217 q 181 246 160 246 q 216 231 201 246 q 231 197 231 217 z "},"I":{"ha":347,"x_min":46,"x_max":306,"o":"m 261 0 l 46 0 l 46 854 l 82 933 l 82 947 l 306 947 l 306 85 l 300 85 l 261 0 m 113 918 l 113 115 l 276 115 l 276 918 l 113 918 m 244 828 q 230 792 244 807 q 196 778 215 778 q 160 792 175 778 q 146 828 146 807 q 160 862 146 847 q 196 876 175 876 q 230 862 215 876 q 244 828 244 847 m 244 700 q 230 665 244 679 q 196 650 215 650 q 160 665 175 650 q 146 700 146 679 q 160 734 146 719 q 196 749 175 749 q 230 734 215 749 q 244 700 244 719 m 244 578 q 230 542 244 557 q 196 528 215 528 q 160 542 175 528 q 146 578 146 557 q 160 612 146 597 q 196 626 175 626 q 230 612 215 626 q 244 578 244 597 m 244 443 q 230 408 244 422 q 196 393 215 393 q 160 408 175 393 q 146 443 146 422 q 160 477 146 463 q 196 492 175 492 q 230 477 215 492 q 244 443 244 463 m 244 318 q 230 283 244 297 q 196 269 215 269 q 160 283 175 269 q 146 318 146 297 q 160 353 146 339 q 196 368 175 368 q 230 353 215 368 q 244 318 244 339 m 244 193 q 230 158 244 172 q 196 143 215 143 q 160 158 175 143 q 146 193 146 172 q 160 227 146 213 q 196 242 175 242 q 230 227 215 242 q 244 193 244 213 z "},"H":{"ha":644,"x_min":36,"x_max":615,"o":"m 251 0 l 36 0 l 36 854 l 72 935 l 72 949 l 296 949 l 296 629 l 356 629 l 356 854 l 392 935 l 392 949 l 615 949 l 615 86 l 608 86 l 571 0 l 356 0 l 356 319 l 296 319 l 296 86 l 289 86 l 251 0 m 422 435 l 422 115 l 585 115 l 585 918 l 422 918 l 422 599 l 267 599 l 267 918 l 103 918 l 103 115 l 267 115 l 267 435 l 422 435 m 232 826 q 217 792 232 807 q 183 778 203 778 q 148 792 163 778 q 133 826 133 807 q 148 862 133 847 q 183 876 163 876 q 217 862 203 876 q 232 826 232 847 m 232 700 q 217 665 232 679 q 183 650 203 650 q 148 665 163 650 q 133 700 133 679 q 148 734 133 719 q 183 749 163 749 q 217 734 203 749 q 232 700 232 719 m 232 576 q 217 542 232 557 q 183 528 203 528 q 148 542 163 528 q 133 576 133 557 q 148 612 133 597 q 183 626 163 626 q 217 612 203 626 q 232 576 232 597 m 232 443 q 217 408 232 422 q 183 393 203 393 q 148 408 163 393 q 133 443 133 422 q 148 477 133 463 q 183 492 163 492 q 217 477 203 492 q 232 443 232 463 m 336 510 q 322 476 336 490 q 286 461 307 461 q 252 476 267 461 q 238 510 238 490 q 252 545 238 531 q 286 560 267 560 q 322 545 307 560 q 336 510 336 531 m 453 510 q 438 476 453 490 q 403 461 424 461 q 369 476 383 461 q 354 510 354 490 q 369 545 354 531 q 403 560 383 560 q 438 545 424 560 q 453 510 453 531 m 232 318 q 217 283 232 297 q 183 269 203 269 q 148 283 163 269 q 133 318 133 297 q 148 353 133 339 q 183 368 163 368 q 217 353 203 368 q 232 318 232 339 m 232 193 q 217 158 232 172 q 183 143 203 143 q 148 158 163 143 q 133 193 133 172 q 148 227 133 213 q 183 242 163 242 q 217 227 203 242 q 232 193 232 213 m 556 838 q 541 802 556 817 q 506 788 526 788 q 472 802 486 788 q 457 838 457 817 q 472 872 457 858 q 506 886 486 886 q 541 872 526 886 q 556 838 556 858 m 556 710 q 541 675 556 689 q 506 661 526 661 q 472 675 486 661 q 457 710 457 689 q 472 745 457 731 q 506 760 486 760 q 541 745 526 760 q 556 710 556 731 m 556 588 q 541 552 556 567 q 506 538 526 538 q 472 552 486 538 q 457 588 457 567 q 472 622 457 608 q 506 636 486 636 q 541 622 526 636 q 556 588 556 608 m 556 453 q 541 419 556 433 q 506 404 526 404 q 472 419 486 404 q 457 453 457 433 q 472 488 457 474 q 506 503 486 503 q 541 488 526 503 q 556 453 556 474 m 556 328 q 541 294 556 308 q 506 279 526 279 q 472 294 486 279 q 457 328 457 308 q 472 363 457 349 q 506 378 486 378 q 541 363 526 378 q 556 328 556 349 m 556 203 q 541 169 556 183 q 506 154 526 154 q 472 169 486 154 q 457 203 457 183 q 472 238 457 224 q 506 253 486 253 q 541 238 526 253 q 556 203 556 224 z "},"J":{"ha":644,"x_min":28,"x_max":607,"o":"m 65 363 l 285 363 l 285 361 q 306 324 292 338 q 338 310 321 311 q 344 310 340 310 q 350 311 347 311 l 350 318 l 350 346 q 349 360 349 353 q 349 374 349 367 l 349 854 l 385 936 l 385 949 l 607 949 l 607 393 q 606 328 607 357 q 593 268 604 299 q 561 204 582 233 l 546 171 q 540 160 542 165 q 473 68 517 107 q 376 13 429 29 q 296 0 340 0 q 115 78 193 0 q 56 165 78 115 q 28 268 33 214 l 65 353 l 65 361 l 65 363 m 414 351 q 389 300 411 321 q 338 279 367 279 l 333 279 q 290 294 310 281 q 263 332 271 308 l 97 332 q 122 247 101 286 q 175 178 143 207 q 248 132 207 149 q 336 115 289 115 q 408 126 375 115 q 505 183 464 143 q 565 278 546 224 q 576 333 575 306 q 578 393 578 360 l 578 918 l 415 918 l 415 463 q 417 407 417 435 q 414 351 417 379 m 446 343 q 460 378 446 364 q 496 393 475 393 q 530 378 515 393 q 544 343 544 364 q 530 309 544 324 q 496 294 515 294 q 460 309 475 294 q 446 343 446 324 m 449 472 q 463 506 449 492 q 497 521 478 521 q 533 506 518 521 q 547 472 547 492 q 533 437 547 451 q 497 422 518 422 q 463 437 478 422 q 449 472 449 451 m 449 594 q 463 628 449 614 q 497 643 478 643 q 533 628 518 643 q 547 594 547 614 q 533 559 547 574 q 497 544 518 544 q 463 559 478 544 q 449 594 449 574 m 446 722 q 460 758 446 743 q 496 772 475 772 q 530 758 515 772 q 544 722 544 743 q 530 688 544 703 q 496 674 515 674 q 460 688 475 674 q 446 722 446 703 m 446 847 q 460 883 446 868 q 496 897 475 897 q 530 883 515 897 q 544 847 544 868 q 530 813 544 826 q 496 799 515 799 q 460 813 475 799 q 446 847 446 826 m 261 264 q 247 228 261 243 q 213 214 232 214 q 177 228 192 214 q 163 264 163 243 q 177 298 163 283 q 213 313 192 313 q 247 298 232 313 q 261 264 261 283 m 372 197 q 358 163 372 178 q 322 149 343 149 q 288 163 303 149 q 274 197 274 178 q 288 233 274 218 q 322 247 303 247 q 358 233 343 247 q 372 197 372 218 m 496 231 q 482 196 496 210 q 447 182 468 182 q 412 196 426 182 q 397 231 397 210 q 412 266 397 251 q 447 281 426 281 q 482 266 468 281 q 496 231 496 251 z "},"K":{"ha":644,"x_min":40,"x_max":625,"o":"m 374 947 l 625 947 l 624 946 l 410 517 l 624 85 l 614 85 l 576 0 l 336 0 l 296 85 l 294 85 l 257 0 l 40 0 l 42 854 l 78 935 l 78 947 l 301 947 l 301 801 l 374 947 m 271 672 l 271 918 l 107 918 l 107 115 l 271 115 l 271 254 l 272 368 l 392 115 l 576 115 l 376 517 l 576 918 l 392 918 l 271 672 m 247 844 q 233 810 247 825 q 199 796 218 796 q 163 810 178 796 q 149 844 149 825 q 163 880 149 865 q 199 894 178 894 q 233 880 218 894 q 247 844 247 865 m 503 850 q 488 816 503 831 q 453 801 474 801 q 419 816 433 801 q 404 850 404 831 q 419 885 404 871 q 453 900 433 900 q 488 885 474 900 q 503 850 503 871 m 443 742 q 428 706 443 721 q 393 692 414 692 q 359 706 374 692 q 344 742 344 721 q 359 777 344 763 q 393 792 374 792 q 428 777 414 792 q 443 742 443 763 m 382 638 q 367 603 382 618 q 332 589 353 589 q 297 603 311 589 q 283 638 283 618 q 297 673 283 658 q 332 688 311 688 q 367 673 353 688 q 382 638 382 658 m 350 514 q 335 479 350 493 q 301 465 321 465 q 266 479 281 465 q 251 514 251 493 q 266 549 251 535 q 301 564 281 564 q 335 549 321 564 q 350 514 350 535 m 389 396 q 375 362 389 376 q 340 347 361 347 q 305 362 319 347 q 290 396 290 376 q 305 431 290 417 q 340 446 319 446 q 375 431 361 446 q 389 396 389 417 m 447 289 q 433 253 447 268 q 397 239 418 239 q 363 253 378 239 q 349 289 349 268 q 363 324 349 310 q 397 338 378 338 q 433 324 418 338 q 447 289 447 310 m 508 185 q 494 150 508 164 q 460 136 479 136 q 424 150 439 136 q 410 185 410 164 q 424 220 410 206 q 460 235 439 235 q 494 220 479 235 q 508 185 508 206 m 243 714 q 228 678 243 693 q 194 664 214 664 q 159 678 174 664 q 144 714 144 693 q 159 748 144 733 q 194 763 174 763 q 228 748 214 763 q 243 714 243 733 m 243 586 q 228 552 243 567 q 194 538 214 538 q 159 552 174 538 q 144 586 144 567 q 159 622 144 607 q 194 636 174 636 q 228 622 214 636 q 243 586 243 607 m 242 449 q 227 413 242 428 q 192 399 213 399 q 158 413 172 399 q 143 449 143 428 q 158 483 143 468 q 192 497 172 497 q 227 483 213 497 q 242 449 242 468 m 242 318 q 227 283 242 297 q 192 268 213 268 q 158 283 172 268 q 143 318 143 297 q 158 352 143 338 q 192 367 172 367 q 227 352 213 367 q 242 318 242 338 m 239 194 q 224 159 239 174 q 190 144 210 144 q 155 159 169 144 q 140 194 140 174 q 155 228 140 214 q 190 243 169 243 q 224 228 210 243 q 239 194 239 214 z "},"U":{"ha":644,"x_min":36,"x_max":617,"o":"m 304 0 q 166 38 229 0 q 67 143 103 76 q 44 207 51 174 q 36 282 36 240 l 36 854 l 72 935 l 72 949 l 297 949 l 297 374 q 302 340 297 353 q 314 319 307 326 q 329 309 321 311 q 344 307 338 307 q 356 308 351 307 l 356 854 l 393 935 l 393 949 l 617 949 l 617 372 q 585 229 617 285 l 571 208 l 553 167 l 550 161 l 550 160 l 540 143 q 436 40 501 79 q 304 0 371 0 m 422 374 q 413 322 422 342 q 392 293 404 303 q 366 281 379 283 q 344 278 353 278 q 320 281 333 278 q 295 294 307 285 q 275 323 283 304 q 267 374 267 342 l 267 918 l 103 918 l 103 372 q 131 244 103 296 q 219 149 163 183 q 344 115 276 115 q 469 149 413 115 q 558 244 526 183 q 586 372 586 296 l 586 918 l 422 918 l 422 374 m 457 350 q 472 385 457 371 q 506 400 486 400 q 541 385 526 400 q 556 350 556 371 q 541 315 556 329 q 506 301 526 301 q 472 315 486 301 q 457 350 457 329 m 457 472 q 472 508 457 493 q 506 522 486 522 q 541 508 526 522 q 556 472 556 493 q 541 438 556 453 q 506 424 526 424 q 472 438 486 424 q 457 472 457 453 m 458 594 q 473 630 458 615 q 508 644 488 644 q 542 630 528 644 q 557 594 557 615 q 542 560 557 575 q 508 546 528 546 q 473 560 488 546 q 458 594 458 575 m 453 722 q 467 756 453 742 q 501 771 482 771 q 537 756 522 771 q 551 722 551 742 q 537 687 551 701 q 501 672 522 672 q 467 687 482 672 q 453 722 453 701 m 454 840 q 469 876 454 861 q 504 890 483 890 q 538 876 524 890 q 553 840 553 861 q 538 806 553 821 q 504 792 524 792 q 469 806 483 792 q 454 840 454 821 m 142 835 q 156 869 142 854 q 190 883 171 883 q 226 869 211 883 q 240 835 240 854 q 226 799 240 814 q 190 785 211 785 q 156 799 171 785 q 142 835 142 814 m 139 350 q 153 385 139 371 q 189 399 168 399 q 223 385 208 399 q 238 350 238 371 q 223 315 238 329 q 189 300 208 300 q 153 315 168 300 q 139 350 139 329 m 138 471 q 152 505 138 490 q 186 519 167 519 q 222 505 207 519 q 236 471 236 490 q 222 435 236 450 q 186 421 207 421 q 152 435 167 421 q 138 471 138 450 m 138 593 q 152 627 138 613 q 186 642 167 642 q 222 627 207 642 q 236 593 236 613 q 222 558 236 572 q 186 543 207 543 q 152 558 167 543 q 138 593 138 572 m 142 715 q 156 751 142 736 q 190 765 171 765 q 226 751 211 765 q 240 715 240 736 q 226 680 240 694 q 190 665 211 665 q 156 680 171 665 q 142 715 142 694 m 286 246 q 272 210 286 225 q 236 196 257 196 q 202 210 217 196 q 188 246 188 225 q 202 281 188 267 q 236 294 217 294 q 272 281 257 294 q 286 246 286 267 m 399 200 q 384 166 399 181 q 350 151 369 151 q 315 166 329 151 q 300 200 300 181 q 315 235 300 221 q 350 250 329 250 q 384 235 369 250 q 399 200 399 221 m 508 239 q 494 205 508 219 q 460 190 479 190 q 424 205 439 190 q 410 239 410 219 q 424 274 410 260 q 460 289 439 289 q 494 274 479 289 q 508 239 508 260 z "},"T":{"ha":604,"x_min":43,"x_max":569,"o":"m 79 949 l 569 949 l 569 725 l 563 725 l 525 640 l 436 640 l 436 86 l 431 86 l 392 0 l 176 0 l 176 640 l 43 640 l 43 856 l 79 938 l 79 949 m 243 756 l 243 115 l 407 115 l 407 756 l 539 756 l 539 919 l 108 919 l 108 756 l 243 756 m 376 838 q 362 802 376 817 q 326 788 347 788 q 291 802 306 788 q 276 838 276 817 q 291 872 276 857 q 326 886 306 886 q 362 872 347 886 q 376 838 376 857 m 258 839 q 244 804 258 818 q 208 790 229 790 q 174 804 188 790 q 160 839 160 818 q 174 874 160 860 q 208 889 188 889 q 244 874 229 889 q 258 839 258 860 m 503 840 q 488 805 503 819 q 453 790 474 790 q 419 805 433 790 q 404 840 404 819 q 419 874 404 860 q 453 889 433 889 q 488 874 474 889 q 503 840 503 860 m 376 710 q 362 674 376 689 q 326 660 347 660 q 291 674 306 660 q 276 710 276 689 q 291 744 276 729 q 326 758 306 758 q 362 744 347 758 q 376 710 376 729 m 376 586 q 362 552 376 567 q 326 538 347 538 q 291 552 306 538 q 276 586 276 567 q 291 622 276 607 q 326 636 306 636 q 362 622 347 636 q 376 586 376 607 m 376 453 q 362 417 376 432 q 326 403 347 403 q 291 417 306 403 q 276 453 276 432 q 291 487 276 472 q 326 501 306 501 q 362 487 347 501 q 376 453 376 472 m 376 328 q 362 292 376 307 q 326 278 347 278 q 291 292 306 278 q 276 328 276 307 q 291 362 276 347 q 326 376 306 376 q 362 362 347 376 q 376 328 376 347 m 376 201 q 362 167 376 182 q 326 153 347 153 q 291 167 306 153 q 276 201 276 182 q 291 237 276 222 q 326 251 306 251 q 362 237 347 251 q 376 201 376 222 z "},"Y":{"ha":644,"x_min":35,"x_max":614,"o":"m 194 289 q 77 390 119 324 q 35 539 35 457 l 35 854 l 71 936 l 71 949 l 294 949 l 294 642 q 299 608 294 621 q 312 587 304 594 q 328 577 319 579 q 343 575 336 575 q 354 576 350 575 l 354 854 l 390 936 l 390 949 l 614 949 l 614 629 q 565 471 614 544 l 560 456 l 550 433 l 550 435 l 546 426 q 454 315 514 358 l 454 86 l 449 86 l 410 0 l 194 0 l 194 289 m 421 642 q 413 591 421 610 q 392 563 404 572 q 367 549 381 553 q 343 546 354 546 q 319 549 332 546 q 294 563 306 553 q 274 591 282 572 q 265 642 265 610 l 265 918 l 101 918 l 101 629 q 140 492 101 553 q 246 401 179 431 l 261 396 l 261 117 l 425 117 l 425 396 l 439 401 q 546 492 507 431 q 585 629 585 553 l 585 918 l 421 918 l 421 642 m 454 600 q 469 635 454 621 q 503 649 483 649 q 538 635 524 649 q 553 600 553 621 q 538 565 553 579 q 503 550 524 550 q 469 565 483 550 q 454 600 454 579 m 456 722 q 470 758 456 743 q 506 772 485 772 q 540 758 525 772 q 554 722 554 743 q 540 688 554 703 q 506 674 525 674 q 470 688 485 674 q 456 722 456 703 m 456 844 q 470 880 456 865 q 506 894 485 894 q 540 880 525 894 q 554 844 554 865 q 540 810 554 825 q 506 796 525 796 q 470 810 485 796 q 456 844 456 825 m 131 607 q 144 641 131 626 q 179 656 158 656 q 215 641 200 656 q 229 607 229 626 q 215 572 229 586 q 179 557 200 557 q 144 572 158 557 q 131 607 131 586 m 132 729 q 147 765 132 750 q 182 779 161 779 q 216 765 201 779 q 231 729 231 750 q 216 694 231 708 q 182 679 201 679 q 147 694 161 679 q 132 729 132 708 m 132 851 q 147 886 132 872 q 182 900 161 900 q 216 886 201 900 q 231 851 231 872 q 216 816 231 831 q 182 801 201 801 q 147 816 161 801 q 132 851 132 831 m 290 326 q 305 360 290 346 q 339 375 319 375 q 374 360 360 375 q 389 326 389 346 q 374 291 389 306 q 339 276 360 276 q 305 291 319 276 q 290 326 290 306 m 290 199 q 305 234 290 219 q 339 249 319 249 q 374 234 360 249 q 389 199 389 219 q 374 165 389 179 q 339 150 360 150 q 305 165 319 150 q 290 199 290 179 m 271 497 q 256 463 271 478 q 222 449 242 449 q 187 463 201 449 q 172 497 172 478 q 187 533 172 518 q 222 547 201 547 q 256 533 242 547 q 271 497 271 518 m 388 450 q 373 415 388 429 q 339 400 358 400 q 303 415 318 400 q 289 450 289 429 q 303 485 289 471 q 339 500 318 500 q 373 485 358 500 q 388 450 388 471 m 504 492 q 490 456 504 471 q 454 442 475 442 q 420 456 435 442 q 406 492 406 471 q 420 526 406 511 q 454 540 435 540 q 490 526 475 540 q 504 492 504 511 z "},"Z":{"ha":679,"x_min":35,"x_max":639,"o":"m 71 294 l 303 626 l 35 626 l 35 842 l 71 924 l 71 936 l 639 936 l 639 714 l 626 696 l 594 626 l 364 297 l 639 297 l 639 74 l 632 74 l 594 -12 l 35 -12 l 35 203 l 71 285 l 71 293 l 71 294 m 421 742 l 419 740 l 101 283 l 101 103 l 610 103 l 610 267 l 289 267 l 610 725 l 610 906 l 101 906 l 101 742 l 421 742 m 406 496 q 387 462 403 475 q 351 451 371 449 q 317 470 331 454 q 307 507 304 486 q 326 540 310 526 q 361 550 342 553 q 395 531 382 547 q 406 496 408 515 m 479 831 q 498 862 482 850 q 533 871 514 874 q 564 851 553 868 q 571 815 575 835 q 552 783 568 794 q 517 774 536 771 q 486 793 497 776 q 479 831 475 810 m 443 714 q 462 745 446 733 q 497 754 478 757 q 528 735 517 751 q 536 699 539 718 q 517 667 532 679 q 482 657 501 654 q 451 676 463 660 q 443 714 440 693 m 374 610 q 392 642 376 631 q 428 651 408 654 q 458 632 447 649 q 467 594 469 615 q 448 563 464 575 q 413 554 432 551 q 382 574 393 557 q 374 610 371 590 m 246 407 q 265 440 249 428 q 300 449 281 451 q 331 429 319 446 q 339 393 342 413 q 320 360 336 372 q 285 351 304 349 q 254 371 265 354 q 246 407 243 388 m 176 311 q 196 343 181 331 q 231 353 211 356 q 261 333 250 350 q 269 296 272 315 q 251 264 267 276 q 215 254 235 251 q 185 274 196 257 q 176 311 174 292 m 142 196 q 160 228 144 215 q 196 238 176 240 q 226 217 215 235 q 235 181 238 200 q 215 149 231 161 q 179 139 199 136 q 149 158 160 142 q 142 196 139 175 m 258 194 q 277 226 261 214 q 313 236 293 239 q 343 217 332 233 q 351 179 354 200 q 333 148 349 160 q 297 139 317 136 q 267 158 278 142 q 258 194 256 175 m 375 196 q 395 228 379 215 q 431 238 411 240 q 460 217 450 235 q 468 181 471 200 q 449 149 465 161 q 414 139 433 136 q 383 158 394 142 q 375 196 372 175 m 488 200 q 506 231 490 219 q 542 240 522 243 q 572 221 561 238 q 579 185 582 204 q 560 153 576 165 q 525 143 544 140 q 494 163 506 146 q 488 200 483 179 m 126 828 q 147 860 131 847 q 182 869 163 872 q 212 850 201 867 q 219 813 222 833 q 201 781 217 793 q 165 772 185 769 q 135 792 146 775 q 126 828 124 808 m 250 831 q 269 863 253 851 q 304 872 285 875 q 335 853 324 869 q 343 815 346 836 q 324 784 340 796 q 289 775 308 772 q 258 794 269 778 q 250 831 247 811 m 361 831 q 380 862 364 850 q 415 871 396 874 q 446 851 435 868 q 454 815 457 835 q 435 783 451 794 q 400 774 419 771 q 369 793 381 776 q 361 831 358 810 z "},"R":{"ha":644,"x_min":36,"x_max":615,"o":"m 356 0 l 356 214 q 354 265 356 240 q 344 300 353 289 q 322 315 335 311 q 297 321 308 319 l 297 85 l 290 85 l 253 0 l 36 0 l 36 854 l 72 933 l 72 947 l 300 947 q 368 944 335 947 q 434 931 401 942 q 497 900 467 921 q 557 844 528 879 q 600 765 585 808 q 615 676 615 721 q 569 525 615 589 l 564 514 q 608 417 600 465 q 615 308 615 368 l 615 85 l 608 85 l 571 0 l 356 0 m 101 115 l 267 115 l 267 435 l 290 435 q 303 436 299 435 l 324 436 q 404 406 379 436 q 420 361 418 389 q 422 303 422 333 l 422 115 l 585 115 l 585 308 q 578 412 585 367 q 538 501 571 457 l 526 517 l 538 531 q 585 678 586 597 q 533 825 585 760 q 482 876 508 857 q 427 903 456 894 q 367 915 399 913 q 300 918 335 918 l 101 918 l 101 115 m 331 597 q 319 597 325 597 q 310 599 314 597 l 267 599 l 267 754 l 290 754 q 299 754 296 754 q 310 756 303 754 l 331 756 q 365 751 350 756 q 406 722 390 743 q 422 676 422 701 q 406 629 422 650 q 365 601 390 608 q 331 597 350 597 m 335 626 q 317 638 324 635 q 297 640 306 640 l 297 628 l 315 628 q 331 626 322 626 l 335 626 m 353 831 q 338 795 353 810 q 304 781 324 781 q 269 795 283 781 q 254 831 254 810 q 269 865 254 850 q 304 879 283 879 q 338 865 324 879 q 353 831 353 850 m 471 811 q 456 776 471 790 q 422 761 442 761 q 387 776 401 761 q 372 811 372 790 q 387 845 372 831 q 422 860 401 860 q 456 845 442 860 q 471 811 471 831 m 554 726 q 540 692 554 707 q 506 678 525 678 q 470 692 485 678 q 456 726 456 707 q 470 762 456 747 q 506 776 485 776 q 540 762 525 776 q 554 726 554 747 m 536 608 q 522 574 536 589 q 486 560 507 560 q 452 574 467 560 q 438 608 438 589 q 452 644 438 629 q 486 658 467 658 q 522 644 507 658 q 536 608 536 629 m 457 521 q 442 485 457 500 q 407 471 428 471 q 372 485 386 471 q 357 521 357 500 q 372 556 357 542 q 407 571 386 571 q 442 556 428 571 q 457 521 457 542 m 525 422 q 510 387 525 401 q 475 372 496 372 q 441 387 456 372 q 426 422 426 401 q 441 457 426 443 q 475 471 456 471 q 510 457 496 471 q 525 422 525 443 m 550 196 q 535 160 550 175 q 501 146 521 146 q 466 160 481 146 q 451 196 451 175 q 466 230 451 215 q 501 244 481 244 q 535 230 521 244 q 550 196 550 215 m 549 308 q 534 274 549 289 q 499 260 519 260 q 465 274 479 260 q 450 308 450 289 q 465 344 450 329 q 499 358 479 358 q 534 344 519 358 q 549 308 549 329 m 340 518 q 326 483 340 497 q 292 468 311 468 q 256 483 271 468 q 242 518 242 497 q 256 552 242 538 q 292 567 271 567 q 326 552 311 567 q 340 518 340 538 m 233 828 q 219 792 233 807 q 185 778 204 778 q 149 792 164 778 q 135 828 135 807 q 149 863 135 849 q 185 876 164 876 q 219 863 204 876 q 233 828 233 849 m 233 700 q 219 666 233 681 q 185 651 204 651 q 149 666 164 651 q 135 700 135 681 q 149 735 135 721 q 185 750 164 750 q 219 735 204 750 q 233 700 233 721 m 233 569 q 219 534 233 549 q 185 519 204 519 q 149 534 164 519 q 135 569 135 549 q 149 605 135 590 q 185 619 164 619 q 219 605 204 619 q 233 569 233 590 m 233 446 q 219 410 233 425 q 185 396 204 396 q 149 410 164 396 q 135 446 135 425 q 149 480 135 465 q 185 494 164 494 q 219 480 204 494 q 233 446 233 465 m 233 319 q 219 284 233 299 q 185 269 204 269 q 149 284 164 269 q 135 319 135 299 q 149 353 135 339 q 185 368 164 368 q 219 353 204 368 q 233 319 233 339 m 233 193 q 219 159 233 174 q 185 144 204 144 q 149 159 164 144 q 135 193 135 174 q 149 228 135 214 q 185 243 164 243 q 219 228 204 243 q 233 193 233 214 z "},"S":{"ha":644,"x_min":31,"x_max":614,"o":"m 489 79 q 390 15 440 31 q 301 0 339 0 q 201 19 250 0 q 115 74 151 39 q 59 156 81 107 q 31 269 38 206 l 68 353 q 67 363 67 356 l 153 363 q 53 485 85 408 q 32 589 32 535 q 56 697 32 642 q 58 704 58 703 q 60 707 60 706 l 61 710 l 78 746 q 147 868 93 811 q 250 933 199 918 q 339 949 301 949 q 440 929 390 949 q 528 874 489 910 q 583 790 561 842 q 614 672 606 739 l 607 672 l 569 586 l 486 586 q 547 533 519 564 q 592 461 574 501 q 613 357 613 407 q 565 208 613 272 l 544 160 q 519 117 533 136 q 489 79 506 97 m 318 317 q 323 314 321 315 q 328 311 325 313 q 318 317 324 314 m 100 333 q 174 182 108 243 q 251 133 207 150 q 342 115 294 115 q 422 129 376 115 q 511 188 467 143 q 578 310 564 240 q 564 450 592 381 q 475 559 535 519 q 340 599 415 599 q 268 647 290 599 q 265 692 260 669 q 285 732 269 715 q 340 754 310 754 q 386 740 365 754 q 415 701 407 725 l 581 701 q 507 851 572 793 q 428 901 472 883 q 339 919 383 919 q 260 906 306 919 q 169 849 214 893 q 103 724 117 794 q 117 583 89 654 q 206 474 146 514 q 340 435 265 435 q 383 422 364 435 q 413 386 403 410 q 416 342 421 364 q 396 303 411 319 q 342 279 372 279 q 294 294 315 279 q 267 333 274 310 l 100 333 m 313 638 q 318 633 315 635 q 325 631 321 632 q 313 638 317 636 m 236 718 q 222 684 236 699 q 188 669 207 669 q 152 684 167 669 q 138 718 138 699 q 152 753 138 739 q 188 768 167 768 q 222 753 207 768 q 236 718 236 739 m 242 603 q 227 567 242 582 q 193 553 213 553 q 158 567 172 553 q 143 603 143 582 q 158 638 143 624 q 193 651 172 651 q 227 638 213 651 q 242 603 242 624 m 336 528 q 322 492 336 507 q 286 478 307 478 q 251 492 265 478 q 238 528 238 507 q 251 563 238 549 q 286 576 265 576 q 322 563 307 576 q 336 528 336 549 m 454 486 q 440 451 454 465 q 404 436 425 436 q 370 451 385 436 q 356 486 356 465 q 370 520 356 506 q 404 535 385 535 q 440 520 425 535 q 454 486 454 506 m 553 404 q 538 369 553 383 q 503 354 524 354 q 469 369 483 354 q 454 404 454 383 q 469 439 454 425 q 503 453 483 453 q 538 439 524 453 q 553 404 553 425 m 425 774 q 440 808 425 794 q 475 822 454 822 q 509 808 494 822 q 524 774 524 794 q 509 738 524 753 q 475 724 494 724 q 440 738 454 724 q 425 774 425 753 m 321 839 q 335 874 321 860 q 369 889 350 889 q 405 874 390 889 q 419 839 419 860 q 405 805 419 819 q 369 790 390 790 q 335 805 350 790 q 321 839 321 819 m 203 813 q 217 848 203 833 q 251 863 232 863 q 287 848 272 863 q 301 813 301 833 q 287 778 301 792 q 251 764 272 764 q 217 778 232 764 q 203 813 203 792 m 243 274 q 228 238 243 253 q 193 224 214 224 q 159 238 174 224 q 144 274 144 253 q 159 308 144 293 q 193 322 174 322 q 228 308 214 322 q 243 274 243 293 m 333 197 q 319 162 333 176 q 283 147 304 147 q 249 162 263 147 q 235 197 235 176 q 249 231 235 217 q 283 246 263 246 q 319 231 304 246 q 333 197 333 217 m 451 201 q 437 166 451 181 q 401 151 422 151 q 367 166 381 151 q 353 201 353 181 q 367 235 353 221 q 401 250 381 250 q 437 235 422 250 q 451 201 451 221 m 540 283 q 526 249 540 263 q 490 235 511 235 q 456 249 471 235 q 442 283 442 263 q 456 319 442 304 q 490 333 471 333 q 526 319 511 333 q 540 283 540 304 z "},"Q":{"ha":644,"x_min":35,"x_max":621,"o":"m 303 0 q 183 28 240 0 q 88 108 126 57 q 57 162 68 135 q 41 216 46 189 q 35 271 36 243 q 35 328 35 299 l 35 347 q 36 354 35 353 l 36 361 q 35 374 36 367 q 35 488 35 442 q 35 562 35 533 q 37 604 36 590 q 38 624 38 618 q 58 694 43 658 l 58 697 l 60 699 l 60 700 l 61 701 l 81 744 q 134 851 96 803 q 225 922 172 899 q 343 950 285 950 q 445 930 397 950 q 530 876 493 910 q 590 795 567 842 q 615 694 613 749 q 617 648 617 671 q 617 604 617 625 l 617 575 l 617 569 q 616 566 617 567 q 615 564 615 565 l 615 417 q 611 306 617 356 q 572 207 606 257 l 557 176 l 621 32 l 611 32 l 572 -54 l 336 -54 l 317 0 l 303 0 m 101 418 q 102 364 101 390 q 107 312 103 338 q 121 262 111 286 q 149 214 131 238 q 234 141 183 167 q 343 115 285 115 l 356 115 l 372 117 l 394 61 l 574 61 l 519 189 l 529 201 q 562 251 550 226 q 579 303 574 276 q 585 358 585 329 q 586 418 586 386 l 586 564 l 586 585 q 588 604 588 592 q 588 648 588 626 q 586 693 588 669 q 563 782 583 740 q 510 855 543 824 q 435 903 478 886 q 343 921 392 921 q 238 896 292 921 q 148 819 183 868 q 104 710 113 771 q 102 640 103 700 q 101 468 101 581 q 103 458 103 461 q 103 451 103 454 q 101 438 103 442 l 101 424 l 101 418 m 344 279 q 289 303 313 279 q 265 358 265 326 l 265 663 q 269 699 265 681 q 293 738 272 718 q 343 756 315 756 q 399 733 375 756 q 422 678 422 710 l 422 372 q 419 336 422 356 q 396 299 415 317 q 344 279 372 279 m 356 589 q 340 625 356 610 q 303 640 325 640 l 300 640 q 296 640 296 640 l 296 358 q 310 324 296 339 q 344 310 325 310 q 356 313 347 310 l 356 589 m 235 704 q 220 669 235 683 q 186 654 206 654 q 151 669 165 654 q 136 704 136 683 q 151 740 136 725 q 186 754 165 754 q 220 740 206 754 q 235 704 235 725 m 235 583 q 220 548 235 563 q 186 533 206 533 q 151 548 165 533 q 136 583 136 563 q 151 619 136 604 q 186 633 165 633 q 220 619 206 633 q 235 583 235 604 m 235 453 q 220 417 235 432 q 186 403 206 403 q 151 417 165 403 q 136 453 136 432 q 151 488 136 474 q 186 503 165 503 q 220 488 206 503 q 235 453 235 474 m 233 332 q 219 297 233 311 q 183 282 204 282 q 148 297 163 282 q 133 332 133 311 q 148 367 133 353 q 183 382 163 382 q 219 367 204 382 q 233 332 233 353 m 549 700 q 534 666 549 681 q 500 651 519 651 q 465 666 479 651 q 450 700 450 681 q 465 735 450 721 q 500 750 479 750 q 534 735 519 750 q 549 700 549 721 m 556 588 q 541 553 556 568 q 506 539 526 539 q 470 553 485 539 q 456 588 456 568 q 470 623 456 608 q 506 638 485 638 q 541 623 526 638 q 556 588 556 608 m 556 465 q 541 430 556 444 q 506 415 526 415 q 470 430 485 415 q 456 465 456 444 q 470 501 456 486 q 506 515 485 515 q 541 501 526 515 q 556 465 556 486 m 551 351 q 537 316 551 331 q 501 301 522 301 q 466 316 481 301 q 451 351 451 331 q 466 385 451 371 q 501 400 481 400 q 537 385 522 400 q 551 351 551 371 m 289 228 q 274 194 289 208 q 239 179 260 179 q 203 194 218 179 q 189 228 189 208 q 203 263 189 249 q 239 278 218 278 q 274 263 260 278 q 289 228 289 249 m 400 196 q 385 160 400 175 q 350 146 371 146 q 315 160 329 146 q 300 196 300 175 q 315 230 300 215 q 350 244 329 244 q 385 230 371 244 q 400 196 400 215 m 503 244 q 489 210 503 225 q 454 196 475 196 q 419 210 433 196 q 404 244 404 225 q 419 280 404 265 q 454 294 433 294 q 489 280 475 294 q 503 244 503 265 m 515 121 q 501 85 515 100 q 465 71 486 71 q 430 85 444 71 q 415 121 415 100 q 430 155 415 140 q 465 169 444 169 q 501 155 486 169 q 515 121 515 140 m 406 804 q 420 840 406 825 q 456 854 435 854 q 491 840 476 854 q 506 804 506 825 q 491 770 506 785 q 456 756 476 756 q 420 770 435 756 q 406 804 406 785 m 299 842 q 313 877 299 863 q 349 892 328 892 q 384 877 369 892 q 399 842 399 863 q 384 808 399 822 q 349 793 369 793 q 313 808 328 793 q 299 842 299 822 m 188 808 q 201 844 188 829 q 236 858 215 858 q 272 844 257 858 q 286 808 286 829 q 272 774 286 789 q 236 760 257 760 q 201 774 215 760 q 188 808 188 789 z "},"V":{"ha":629,"x_min":25,"x_max":604,"o":"m 603 947 l 469 86 l 464 86 l 426 0 l 160 0 l 160 1 l 25 854 l 63 938 l 61 947 l 288 947 l 321 728 l 342 854 l 375 929 l 378 947 l 604 947 l 603 947 m 96 918 l 222 115 l 443 115 l 569 918 l 404 918 l 332 447 l 308 617 l 261 918 l 96 918 m 233 844 q 224 808 236 825 q 192 789 211 792 q 155 799 171 786 q 136 831 139 811 q 145 867 133 850 q 178 886 157 883 q 214 877 197 889 q 233 844 231 865 m 257 717 q 247 679 260 696 q 215 660 235 663 q 178 669 194 657 q 158 701 161 682 q 168 739 156 722 q 200 758 181 756 q 238 749 221 761 q 257 717 254 736 m 275 590 q 265 554 278 571 q 233 535 253 538 q 196 544 213 532 q 176 576 179 557 q 186 613 174 597 q 218 632 199 629 q 256 623 239 635 q 275 590 272 611 m 290 468 q 281 432 293 449 q 249 413 269 415 q 213 422 229 410 q 193 454 196 433 q 202 490 190 474 q 235 510 214 507 q 271 500 254 513 q 290 468 288 488 m 306 340 q 296 304 308 321 q 264 285 283 288 q 226 294 243 282 q 207 326 210 307 q 217 363 204 346 q 249 382 229 379 q 286 373 269 385 q 306 340 303 361 m 526 826 q 507 794 524 807 q 469 785 490 782 q 438 804 450 788 q 428 842 425 821 q 447 874 431 861 q 485 883 464 886 q 517 864 504 881 q 526 826 529 847 m 506 701 q 486 669 503 682 q 450 660 469 657 q 418 679 431 663 q 408 717 406 696 q 428 748 411 736 q 465 757 444 760 q 497 738 485 754 q 506 701 508 721 m 488 576 q 468 544 485 556 q 431 535 451 532 q 399 554 411 538 q 390 590 388 571 q 410 623 393 611 q 446 632 426 635 q 478 613 465 629 q 488 576 490 596 m 468 450 q 449 417 465 429 q 413 408 432 406 q 381 428 393 411 q 371 465 368 444 q 390 497 374 485 q 428 506 407 508 q 459 486 447 503 q 468 450 471 469 m 453 318 q 433 287 450 299 q 397 278 417 275 q 365 297 378 281 q 356 333 353 314 q 375 365 358 353 q 413 375 392 378 q 444 356 432 372 q 453 318 456 339 m 324 189 q 304 156 321 168 q 268 147 288 144 q 235 167 247 150 q 226 203 224 183 q 246 235 229 224 q 282 244 263 247 q 315 225 303 242 q 324 189 326 208 m 442 189 q 422 156 439 168 q 386 147 406 144 q 353 167 365 150 q 344 203 342 183 q 364 235 347 224 q 401 244 381 247 q 433 225 421 242 q 442 189 444 208 z "},"W":{"ha":974,"x_min":36,"x_max":936,"o":"m 713 947 l 936 947 l 936 356 q 924 275 935 314 q 889 204 913 236 l 889 203 l 885 194 l 876 175 l 876 174 l 872 161 l 872 167 l 872 165 l 868 156 q 844 112 858 132 q 810 72 829 92 q 723 19 771 38 q 624 0 675 0 q 540 13 579 0 q 468 50 500 25 l 465 53 q 391 13 432 26 q 307 0 350 0 q 208 18 257 0 q 119 72 160 36 q 62 159 83 107 q 38 265 40 211 q 36 364 36 310 q 36 463 36 418 q 36 560 36 511 q 38 657 36 608 l 38 853 l 38 854 l 75 935 l 75 947 l 297 947 l 297 374 q 313 321 297 333 q 346 308 329 308 q 357 310 353 308 l 357 853 l 357 854 l 393 935 l 393 947 l 617 947 l 617 374 q 622 340 617 353 q 634 319 626 326 q 650 310 642 313 q 665 308 658 308 q 676 310 672 308 l 676 853 l 676 854 l 713 935 l 713 947 m 743 374 q 734 323 743 342 q 713 294 725 304 q 687 282 700 285 q 665 279 674 279 q 641 283 654 279 q 616 296 628 286 q 596 324 604 306 q 588 374 588 343 l 588 918 l 424 918 l 424 374 q 415 324 424 343 q 395 296 407 306 q 370 283 383 286 q 346 279 357 279 q 322 283 335 279 q 297 296 308 286 q 276 324 285 306 q 268 374 268 343 l 268 918 l 104 918 l 104 746 q 104 356 101 553 q 178 181 104 251 q 258 132 214 149 q 347 115 301 115 q 490 164 426 115 l 506 175 l 519 164 q 664 115 583 115 q 753 132 710 115 q 832 181 797 149 q 907 356 904 251 l 907 618 l 907 746 l 907 918 l 743 918 l 743 374 m 783 351 q 798 387 783 372 q 833 401 813 401 q 867 387 853 401 q 882 351 882 372 q 867 317 882 332 q 833 303 853 303 q 798 317 813 303 q 783 351 783 332 m 785 475 q 799 509 785 494 q 835 524 814 524 q 869 509 856 524 q 883 475 883 494 q 869 440 883 454 q 835 425 856 425 q 799 440 814 425 q 785 475 785 454 m 785 596 q 799 631 785 617 q 835 646 814 646 q 869 631 856 646 q 883 596 883 617 q 869 562 883 576 q 835 547 856 547 q 799 562 814 547 q 785 596 785 576 m 783 719 q 798 753 783 739 q 833 768 813 768 q 867 753 853 768 q 882 719 882 739 q 867 684 882 699 q 833 669 853 669 q 798 684 813 669 q 783 719 783 699 m 783 843 q 798 878 783 864 q 833 893 813 893 q 867 878 853 893 q 882 843 882 864 q 867 809 882 824 q 833 794 853 794 q 798 809 813 794 q 783 843 783 824 m 460 358 q 474 394 460 379 q 510 408 489 408 q 544 394 529 408 q 558 358 558 379 q 544 324 558 338 q 510 310 529 310 q 474 324 489 310 q 460 358 460 338 m 463 481 q 476 516 463 501 q 511 531 490 531 q 547 516 532 531 q 561 481 561 501 q 547 447 561 461 q 511 432 532 432 q 476 447 490 432 q 463 481 463 461 m 463 603 q 476 638 463 624 q 511 653 490 653 q 547 638 532 653 q 561 603 561 624 q 547 568 561 582 q 511 554 532 554 q 476 568 490 554 q 463 603 463 582 m 463 721 q 476 756 463 742 q 511 771 490 771 q 547 756 532 771 q 561 721 561 742 q 547 687 561 701 q 511 672 532 672 q 476 687 490 672 q 463 721 463 701 m 460 850 q 474 885 460 871 q 510 900 489 900 q 544 885 529 900 q 558 850 558 871 q 544 815 558 829 q 510 801 529 801 q 474 815 489 801 q 460 850 460 829 m 138 360 q 152 395 138 381 q 188 410 167 410 q 222 395 207 410 q 236 360 236 381 q 222 326 236 340 q 188 311 207 311 q 152 326 167 311 q 138 360 138 340 m 138 481 q 152 516 138 501 q 188 531 167 531 q 222 516 207 531 q 236 481 236 501 q 222 447 236 461 q 188 432 207 432 q 152 447 167 432 q 138 481 138 461 m 138 603 q 152 638 138 624 q 188 653 167 653 q 222 638 207 653 q 236 603 236 624 q 222 568 236 582 q 188 554 207 554 q 152 568 167 554 q 138 603 138 582 m 138 724 q 152 758 138 743 q 188 772 167 772 q 222 758 207 772 q 236 724 236 743 q 222 688 236 703 q 188 674 207 674 q 152 688 167 674 q 138 724 138 703 m 136 850 q 151 885 136 871 q 185 900 165 900 q 220 885 206 900 q 235 850 235 871 q 220 815 235 829 q 185 801 206 801 q 151 815 165 801 q 136 850 136 829 m 601 250 q 587 215 601 229 q 551 200 572 200 q 517 215 531 200 q 503 250 503 229 q 517 284 503 269 q 551 299 531 299 q 587 284 572 299 q 601 250 601 269 m 718 204 q 703 169 718 183 q 668 156 689 156 q 633 169 647 156 q 619 204 619 183 q 633 240 619 225 q 668 254 647 254 q 703 240 689 254 q 718 204 718 225 m 833 243 q 819 209 833 224 q 785 194 804 194 q 749 209 764 194 q 735 243 735 224 q 749 278 735 264 q 785 293 764 293 q 819 278 804 293 q 833 243 833 264 m 265 249 q 251 214 265 228 q 217 200 236 200 q 181 214 196 200 q 167 249 167 228 q 181 284 167 269 q 217 299 196 299 q 251 284 236 299 q 265 249 265 269 m 372 197 q 358 162 372 176 q 322 147 343 147 q 288 162 303 147 q 274 197 274 176 q 288 233 274 218 q 322 247 303 247 q 358 233 343 247 q 372 197 372 218 m 485 232 q 470 198 485 213 q 435 183 456 183 q 399 198 414 183 q 385 232 385 213 q 399 267 385 253 q 435 282 414 282 q 470 267 456 282 q 485 232 485 253 z "},"L":{"ha":596,"x_min":44,"x_max":558,"o":"m 514 0 l 44 0 l 44 854 l 81 936 l 81 947 l 304 947 l 304 310 l 558 310 l 558 86 l 551 86 l 514 0 m 110 115 l 528 115 l 528 279 l 274 279 l 274 918 l 110 918 l 110 115 m 249 838 q 234 803 249 817 q 199 789 219 789 q 164 803 178 789 q 150 838 150 817 q 164 873 150 858 q 199 888 178 888 q 234 873 219 888 q 249 838 249 858 m 249 710 q 234 676 249 690 q 199 661 219 661 q 164 676 178 661 q 150 710 150 690 q 164 745 150 731 q 199 760 178 760 q 234 745 219 760 q 249 710 249 731 m 249 588 q 234 553 249 567 q 199 539 219 539 q 164 553 178 539 q 150 588 150 567 q 164 623 150 608 q 199 638 178 638 q 234 623 219 638 q 249 588 249 608 m 249 453 q 234 419 249 433 q 199 404 219 404 q 164 419 178 404 q 150 453 150 433 q 164 488 150 474 q 199 503 178 503 q 234 488 219 503 q 249 453 249 474 m 249 329 q 234 294 249 308 q 199 279 219 279 q 164 294 178 279 q 150 329 150 308 q 164 363 150 349 q 199 378 178 378 q 234 363 219 378 q 249 329 249 349 m 249 203 q 234 169 249 183 q 199 154 219 154 q 164 169 178 154 q 150 203 150 183 q 164 238 150 224 q 199 253 178 253 q 234 238 219 253 q 249 203 249 224 m 371 199 q 356 163 371 178 q 322 149 342 149 q 287 163 301 149 q 272 199 272 178 q 287 233 272 219 q 322 247 301 247 q 356 233 342 247 q 371 199 371 219 m 481 199 q 466 163 481 178 q 432 149 451 149 q 397 163 411 149 q 382 199 382 178 q 397 233 382 219 q 432 247 411 247 q 466 233 451 247 q 481 199 481 219 z "},"P":{"ha":644,"x_min":39,"x_max":618,"o":"m 254 0 l 39 0 l 39 854 l 76 935 l 76 949 l 347 949 q 539 868 456 949 q 598 778 578 828 q 618 676 618 729 q 569 519 618 592 l 556 490 q 553 482 556 488 q 551 480 551 481 q 550 478 551 479 q 452 363 518 406 q 307 319 386 319 l 299 319 l 299 86 l 293 86 l 254 0 m 106 115 l 269 115 l 269 435 l 347 435 q 441 453 397 435 q 518 506 485 472 q 570 583 551 539 q 589 676 589 626 q 518 849 589 775 q 440 900 483 882 q 347 918 396 918 l 106 918 l 106 115 m 425 676 q 402 622 425 644 q 347 599 379 599 l 269 599 l 269 754 l 347 754 q 402 732 379 754 q 425 676 425 710 m 338 629 q 307 639 322 639 l 299 639 l 299 629 l 338 629 m 356 836 q 341 802 356 817 q 306 788 326 788 q 272 802 286 788 q 257 836 257 817 q 272 872 257 857 q 306 886 286 886 q 341 872 326 886 q 356 836 356 857 m 471 831 q 456 795 471 810 q 422 781 442 781 q 387 795 401 781 q 372 831 372 810 q 387 865 372 851 q 422 879 401 879 q 456 865 442 879 q 471 831 471 851 m 556 622 q 541 587 556 601 q 506 572 526 572 q 471 587 485 572 q 457 622 457 601 q 471 656 457 642 q 506 671 485 671 q 541 656 526 671 q 556 622 556 642 m 549 742 q 534 708 549 722 q 500 693 519 693 q 465 708 479 693 q 450 742 450 722 q 465 777 450 763 q 500 792 479 792 q 534 777 519 792 q 549 742 549 763 m 469 536 q 455 501 469 515 q 419 486 440 486 q 385 501 400 486 q 371 536 371 515 q 385 570 371 556 q 419 585 400 585 q 455 570 440 585 q 469 536 469 556 m 349 524 q 335 490 349 504 q 300 475 321 475 q 265 490 279 475 q 250 524 250 504 q 265 559 250 544 q 300 574 279 574 q 335 559 321 574 q 349 524 349 544 m 238 840 q 223 806 238 821 q 189 792 208 792 q 153 806 168 792 q 139 840 139 821 q 153 876 139 861 q 189 890 168 890 q 223 876 208 890 q 238 840 238 861 m 238 714 q 223 678 238 693 q 189 664 208 664 q 153 678 168 664 q 139 714 139 693 q 153 748 139 733 q 189 763 168 763 q 223 748 208 763 q 238 714 238 733 m 238 582 q 223 548 238 563 q 189 533 208 533 q 153 548 168 533 q 139 582 139 563 q 153 617 139 603 q 189 632 168 632 q 223 617 208 632 q 238 582 238 603 m 238 458 q 223 424 238 438 q 189 410 208 410 q 153 424 168 410 q 139 458 139 438 q 153 494 139 479 q 189 508 168 508 q 223 494 208 508 q 238 458 238 479 m 238 332 q 223 297 238 311 q 189 282 208 282 q 153 297 168 282 q 139 332 139 311 q 153 367 139 353 q 189 381 168 381 q 223 367 208 381 q 238 332 238 353 m 238 207 q 223 172 238 186 q 189 157 208 157 q 153 172 168 157 q 139 207 139 186 q 153 241 139 226 q 189 256 168 256 q 223 241 208 256 q 238 207 238 226 z "},"X":{"ha":644,"x_min":13,"x_max":632,"o":"m 632 946 l 460 517 l 494 429 q 513 383 504 406 q 533 335 522 360 q 585 206 560 269 q 632 88 611 142 l 632 86 l 622 86 l 585 0 l 354 0 l 303 126 l 288 86 l 282 86 l 244 0 l 13 0 l 63 129 l 182 428 q 165 470 174 449 q 147 515 157 492 q 78 686 114 599 q 13 853 43 774 l 13 854 l 50 938 l 46 947 l 288 947 l 338 819 q 345 838 342 829 q 354 854 349 847 l 357 863 l 392 947 l 632 947 l 632 946 m 90 115 l 267 115 l 339 296 l 411 115 l 588 115 l 428 517 l 588 918 l 411 918 l 339 738 l 267 918 l 90 918 l 251 517 l 90 115 m 256 851 q 241 817 256 832 q 207 803 226 803 q 172 817 186 803 q 157 851 157 832 q 172 887 157 872 q 207 901 186 901 q 241 887 226 901 q 256 851 256 872 m 303 739 q 289 705 303 719 q 254 690 275 690 q 219 705 233 690 q 204 739 204 719 q 219 774 204 760 q 254 789 233 789 q 289 774 275 789 q 303 739 303 760 m 343 626 q 328 592 343 607 q 293 578 314 578 q 258 592 272 578 q 243 626 243 607 q 258 662 243 647 q 293 676 272 676 q 328 662 314 676 q 343 626 343 647 m 396 514 q 382 478 396 493 q 347 464 368 464 q 312 478 326 464 q 297 514 297 493 q 312 549 297 535 q 347 563 326 563 q 382 549 368 563 q 396 514 396 535 m 458 400 q 444 366 458 381 q 408 351 429 351 q 374 366 389 351 q 360 400 360 381 q 374 435 360 421 q 408 450 389 450 q 444 435 429 450 q 458 400 458 421 m 494 283 q 481 249 494 264 q 446 235 467 235 q 410 249 425 235 q 396 283 396 264 q 410 319 396 304 q 446 333 425 333 q 481 319 467 333 q 494 283 494 304 m 439 858 q 455 893 440 879 q 489 906 469 907 q 521 889 508 904 q 532 853 533 874 q 517 819 531 833 q 483 807 503 806 q 451 823 464 808 q 439 858 438 838 m 394 749 q 410 783 396 769 q 443 796 424 797 q 476 779 463 794 q 488 744 489 764 q 472 710 486 724 q 439 697 458 696 q 406 713 419 699 q 394 749 393 728 m 356 635 q 372 669 357 656 q 406 682 386 683 q 438 665 425 681 q 449 629 450 650 q 433 596 447 610 q 400 583 419 582 q 367 599 381 585 q 356 635 354 614 m 244 403 q 260 436 246 422 q 294 449 275 450 q 327 433 314 447 q 339 397 340 418 q 323 363 338 376 q 289 350 308 349 q 256 367 269 351 q 244 403 243 382 m 206 286 q 222 321 207 307 q 256 333 236 335 q 288 317 275 332 q 300 282 301 301 q 284 247 299 261 q 250 235 269 233 q 217 251 231 236 q 206 286 204 267 m 156 181 q 171 215 157 201 q 204 228 185 229 q 237 211 224 226 q 249 176 250 196 q 233 142 247 156 q 200 129 219 128 q 167 146 181 131 q 156 181 154 161 m 444 185 q 460 219 446 206 q 493 232 474 233 q 526 215 513 231 q 538 181 539 200 q 522 146 536 160 q 489 133 508 132 q 456 150 469 135 q 444 185 443 165 z "},"N":{"ha":644,"x_min":35,"x_max":614,"o":"m 342 949 q 467 919 408 949 q 561 836 525 889 q 608 724 601 778 q 613 613 614 669 l 613 86 l 607 86 l 569 0 l 354 0 l 354 569 q 349 606 354 592 q 335 627 343 619 q 317 637 326 635 q 301 639 308 639 l 299 639 q 294 639 294 643 l 294 86 l 288 86 l 250 0 l 35 0 l 35 524 q 38 614 35 572 q 60 699 40 656 q 63 707 60 701 q 63 709 63 708 q 64 711 64 710 l 82 753 q 124 836 92 794 q 220 919 163 889 q 342 949 278 949 m 342 754 q 367 751 353 754 q 392 738 381 747 q 413 709 404 728 q 421 660 421 690 l 421 115 l 583 115 l 583 613 q 579 717 585 667 q 539 818 574 768 q 452 892 504 865 q 342 918 400 918 q 233 892 283 918 q 147 818 182 865 q 119 770 129 794 q 106 720 110 746 q 101 668 101 694 q 100 613 100 642 l 100 115 l 264 115 l 264 660 q 273 710 264 692 q 294 739 282 729 q 320 751 307 749 q 342 754 333 754 m 235 690 q 221 656 235 669 q 186 642 207 642 q 151 656 165 642 q 136 690 136 669 q 151 726 136 711 q 186 740 165 740 q 221 726 207 740 q 235 690 235 711 m 233 568 q 219 533 233 547 q 183 518 204 518 q 149 533 164 518 q 135 568 135 547 q 149 603 135 589 q 183 617 164 617 q 219 603 204 617 q 233 568 233 589 m 233 446 q 219 411 233 425 q 183 397 204 397 q 149 411 164 397 q 135 446 135 425 q 149 481 135 467 q 183 496 164 496 q 219 481 204 496 q 233 446 233 467 m 235 324 q 221 288 235 303 q 186 274 207 274 q 151 288 165 274 q 136 324 136 303 q 151 358 136 344 q 186 372 165 372 q 221 358 207 372 q 235 324 235 344 m 235 199 q 221 163 235 178 q 186 149 207 149 q 151 163 165 149 q 136 199 136 178 q 151 234 136 219 q 186 249 165 249 q 221 234 207 249 q 235 199 235 219 m 558 683 q 544 649 558 664 q 510 635 531 635 q 474 649 489 635 q 460 683 460 664 q 474 719 460 704 q 510 733 489 733 q 544 719 531 733 q 558 683 558 704 m 557 561 q 542 527 557 542 q 507 513 528 513 q 473 527 488 513 q 458 561 458 542 q 473 597 458 582 q 507 611 488 611 q 542 597 528 611 q 557 561 557 582 m 557 439 q 542 405 557 419 q 507 390 528 390 q 473 405 488 390 q 458 439 458 419 q 473 474 458 460 q 507 489 488 489 q 542 474 528 489 q 557 439 557 460 m 557 321 q 542 286 557 300 q 507 272 528 272 q 473 286 488 272 q 458 321 458 300 q 473 356 458 342 q 507 371 488 371 q 542 356 528 371 q 557 321 557 342 m 558 192 q 544 158 558 172 q 510 143 531 143 q 474 158 489 143 q 460 192 460 172 q 474 227 460 213 q 510 242 489 242 q 544 227 531 242 q 558 192 558 213 m 418 793 q 433 827 418 813 q 467 842 447 842 q 502 827 488 842 q 517 793 517 813 q 502 758 517 772 q 467 743 488 743 q 433 758 447 743 q 418 793 418 772 m 301 838 q 316 873 301 858 q 350 888 331 888 q 385 873 371 888 q 400 838 400 858 q 385 803 400 818 q 350 789 371 789 q 316 803 331 789 q 301 838 301 818 m 185 799 q 199 834 185 819 q 235 849 214 849 q 269 834 256 849 q 283 799 283 819 q 269 765 283 779 q 235 750 256 750 q 199 765 214 750 q 185 799 185 779 z "},"M":{"ha":982,"x_min":42,"x_max":942,"o":"m 681 0 l 681 571 q 664 627 681 614 q 629 640 647 640 l 626 640 q 621 640 622 642 l 621 86 l 614 86 l 576 0 l 361 0 l 361 571 q 344 627 361 614 q 310 640 328 640 l 307 640 q 301 640 303 642 l 301 86 l 294 86 l 257 0 l 42 0 l 42 590 q 64 696 42 644 l 65 700 q 67 703 65 703 l 69 707 l 72 715 l 88 750 q 163 874 104 817 q 250 930 201 910 q 351 950 299 950 q 510 896 436 950 q 668 950 582 950 q 768 931 719 950 q 856 875 817 911 q 940 679 938 793 l 940 582 l 940 532 q 942 508 942 521 q 942 483 942 496 q 942 458 942 471 q 940 433 942 446 l 940 383 l 940 86 l 933 86 l 896 0 l 681 0 m 350 756 q 374 752 361 756 q 399 739 388 749 q 419 710 411 729 q 428 661 428 692 l 428 117 l 592 117 l 592 661 q 600 710 592 692 q 620 739 608 729 q 645 752 632 749 q 669 756 658 756 q 694 752 681 756 q 719 739 707 749 q 739 710 731 729 q 747 661 747 692 l 747 117 l 911 117 l 911 288 l 911 679 q 890 774 910 729 q 836 853 871 818 q 756 902 800 885 q 668 919 713 919 q 524 871 589 919 l 510 860 l 494 871 q 351 919 429 919 q 262 901 306 919 q 183 851 218 883 q 108 679 108 781 q 108 415 106 547 l 108 286 l 108 117 l 272 117 l 272 661 q 281 710 272 692 q 301 739 289 729 q 326 752 313 749 q 350 756 339 756 m 239 688 q 224 652 239 667 q 189 638 210 638 q 153 652 168 638 q 139 688 139 667 q 153 722 139 707 q 189 736 168 736 q 224 722 210 736 q 239 688 239 707 m 236 564 q 222 530 236 544 q 188 515 207 515 q 152 530 167 515 q 138 564 138 544 q 152 599 138 585 q 188 614 167 614 q 222 599 207 614 q 236 564 236 585 m 236 443 q 222 408 236 422 q 188 393 207 393 q 152 408 167 393 q 138 443 138 422 q 152 477 138 463 q 188 492 167 492 q 222 477 207 492 q 236 443 236 463 m 239 319 q 224 285 239 300 q 189 271 210 271 q 153 285 168 271 q 139 319 139 300 q 153 355 139 340 q 189 369 168 369 q 224 355 210 369 q 239 319 239 340 m 239 196 q 224 160 239 175 q 189 146 210 146 q 153 160 168 146 q 139 196 139 175 q 153 230 139 215 q 189 244 168 244 q 224 230 210 244 q 239 196 239 215 m 563 681 q 548 645 563 660 q 513 631 533 631 q 477 645 492 631 q 463 681 463 660 q 477 715 463 701 q 513 729 492 729 q 548 715 533 729 q 563 681 563 701 m 560 558 q 545 523 560 538 q 510 508 531 508 q 476 523 490 508 q 461 558 461 538 q 476 592 461 578 q 510 607 490 607 q 545 592 531 607 q 560 558 560 578 m 560 436 q 545 401 560 415 q 510 386 531 386 q 476 401 490 386 q 461 436 461 415 q 476 471 461 457 q 510 485 490 485 q 545 471 531 485 q 560 436 560 457 m 560 318 q 545 283 560 297 q 510 268 531 268 q 476 283 490 268 q 461 318 461 297 q 476 352 461 338 q 510 367 490 367 q 545 352 531 367 q 560 318 560 338 m 563 189 q 548 153 563 168 q 513 139 533 139 q 477 153 492 139 q 463 189 463 168 q 477 223 463 208 q 513 238 492 238 q 548 223 533 238 q 563 189 563 208 m 883 678 q 869 644 883 658 q 835 629 854 629 q 799 644 814 629 q 785 678 785 658 q 799 713 785 699 q 835 728 814 728 q 869 713 854 728 q 883 678 883 699 m 883 558 q 869 523 883 538 q 835 508 854 508 q 799 523 814 508 q 785 558 785 538 q 799 592 785 578 q 835 607 814 607 q 869 592 854 607 q 883 558 883 578 m 883 436 q 869 401 883 415 q 835 386 854 386 q 799 401 814 386 q 785 436 785 415 q 799 471 785 457 q 835 485 814 485 q 869 471 854 485 q 883 436 883 457 m 883 315 q 869 281 883 296 q 835 267 854 267 q 799 281 814 267 q 785 315 785 296 q 799 351 785 336 q 835 365 814 365 q 869 351 854 365 q 883 315 883 336 m 886 189 q 872 153 886 168 q 836 139 857 139 q 802 153 817 139 q 788 189 788 168 q 802 223 788 208 q 836 238 817 238 q 872 223 857 238 q 886 189 886 208 m 421 789 q 435 824 421 810 q 471 839 450 839 q 505 824 490 839 q 519 789 519 810 q 505 755 519 769 q 471 740 490 740 q 435 755 450 740 q 421 789 421 769 m 304 835 q 319 869 304 854 q 354 883 333 883 q 388 869 374 883 q 403 835 403 854 q 388 799 403 814 q 354 785 374 785 q 319 799 333 785 q 304 835 304 814 m 189 796 q 203 830 189 815 q 238 844 217 844 q 273 830 258 844 q 288 796 288 815 q 273 760 288 775 q 238 746 258 746 q 203 760 217 746 q 189 796 189 775 m 756 790 q 770 825 756 811 q 806 839 785 839 q 840 825 825 839 q 854 790 854 811 q 840 755 854 769 q 806 740 825 740 q 770 755 785 740 q 756 790 756 769 m 650 842 q 665 876 650 861 q 699 890 679 890 q 734 876 719 890 q 749 842 749 861 q 734 806 749 821 q 699 792 719 792 q 665 806 679 792 q 650 842 650 821 m 538 807 q 552 841 538 826 q 588 856 567 856 q 622 841 607 856 q 636 807 636 826 q 622 772 636 786 q 588 757 607 757 q 552 772 567 757 q 538 807 538 786 z "},"!":{"ha":346,"x_min":38,"x_max":299,"o":"m 74 947 l 299 947 l 299 351 l 292 351 l 260 282 q 289 244 279 267 q 299 197 299 221 q 274 126 299 157 l 271 119 l 247 68 l 246 64 q 206 17 233 35 q 147 0 179 0 q 69 31 103 0 q 38 108 38 63 q 47 151 38 131 l 50 157 l 75 214 q 97 267 79 242 l 38 267 l 38 854 l 74 935 l 74 947 m 104 918 l 104 382 l 269 382 l 269 918 l 104 918 m 188 279 q 128 255 153 279 q 104 197 104 231 q 128 139 104 163 q 188 115 151 115 q 245 139 221 115 q 269 197 269 163 q 245 255 269 231 q 188 279 221 279 m 135 458 q 149 494 135 479 q 185 508 164 508 q 219 494 206 508 q 233 458 233 479 q 219 424 233 439 q 185 410 206 410 q 149 424 164 410 q 135 458 135 439 m 138 582 q 152 617 138 603 q 188 632 167 632 q 222 617 207 632 q 236 582 236 603 q 222 548 236 563 q 188 533 207 533 q 152 548 167 533 q 138 582 138 563 m 138 708 q 152 744 138 729 q 188 758 167 758 q 222 744 207 758 q 236 708 236 729 q 222 674 236 688 q 188 660 207 660 q 152 674 167 660 q 138 708 138 688 m 138 836 q 152 872 138 857 q 188 886 167 886 q 222 872 207 886 q 236 836 236 857 q 222 802 236 817 q 188 788 207 788 q 152 802 167 788 q 138 836 138 817 m 138 201 q 152 237 138 222 q 188 251 167 251 q 222 237 207 251 q 236 201 236 222 q 222 167 236 182 q 188 153 207 153 q 152 167 167 153 q 138 201 138 182 z "},"?":{"ha":644,"x_min":31,"x_max":617,"o":"m 488 903 q 583 794 550 861 q 610 654 617 726 q 563 528 601 585 l 543 481 q 451 368 510 411 l 451 353 l 444 353 l 413 282 q 441 244 431 267 q 451 197 451 221 q 424 125 451 157 l 401 76 l 399 67 q 358 18 385 36 q 299 0 331 0 q 223 32 254 0 q 192 108 192 64 q 200 150 192 131 q 203 157 200 154 l 203 158 l 204 160 l 206 167 l 206 165 l 229 214 q 251 267 231 242 l 192 267 l 192 413 q 194 448 192 432 q 203 476 196 464 l 206 483 l 232 542 q 300 622 244 601 q 325 626 313 626 q 333 628 331 626 q 300 639 318 639 q 254 610 272 639 l 244 586 l 31 586 l 31 588 q 58 700 38 657 l 58 703 l 60 704 l 60 706 l 60 707 l 64 717 l 64 715 l 82 756 q 151 872 101 824 q 238 928 189 908 q 340 949 288 949 q 415 937 378 949 q 488 903 453 925 m 339 279 q 281 255 306 279 q 257 197 257 231 q 281 140 257 164 q 339 115 306 115 q 397 140 372 115 q 421 197 421 164 q 397 255 421 231 q 339 279 372 279 m 436 456 q 536 536 499 483 q 579 657 574 589 q 558 783 586 724 q 472 878 531 842 q 340 918 411 918 q 249 900 293 918 q 171 850 204 882 q 122 781 140 819 q 99 701 103 743 l 265 701 q 294 740 272 725 q 340 754 315 754 q 411 708 389 754 q 415 657 422 683 q 386 614 408 631 q 361 601 374 604 q 338 597 349 599 q 332 596 333 597 q 321 596 326 596 q 311 594 315 596 q 257 501 257 575 l 257 382 l 421 382 l 421 449 l 436 456 m 433 764 q 448 798 433 783 q 483 813 463 813 q 517 798 503 813 q 532 764 532 783 q 517 728 532 743 q 483 714 503 714 q 448 728 463 714 q 433 764 433 743 m 349 835 q 363 870 349 856 q 399 885 378 885 q 433 870 418 885 q 447 835 447 856 q 433 801 447 815 q 399 786 418 786 q 363 801 378 786 q 349 835 349 815 m 232 836 q 247 870 232 856 q 281 885 261 885 q 316 870 301 885 q 331 836 331 856 q 316 801 331 815 q 281 786 301 786 q 247 801 261 786 q 232 836 232 815 m 147 764 q 162 799 147 785 q 197 813 176 813 q 231 799 217 813 q 246 764 246 785 q 231 728 246 743 q 197 714 217 714 q 162 728 176 714 q 147 764 147 743 m 450 642 q 465 677 450 663 q 499 692 479 692 q 534 677 519 692 q 549 642 549 663 q 534 608 549 622 q 499 593 519 593 q 465 608 479 593 q 450 642 450 622 m 365 554 q 380 590 365 575 q 415 604 394 604 q 449 590 435 604 q 464 554 464 575 q 449 520 464 535 q 415 506 435 506 q 380 520 394 506 q 365 554 365 535 m 296 458 q 310 492 296 478 q 344 507 325 507 q 380 492 365 507 q 394 458 394 478 q 380 423 394 438 q 344 408 365 408 q 310 423 325 408 q 296 458 296 438 m 289 201 q 303 237 289 222 q 338 251 318 251 q 373 237 358 251 q 388 201 388 222 q 373 167 388 182 q 338 153 358 153 q 303 167 318 153 q 289 201 289 182 z "},".":{"ha":324,"x_min":32,"x_max":293,"o":"m 179 308 q 260 276 228 308 q 293 197 293 244 q 267 126 293 160 l 242 72 q 240 69 242 71 l 239 64 l 236 56 l 236 60 q 196 16 221 32 q 139 0 171 0 q 63 31 94 0 q 32 107 32 63 q 40 151 32 135 q 43 158 40 156 l 44 160 l 43 160 l 44 163 l 46 168 l 46 167 l 69 217 q 108 283 76 257 q 179 308 139 308 m 179 279 q 122 255 146 279 q 97 197 97 231 q 122 140 97 164 q 179 115 146 115 q 238 139 214 115 q 263 197 263 163 q 239 256 263 232 q 179 279 215 279 m 135 199 q 149 234 135 219 q 185 249 164 249 q 220 234 206 249 q 235 199 235 219 q 220 165 235 179 q 185 150 206 150 q 149 165 164 150 q 135 199 135 179 z "},",":{"ha":324,"x_min":25,"x_max":289,"o":"m 288 204 l 289 200 l 289 196 q 243 43 289 115 l 226 1 l 221 -10 q 119 -135 192 -78 l 117 -137 l 117 -136 q 101 -142 113 -142 q 88 -137 93 -142 q 75 -110 75 -131 q 74 -103 74 -108 q 72 -81 72 -92 q 68 -58 71 -69 q 63 -46 68 -57 q 54 -28 60 -42 l 47 -6 q 29 108 25 49 q 38 151 29 135 q 40 157 38 154 l 40 160 l 40 161 l 67 219 q 106 284 75 260 q 178 308 136 308 q 219 300 201 307 q 256 274 236 293 q 269 258 263 267 q 279 243 276 250 l 288 214 l 288 204 m 260 200 q 258 203 258 201 l 258 211 l 253 228 q 246 241 250 235 q 236 254 242 247 q 209 272 221 267 q 178 279 197 278 q 119 255 143 279 q 96 196 96 231 l 96 193 q 99 141 93 165 q 111 93 104 117 l 119 72 q 126 56 122 64 q 133 38 131 47 q 138 8 136 22 q 140 -19 139 -7 l 140 -24 l 140 -26 l 142 -26 q 144 -25 143 -26 q 260 196 260 71 l 260 200 m 128 193 q 142 227 128 213 q 178 242 157 242 q 212 227 197 242 q 226 193 226 213 q 212 158 226 172 q 178 143 197 143 q 142 158 157 143 q 128 193 128 172 z "},";":{"ha":324,"x_min":25,"x_max":293,"o":"m 288 204 l 289 200 l 289 196 q 243 43 289 115 l 226 1 l 221 -10 q 119 -135 192 -78 l 117 -137 l 117 -136 q 101 -142 113 -142 q 88 -137 93 -142 q 75 -110 75 -131 q 74 -103 74 -108 q 72 -81 72 -92 q 68 -58 71 -69 q 63 -46 68 -57 q 54 -28 60 -42 l 47 -6 q 29 108 25 49 q 38 151 29 135 q 40 157 38 154 l 40 160 l 40 161 l 67 219 q 106 284 75 260 q 178 308 136 308 q 219 300 201 307 q 256 274 236 293 q 269 258 263 267 q 279 243 276 250 l 288 214 l 288 204 m 260 200 q 258 203 258 201 l 258 211 l 253 228 q 246 241 250 235 q 236 254 242 247 q 209 272 221 267 q 178 279 197 278 q 119 255 143 279 q 96 196 96 231 l 96 193 q 99 141 93 165 q 111 93 104 117 l 119 72 q 126 56 122 64 q 133 38 131 47 q 138 8 136 22 q 140 -19 139 -7 l 140 -24 l 140 -26 l 142 -26 q 144 -25 143 -26 q 260 196 260 71 l 260 200 m 128 193 q 142 227 128 213 q 178 242 157 242 q 212 227 197 242 q 226 193 226 213 q 212 158 226 172 q 178 143 197 143 q 142 158 157 143 q 128 193 128 172 m 179 938 q 260 906 228 938 q 293 826 293 874 q 267 756 293 789 l 242 701 q 240 699 242 700 l 239 693 l 236 685 l 236 689 q 196 645 221 661 q 139 629 171 629 q 63 660 94 629 q 32 736 32 692 q 40 781 32 764 q 43 788 40 785 l 44 789 l 43 789 l 44 792 l 46 797 l 46 796 l 69 846 q 108 912 76 886 q 179 938 139 938 m 179 908 q 122 884 146 908 q 97 826 97 860 q 122 769 97 793 q 179 744 146 744 q 238 768 214 744 q 263 826 263 792 q 239 885 263 861 q 179 908 215 908 m 135 828 q 149 863 135 849 q 185 878 164 878 q 220 863 206 878 q 235 828 235 849 q 220 794 235 808 q 185 779 206 779 q 149 794 164 779 q 135 828 135 808 z "},":":{"ha":324,"x_min":32,"x_max":293,"o":"m 179 308 q 260 276 228 308 q 293 197 293 244 q 267 126 293 160 l 242 72 q 240 69 242 71 l 239 64 l 236 56 l 236 60 q 196 16 221 32 q 139 0 171 0 q 63 31 94 0 q 32 107 32 63 q 40 151 32 135 q 43 158 40 156 l 44 160 l 43 160 l 44 163 l 46 168 l 46 167 l 69 217 q 108 283 76 257 q 179 308 139 308 m 179 279 q 122 255 146 279 q 97 197 97 231 q 122 140 97 164 q 179 115 146 115 q 238 139 214 115 q 263 197 263 163 q 239 256 263 232 q 179 279 215 279 m 135 199 q 149 234 135 219 q 185 249 164 249 q 220 234 206 249 q 235 199 235 219 q 220 165 235 179 q 185 150 206 150 q 149 165 164 150 q 135 199 135 179 m 179 938 q 260 906 228 938 q 293 826 293 874 q 267 756 293 789 l 242 701 q 240 699 242 700 l 239 693 l 236 685 l 236 689 q 196 645 221 661 q 139 629 171 629 q 63 660 94 629 q 32 736 32 692 q 40 781 32 764 q 43 788 40 785 l 44 789 l 43 789 l 44 792 l 46 797 l 46 796 l 69 846 q 108 912 76 886 q 179 938 139 938 m 179 908 q 122 884 146 908 q 97 826 97 860 q 122 769 97 793 q 179 744 146 744 q 238 768 214 744 q 263 826 263 792 q 239 885 263 861 q 179 908 215 908 m 135 828 q 149 863 135 849 q 185 878 164 878 q 220 863 206 878 q 235 828 235 849 q 220 794 235 808 q 185 779 206 779 q 149 794 164 779 q 135 828 135 808 z "},"a":{"ha":644,"x_min":31,"x_max":611,"o":"m 246 0 l 31 0 l 31 465 q 31 512 31 486 q 31 563 31 538 q 33 607 32 588 q 35 635 33 626 q 42 665 38 650 q 54 697 47 679 l 56 700 q 57 704 56 703 l 74 740 q 115 830 86 789 q 185 901 143 871 q 339 949 256 949 q 468 917 408 949 q 565 828 528 885 q 606 725 600 775 q 611 622 611 675 l 611 86 l 604 86 l 567 0 l 350 0 l 350 213 l 290 213 l 290 86 l 285 86 l 246 0 m 417 328 l 417 115 l 581 115 l 581 622 q 576 718 581 671 q 540 811 571 765 q 454 891 507 863 q 339 919 401 919 q 203 876 265 919 q 136 808 163 849 q 101 719 110 767 q 98 692 99 711 q 97 649 97 674 q 97 600 97 625 q 97 556 97 575 l 97 532 l 97 115 l 261 115 l 261 328 l 417 328 m 417 492 l 261 492 l 261 653 q 260 678 260 664 q 268 708 261 693 q 339 756 290 756 q 410 708 388 756 q 417 678 417 693 q 417 653 418 664 l 417 492 m 350 522 l 350 564 q 351 586 351 575 q 347 608 351 597 q 299 639 332 639 l 290 639 l 290 522 l 350 522 m 232 686 q 217 652 232 667 q 182 638 203 638 q 148 652 163 638 q 133 686 133 667 q 148 722 133 707 q 182 736 163 736 q 217 722 203 736 q 232 686 232 707 m 232 564 q 217 528 232 543 q 182 514 203 514 q 148 528 163 514 q 133 564 133 543 q 148 599 133 585 q 182 613 163 613 q 217 599 203 613 q 232 564 232 585 m 229 442 q 215 406 229 421 q 181 392 201 392 q 145 406 160 392 q 131 442 131 421 q 145 477 131 463 q 181 492 160 492 q 215 477 201 492 q 229 442 229 463 m 236 315 q 222 280 236 294 q 186 265 207 265 q 152 280 167 265 q 138 315 138 294 q 152 349 138 335 q 186 364 167 364 q 222 349 207 364 q 236 315 236 335 m 333 396 q 319 362 333 376 q 285 347 306 347 q 249 362 264 347 q 235 396 235 376 q 249 431 235 417 q 285 446 264 446 q 319 431 306 446 q 333 396 333 417 m 446 396 q 431 362 446 376 q 397 347 417 347 q 362 362 376 347 q 347 396 347 376 q 362 431 347 417 q 397 446 376 446 q 431 431 417 446 q 446 396 446 417 m 233 196 q 219 162 233 176 q 185 147 206 147 q 149 162 164 147 q 135 196 135 176 q 149 231 135 217 q 185 246 164 246 q 219 231 206 246 q 233 196 233 217 m 547 203 q 533 167 547 182 q 497 153 518 153 q 463 167 478 153 q 449 203 449 182 q 463 237 449 222 q 497 251 478 251 q 533 237 518 251 q 547 203 547 222 m 549 686 q 534 652 549 667 q 500 638 519 638 q 465 652 479 638 q 450 686 450 667 q 465 722 450 707 q 500 736 479 736 q 534 722 519 736 q 549 686 549 707 m 551 567 q 537 531 551 546 q 501 517 522 517 q 467 531 482 517 q 453 567 453 546 q 467 601 453 586 q 501 615 482 615 q 537 601 522 615 q 551 567 551 586 m 551 444 q 537 409 551 424 q 501 394 522 394 q 467 409 482 394 q 453 444 453 424 q 467 478 453 464 q 501 493 482 493 q 537 478 522 493 q 551 444 551 464 m 547 321 q 533 287 547 301 q 497 272 518 272 q 463 287 478 272 q 449 321 449 301 q 463 356 449 342 q 497 371 478 371 q 533 356 518 371 q 547 321 547 342 m 403 790 q 417 826 403 811 q 451 840 432 840 q 487 826 472 840 q 501 790 501 811 q 487 756 501 771 q 451 742 472 742 q 417 756 432 742 q 403 790 403 771 m 292 832 q 306 867 292 853 q 342 882 321 882 q 376 867 361 882 q 390 832 390 853 q 376 797 390 811 q 342 783 361 783 q 306 797 321 783 q 292 832 292 811 m 182 793 q 197 828 182 814 q 231 843 211 843 q 266 828 251 843 q 281 793 281 814 q 266 758 281 772 q 231 743 251 743 q 197 758 211 743 q 182 793 182 772 z "},"b":{"ha":644,"x_min":36,"x_max":615,"o":"m 542 149 q 442 40 506 81 q 304 0 378 0 l 36 0 l 36 854 l 72 935 l 72 947 l 344 947 q 484 908 419 947 q 586 797 549 868 q 615 675 615 736 q 568 528 615 596 l 563 514 q 615 358 615 438 q 586 238 615 296 q 578 223 583 231 q 568 208 574 215 l 542 149 m 536 531 q 585 656 579 589 q 560 785 592 722 q 472 883 528 847 q 344 918 415 918 l 103 918 l 103 115 l 344 115 q 472 151 415 115 q 560 249 528 186 q 585 378 592 311 q 536 503 579 444 l 526 517 l 536 531 m 344 754 q 399 731 376 754 q 422 676 422 708 q 399 622 422 644 q 344 599 376 599 l 267 599 l 267 754 l 344 754 m 335 628 q 304 639 321 639 l 296 639 l 296 628 l 335 628 m 344 435 q 399 412 376 435 q 422 357 422 389 q 399 302 422 325 q 344 279 376 279 l 267 279 l 267 435 l 344 435 m 335 308 q 304 319 321 319 l 296 319 l 296 308 l 335 308 m 350 829 q 335 795 350 810 q 301 781 321 781 q 266 795 281 781 q 251 829 251 810 q 266 865 251 850 q 301 879 281 879 q 335 865 321 879 q 350 829 350 850 m 354 194 q 340 160 354 174 q 306 146 325 146 q 270 160 285 146 q 256 194 256 174 q 270 230 256 215 q 306 244 285 244 q 340 230 325 244 q 354 194 354 215 m 472 214 q 458 178 472 193 q 424 164 443 164 q 388 178 403 164 q 374 214 374 193 q 388 248 374 233 q 424 263 403 263 q 458 248 443 263 q 472 214 472 233 m 556 308 q 542 273 556 288 q 507 258 528 258 q 472 273 486 258 q 457 308 457 288 q 472 343 457 329 q 507 357 486 357 q 542 343 528 357 q 556 308 556 329 m 531 424 q 516 390 531 404 q 481 375 501 375 q 446 390 460 375 q 432 424 432 404 q 446 459 432 444 q 481 474 460 474 q 516 459 501 474 q 531 424 531 444 m 467 824 q 452 788 467 803 q 417 774 438 774 q 383 788 397 774 q 368 824 368 803 q 383 858 368 843 q 417 872 397 872 q 452 858 438 872 q 467 824 467 843 m 550 614 q 535 580 550 594 q 501 565 521 565 q 466 580 481 565 q 451 614 451 594 q 466 649 451 635 q 501 664 481 664 q 535 649 521 664 q 550 614 550 635 m 544 735 q 530 701 544 715 q 494 686 515 686 q 460 701 474 686 q 446 735 446 715 q 460 770 446 756 q 494 785 474 785 q 530 770 515 785 q 544 735 544 756 m 458 518 q 444 484 458 499 q 408 469 429 469 q 374 484 389 469 q 360 518 360 499 q 374 553 360 539 q 408 568 389 568 q 444 553 429 568 q 458 518 458 539 m 342 517 q 327 483 342 497 q 293 468 313 468 q 258 483 272 468 q 243 517 243 497 q 258 552 243 538 q 293 567 272 567 q 327 552 313 567 q 342 517 342 538 m 232 831 q 217 797 232 811 q 183 782 203 782 q 148 797 163 782 q 133 831 133 811 q 148 866 133 851 q 183 881 163 881 q 217 866 203 881 q 232 831 232 851 m 232 703 q 217 669 232 683 q 183 654 203 654 q 148 669 163 654 q 133 703 133 683 q 148 738 133 724 q 183 753 163 753 q 217 738 203 753 q 232 703 232 724 m 232 572 q 217 538 232 553 q 183 524 203 524 q 148 538 163 524 q 133 572 133 553 q 148 608 133 593 q 183 622 163 622 q 217 608 203 622 q 232 572 232 593 m 232 449 q 217 413 232 428 q 183 399 203 399 q 148 413 163 399 q 133 449 133 428 q 148 484 133 469 q 183 499 163 499 q 217 484 203 499 q 232 449 232 469 m 232 322 q 217 287 232 301 q 183 272 203 272 q 148 287 163 272 q 133 322 133 301 q 148 356 133 342 q 183 371 163 371 q 217 356 203 371 q 232 322 232 342 m 232 197 q 217 162 232 176 q 183 147 203 147 q 148 162 163 147 q 133 197 133 176 q 148 231 133 217 q 183 246 163 246 q 217 231 203 246 q 232 197 232 217 z "},"c":{"ha":644,"x_min":33,"x_max":613,"o":"m 542 167 q 444 46 507 90 q 300 0 379 0 q 219 13 263 0 q 115 75 161 31 q 47 181 68 119 q 35 240 36 211 q 33 303 33 268 l 33 553 q 35 616 33 586 q 47 675 36 646 l 53 692 l 76 744 l 83 765 q 152 870 104 824 q 258 936 200 917 q 340 949 297 949 q 439 928 392 949 q 525 868 486 907 q 584 779 561 829 q 613 672 607 729 l 613 671 l 606 671 l 568 585 l 356 585 l 356 586 q 299 639 338 636 q 294 640 296 639 l 290 640 l 290 635 q 290 602 290 618 q 292 569 290 586 l 292 463 q 290 431 290 446 q 290 399 290 415 q 290 376 290 389 q 292 353 290 363 q 308 322 294 333 q 342 310 322 310 q 372 324 357 311 q 393 361 386 338 l 393 363 l 613 363 l 613 361 q 596 283 608 321 q 561 213 583 244 l 542 167 m 340 918 q 268 907 306 918 q 172 850 214 890 q 113 756 131 810 q 100 701 101 729 q 99 642 99 674 l 99 393 q 100 333 99 360 q 113 278 101 306 q 173 183 132 224 q 268 126 214 143 q 308 117 290 119 q 340 115 325 115 q 429 132 388 115 q 503 178 471 149 q 555 247 535 207 q 579 332 575 286 l 414 332 q 388 294 407 308 q 343 279 368 281 l 340 279 q 288 300 310 279 q 263 351 265 321 q 260 408 260 379 q 263 463 261 438 l 263 569 q 260 624 261 596 q 263 682 260 653 q 288 733 265 713 q 340 754 310 754 l 343 754 q 387 738 367 753 q 414 700 407 724 l 579 700 q 555 787 575 747 q 503 856 535 826 q 429 901 471 885 q 340 918 388 918 m 239 679 q 224 644 239 658 q 189 629 210 629 q 155 644 169 629 q 140 679 140 658 q 155 713 140 699 q 189 728 169 728 q 224 713 210 728 q 239 679 239 699 m 238 556 q 223 522 238 536 q 188 507 208 507 q 152 522 167 507 q 138 556 138 536 q 152 591 138 576 q 188 606 167 606 q 223 591 208 606 q 238 556 238 576 m 238 435 q 223 399 238 414 q 188 385 208 385 q 152 399 167 385 q 138 435 138 414 q 152 469 138 454 q 188 483 167 483 q 223 469 208 483 q 238 435 238 454 m 424 775 q 438 809 424 794 q 472 824 453 824 q 508 809 493 824 q 522 775 522 794 q 508 740 522 754 q 472 725 493 725 q 438 740 453 725 q 424 775 424 754 m 304 826 q 319 860 304 846 q 354 875 333 875 q 389 860 375 875 q 403 826 403 846 q 389 791 403 806 q 354 776 375 776 q 319 791 333 776 q 304 826 304 806 m 189 788 q 203 822 189 807 q 238 836 218 836 q 273 822 258 836 q 288 788 288 807 q 273 752 288 767 q 238 738 258 738 q 203 752 218 738 q 189 788 189 767 m 144 315 q 159 349 144 335 q 193 364 174 364 q 228 349 214 364 q 243 315 243 335 q 228 280 243 294 q 193 265 214 265 q 159 280 174 265 q 144 315 144 294 m 214 218 q 228 253 214 239 q 264 268 243 268 q 298 253 283 268 q 313 218 313 239 q 298 184 313 199 q 264 169 283 169 q 228 184 243 169 q 214 218 214 199 m 332 199 q 347 233 332 218 q 381 247 361 247 q 416 233 401 247 q 431 199 431 218 q 416 163 431 178 q 381 149 401 149 q 347 163 361 149 q 332 199 332 178 m 431 271 q 445 306 431 292 q 481 321 460 321 q 515 306 500 321 q 529 271 529 292 q 515 237 529 251 q 481 222 500 222 q 445 237 460 222 q 431 271 431 251 z "},"d":{"ha":644,"x_min":35,"x_max":614,"o":"m 428 442 q 428 350 431 397 q 410 305 426 325 q 369 278 394 285 q 352 276 361 276 q 332 275 343 275 l 311 275 q 301 276 304 276 q 292 276 297 276 l 267 276 l 267 747 q 310 749 279 747 q 374 738 340 750 q 404 717 393 731 q 421 688 415 703 q 428 658 426 672 q 429 633 429 643 q 428 622 428 629 l 428 486 l 428 442 m 367 306 q 365 438 365 376 q 365 489 365 463 q 364 538 364 515 q 363 577 364 560 q 361 603 363 594 q 348 627 358 619 q 326 638 338 635 q 296 638 313 640 l 296 304 q 306 304 300 304 q 317 303 313 304 l 332 303 q 347 303 339 303 q 361 304 354 304 l 361 306 l 367 306 m 546 157 q 447 42 514 85 q 301 0 381 0 l 35 0 l 35 854 l 71 935 l 71 947 l 342 947 q 447 927 397 947 q 535 869 496 907 q 593 781 572 831 q 614 676 614 732 l 614 357 q 601 274 614 314 q 564 200 588 235 l 550 169 q 549 167 550 167 l 546 157 m 100 115 l 342 115 q 435 134 392 115 q 513 186 479 153 q 565 263 546 219 q 583 357 583 307 l 583 676 q 565 770 583 726 q 513 847 546 814 q 435 899 479 881 q 342 918 392 918 l 100 918 l 100 115 m 238 835 q 223 799 238 814 q 188 785 208 785 q 152 799 167 785 q 138 835 138 814 q 152 869 138 854 q 188 883 167 883 q 223 869 208 883 q 238 835 238 854 m 364 835 q 349 799 364 814 q 314 785 335 785 q 280 799 294 785 q 265 835 265 814 q 280 869 265 854 q 314 883 294 883 q 349 869 335 883 q 364 835 364 854 m 481 797 q 466 762 481 776 q 432 747 451 747 q 397 762 411 747 q 382 797 382 776 q 397 832 382 818 q 432 846 411 846 q 466 832 451 846 q 481 797 481 818 m 540 692 q 526 658 540 672 q 492 643 511 643 q 456 658 471 643 q 442 692 442 672 q 456 727 442 713 q 492 742 471 742 q 526 727 511 742 q 540 692 540 713 m 549 578 q 534 542 549 557 q 500 528 519 528 q 465 542 479 528 q 450 578 450 557 q 465 612 450 597 q 500 626 479 626 q 534 612 519 626 q 549 578 549 597 m 549 456 q 534 422 549 436 q 500 407 519 407 q 465 422 479 407 q 450 456 450 436 q 465 491 450 476 q 500 506 479 506 q 534 491 519 506 q 549 456 549 476 m 481 226 q 466 192 481 206 q 431 178 451 178 q 397 192 411 178 q 382 226 382 206 q 397 262 382 247 q 431 276 411 276 q 466 262 451 276 q 481 226 481 247 m 540 336 q 526 301 540 315 q 492 286 511 286 q 456 301 471 286 q 442 336 442 315 q 456 370 442 356 q 492 385 471 385 q 526 370 511 385 q 540 336 540 356 m 363 200 q 348 165 363 179 q 314 150 333 150 q 278 165 293 150 q 264 200 264 179 q 278 234 264 219 q 314 249 293 249 q 348 234 333 249 q 363 200 363 219 m 238 707 q 223 672 238 686 q 188 657 208 657 q 152 672 167 657 q 138 707 138 686 q 152 741 138 726 q 188 756 167 756 q 223 741 208 756 q 238 707 238 726 m 238 585 q 223 549 238 564 q 188 535 208 535 q 152 549 167 535 q 138 585 138 564 q 152 619 138 604 q 188 633 167 633 q 223 619 208 633 q 238 585 238 604 m 238 450 q 223 415 238 429 q 188 400 208 400 q 152 415 167 400 q 138 450 138 429 q 152 484 138 469 q 188 499 167 499 q 223 484 208 499 q 238 450 238 469 m 238 325 q 223 291 238 306 q 188 276 208 276 q 152 291 167 276 q 138 325 138 306 q 152 360 138 346 q 188 375 167 375 q 223 360 208 375 q 238 325 238 346 m 238 200 q 223 165 238 179 q 188 150 208 150 q 152 165 167 150 q 138 200 138 179 q 152 234 138 219 q 188 249 167 249 q 223 234 208 249 q 238 200 238 219 z "},"e":{"ha":644,"x_min":35,"x_max":614,"o":"m 569 0 l 35 0 l 35 856 l 71 935 l 71 949 l 614 949 l 614 725 l 607 725 l 569 639 l 294 639 l 294 629 l 614 629 l 614 406 l 607 406 l 569 319 l 294 319 l 294 310 l 614 310 l 614 86 l 607 86 l 569 0 m 100 115 l 585 115 l 585 279 l 264 279 l 264 435 l 585 435 l 585 599 l 264 599 l 264 756 l 585 756 l 585 919 l 100 919 l 100 115 m 451 510 q 437 476 451 490 q 403 461 422 461 q 367 476 382 461 q 353 510 353 490 q 367 545 353 531 q 403 560 382 560 q 437 545 422 560 q 451 510 451 531 m 567 513 q 552 477 567 492 q 517 463 538 463 q 483 477 497 463 q 468 513 468 492 q 483 548 468 533 q 517 563 497 563 q 552 548 538 563 q 567 513 567 533 m 343 510 q 328 474 343 489 q 294 460 314 460 q 259 474 274 460 q 244 510 244 489 q 259 544 244 529 q 294 558 274 558 q 328 544 314 558 q 343 510 343 529 m 231 832 q 216 797 231 811 q 181 782 201 782 q 146 797 160 782 q 132 832 132 811 q 146 867 132 853 q 181 882 160 882 q 216 867 201 882 q 231 832 231 853 m 344 835 q 330 799 344 814 q 296 785 315 785 q 260 799 275 785 q 246 835 246 814 q 260 869 246 856 q 296 883 275 883 q 330 869 315 883 q 344 835 344 856 m 568 832 q 553 797 568 811 q 519 782 539 782 q 484 797 499 782 q 469 832 469 811 q 484 867 469 853 q 519 882 499 882 q 553 867 539 882 q 568 832 568 853 m 231 704 q 216 670 231 685 q 181 656 201 656 q 146 670 160 656 q 132 704 132 685 q 146 740 132 725 q 181 754 160 754 q 216 740 201 754 q 231 704 231 725 m 231 578 q 216 542 231 557 q 181 528 201 528 q 146 542 160 528 q 132 578 132 557 q 146 613 132 599 q 181 626 160 626 q 216 613 201 626 q 231 578 231 599 m 231 447 q 216 412 231 426 q 181 397 201 397 q 146 412 160 397 q 132 447 132 426 q 146 483 132 468 q 181 497 160 497 q 216 483 201 497 q 231 447 231 468 m 451 833 q 437 798 451 813 q 403 783 422 783 q 367 798 382 783 q 353 833 353 813 q 367 868 353 854 q 403 882 382 882 q 437 868 422 882 q 451 833 451 854 m 340 196 q 326 160 340 175 q 292 146 311 146 q 256 160 271 146 q 242 196 242 175 q 256 230 242 215 q 292 244 271 244 q 326 230 311 244 q 340 196 340 215 m 568 193 q 554 158 568 172 q 519 143 540 143 q 484 158 499 143 q 469 193 469 172 q 484 227 469 213 q 519 242 499 242 q 554 227 540 242 q 568 193 568 213 m 451 194 q 437 159 451 174 q 403 144 422 144 q 367 159 382 144 q 353 194 353 174 q 367 228 353 214 q 403 243 382 243 q 437 228 422 243 q 451 194 451 214 m 231 322 q 216 288 231 303 q 181 274 201 274 q 146 288 160 274 q 132 322 132 303 q 146 358 132 343 q 181 372 160 372 q 216 358 201 372 q 231 322 231 343 m 231 197 q 216 162 231 176 q 181 147 201 147 q 146 162 160 147 q 132 197 132 176 q 146 231 132 217 q 181 246 160 246 q 216 231 201 246 q 231 197 231 217 z "},"f":{"ha":644,"x_min":32,"x_max":611,"o":"m 247 0 l 32 0 l 32 854 l 68 935 l 68 947 l 611 947 l 611 724 l 604 724 l 567 639 l 292 639 l 292 628 l 611 628 l 611 404 l 604 404 l 567 319 l 292 319 l 292 86 l 285 86 l 247 0 m 99 115 l 263 115 l 263 435 l 582 435 l 582 599 l 263 599 l 263 754 l 582 754 l 582 918 l 99 918 l 99 115 m 221 824 q 206 789 221 803 q 171 775 192 775 q 137 789 151 775 q 122 824 122 803 q 137 859 122 844 q 171 874 151 874 q 206 859 192 874 q 221 824 221 844 m 338 826 q 323 791 338 806 q 288 776 308 776 q 253 791 267 776 q 239 826 239 806 q 253 861 239 847 q 288 875 267 875 q 323 861 308 875 q 338 826 338 847 m 567 824 q 552 789 567 803 q 517 775 538 775 q 483 789 497 775 q 468 824 468 803 q 483 859 468 844 q 517 874 497 874 q 552 859 538 874 q 567 824 567 844 m 221 696 q 206 662 221 676 q 171 647 192 647 q 137 662 151 647 q 122 696 122 676 q 137 731 122 717 q 171 746 151 746 q 206 731 192 746 q 221 696 221 717 m 221 569 q 206 535 221 550 q 171 521 192 521 q 137 535 151 521 q 122 569 122 550 q 137 605 122 590 q 171 619 151 619 q 206 605 192 619 q 221 569 221 590 m 221 439 q 206 405 221 419 q 171 390 192 390 q 137 405 151 390 q 122 439 122 419 q 137 474 122 460 q 171 489 151 489 q 206 474 192 489 q 221 439 221 460 m 440 510 q 426 475 440 489 q 390 461 411 461 q 356 475 369 461 q 342 510 342 489 q 356 545 342 531 q 390 560 369 560 q 426 545 411 560 q 440 510 440 531 m 449 825 q 434 790 449 804 q 399 775 419 775 q 363 790 378 775 q 349 825 349 804 q 363 860 349 846 q 399 874 378 874 q 434 860 419 874 q 449 825 449 846 m 561 513 q 547 477 561 492 q 511 463 532 463 q 476 477 490 463 q 461 513 461 492 q 476 547 461 532 q 511 561 490 561 q 547 547 532 561 q 561 513 561 532 m 328 508 q 313 474 328 488 q 278 460 299 460 q 244 474 258 460 q 229 508 229 488 q 244 544 229 529 q 278 558 258 558 q 313 544 299 558 q 328 508 328 529 m 221 315 q 206 280 221 294 q 171 265 192 265 q 137 280 151 265 q 122 315 122 294 q 137 349 122 335 q 171 364 151 364 q 206 349 192 364 q 221 315 221 335 m 221 189 q 206 155 221 169 q 171 140 192 140 q 137 155 151 140 q 122 189 122 169 q 137 224 122 210 q 171 239 151 239 q 206 224 192 239 q 221 189 221 210 z "},"g":{"ha":644,"x_min":33,"x_max":614,"o":"m 607 672 l 588 629 l 613 629 l 613 357 q 565 204 613 274 l 544 158 q 447 43 513 86 q 303 0 382 0 q 222 13 260 0 q 115 76 161 32 q 49 181 69 121 q 35 240 38 211 q 33 303 33 269 l 33 551 q 35 615 33 586 q 49 675 38 644 q 53 687 51 682 q 57 699 54 692 l 79 747 l 85 767 q 152 872 106 826 q 261 936 199 917 q 302 945 282 943 q 343 947 322 947 q 442 926 394 947 q 525 867 489 904 q 585 781 561 831 q 614 672 608 731 l 607 672 m 343 918 q 269 908 307 918 q 174 850 215 890 q 114 757 133 810 q 102 701 104 729 q 100 642 100 674 l 100 392 q 102 333 100 361 q 114 278 104 306 q 174 184 133 224 q 269 126 215 144 q 306 118 289 121 q 343 115 324 115 q 437 134 393 115 q 513 186 481 153 q 565 263 546 219 q 583 357 583 307 l 583 599 l 292 599 l 292 435 l 419 435 l 419 357 q 398 303 419 325 q 344 279 376 281 l 342 279 q 288 300 310 279 q 264 351 267 321 q 262 395 261 374 q 263 436 263 417 l 263 464 q 264 491 264 478 q 264 517 264 504 q 264 544 264 531 q 263 569 264 557 l 263 597 q 262 639 263 618 q 264 683 261 660 q 289 733 267 713 q 342 754 311 754 l 344 754 q 415 701 397 751 l 582 701 q 557 787 578 747 q 503 856 536 826 q 430 901 471 885 q 343 918 389 918 m 353 319 l 311 319 q 343 310 325 310 q 353 311 350 310 l 353 319 m 236 699 q 222 663 236 678 q 186 649 207 649 q 151 663 165 649 q 136 699 136 678 q 151 733 136 718 q 186 747 165 747 q 222 733 207 747 q 236 699 236 718 m 225 574 q 210 538 225 553 q 176 524 196 524 q 141 538 156 524 q 126 574 126 553 q 141 608 126 593 q 176 622 156 622 q 210 608 196 622 q 225 574 225 593 m 225 451 q 210 417 225 431 q 176 403 196 403 q 141 417 156 403 q 126 451 126 431 q 141 487 126 472 q 176 501 156 501 q 210 487 196 501 q 225 451 225 472 m 415 782 q 430 817 415 803 q 465 831 444 831 q 501 817 486 831 q 515 782 515 803 q 501 747 515 761 q 465 732 486 732 q 430 747 444 732 q 415 782 415 761 m 306 838 q 320 872 306 858 q 354 886 335 886 q 390 872 375 886 q 404 838 404 858 q 390 802 404 817 q 354 788 375 788 q 320 802 335 788 q 306 838 306 817 m 193 803 q 208 837 193 822 q 243 851 222 851 q 277 837 263 851 q 292 803 292 822 q 277 767 292 782 q 243 753 263 753 q 208 767 222 753 q 193 803 193 782 m 132 332 q 147 367 132 353 q 182 382 161 382 q 217 367 203 382 q 232 332 232 353 q 217 298 232 313 q 182 283 203 283 q 147 298 161 283 q 132 332 132 313 m 200 235 q 215 269 200 254 q 250 283 229 283 q 284 269 269 283 q 299 235 299 254 q 284 199 299 214 q 250 185 269 185 q 215 199 229 185 q 200 235 200 214 m 324 210 q 338 244 324 229 q 374 258 353 258 q 408 244 393 258 q 422 210 422 229 q 408 174 422 189 q 374 160 393 160 q 338 174 353 160 q 324 210 324 189 m 425 276 q 440 311 425 297 q 475 325 454 325 q 509 311 494 325 q 524 276 524 297 q 509 241 524 256 q 475 226 494 226 q 440 241 454 226 q 425 276 425 256 m 451 394 q 466 428 451 414 q 501 443 481 443 q 535 428 521 443 q 550 394 550 414 q 535 359 550 374 q 501 344 521 344 q 466 359 481 344 q 451 394 451 374 m 446 519 q 460 553 446 539 q 494 568 475 568 q 530 553 515 568 q 544 519 544 539 q 530 484 544 499 q 494 469 515 469 q 460 484 475 469 q 446 519 446 499 m 328 517 q 342 551 328 536 q 378 565 357 565 q 412 551 397 565 q 426 517 426 536 q 412 481 426 496 q 378 467 397 467 q 342 481 357 467 q 328 517 328 496 z "},"h":{"ha":644,"x_min":36,"x_max":615,"o":"m 251 0 l 36 0 l 36 854 l 72 935 l 72 949 l 296 949 l 296 629 l 356 629 l 356 854 l 392 935 l 392 949 l 615 949 l 615 86 l 608 86 l 571 0 l 356 0 l 356 319 l 296 319 l 296 86 l 289 86 l 251 0 m 422 435 l 422 115 l 585 115 l 585 918 l 422 918 l 422 599 l 267 599 l 267 918 l 103 918 l 103 115 l 267 115 l 267 435 l 422 435 m 232 826 q 217 792 232 807 q 183 778 203 778 q 148 792 163 778 q 133 826 133 807 q 148 862 133 847 q 183 876 163 876 q 217 862 203 876 q 232 826 232 847 m 232 700 q 217 665 232 679 q 183 650 203 650 q 148 665 163 650 q 133 700 133 679 q 148 734 133 719 q 183 749 163 749 q 217 734 203 749 q 232 700 232 719 m 232 576 q 217 542 232 557 q 183 528 203 528 q 148 542 163 528 q 133 576 133 557 q 148 612 133 597 q 183 626 163 626 q 217 612 203 626 q 232 576 232 597 m 232 443 q 217 408 232 422 q 183 393 203 393 q 148 408 163 393 q 133 443 133 422 q 148 477 133 463 q 183 492 163 492 q 217 477 203 492 q 232 443 232 463 m 336 510 q 322 476 336 490 q 286 461 307 461 q 252 476 267 461 q 238 510 238 490 q 252 545 238 531 q 286 560 267 560 q 322 545 307 560 q 336 510 336 531 m 453 510 q 438 476 453 490 q 403 461 424 461 q 369 476 383 461 q 354 510 354 490 q 369 545 354 531 q 403 560 383 560 q 438 545 424 560 q 453 510 453 531 m 232 318 q 217 283 232 297 q 183 269 203 269 q 148 283 163 269 q 133 318 133 297 q 148 353 133 339 q 183 368 163 368 q 217 353 203 368 q 232 318 232 339 m 232 193 q 217 158 232 172 q 183 143 203 143 q 148 158 163 143 q 133 193 133 172 q 148 227 133 213 q 183 242 163 242 q 217 227 203 242 q 232 193 232 213 m 556 838 q 541 802 556 817 q 506 788 526 788 q 472 802 486 788 q 457 838 457 817 q 472 872 457 858 q 506 886 486 886 q 541 872 526 886 q 556 838 556 858 m 556 710 q 541 675 556 689 q 506 661 526 661 q 472 675 486 661 q 457 710 457 689 q 472 745 457 731 q 506 760 486 760 q 541 745 526 760 q 556 710 556 731 m 556 588 q 541 552 556 567 q 506 538 526 538 q 472 552 486 538 q 457 588 457 567 q 472 622 457 608 q 506 636 486 636 q 541 622 526 636 q 556 588 556 608 m 556 453 q 541 419 556 433 q 506 404 526 404 q 472 419 486 404 q 457 453 457 433 q 472 488 457 474 q 506 503 486 503 q 541 488 526 503 q 556 453 556 474 m 556 328 q 541 294 556 308 q 506 279 526 279 q 472 294 486 279 q 457 328 457 308 q 472 363 457 349 q 506 378 486 378 q 541 363 526 378 q 556 328 556 349 m 556 203 q 541 169 556 183 q 506 154 526 154 q 472 169 486 154 q 457 203 457 183 q 472 238 457 224 q 506 253 486 253 q 541 238 526 253 q 556 203 556 224 z "},"i":{"ha":347,"x_min":46,"x_max":306,"o":"m 261 0 l 46 0 l 46 854 l 82 933 l 82 947 l 306 947 l 306 85 l 300 85 l 261 0 m 113 918 l 113 115 l 276 115 l 276 918 l 113 918 m 244 828 q 230 792 244 807 q 196 778 215 778 q 160 792 175 778 q 146 828 146 807 q 160 862 146 847 q 196 876 175 876 q 230 862 215 876 q 244 828 244 847 m 244 700 q 230 665 244 679 q 196 650 215 650 q 160 665 175 650 q 146 700 146 679 q 160 734 146 719 q 196 749 175 749 q 230 734 215 749 q 244 700 244 719 m 244 578 q 230 542 244 557 q 196 528 215 528 q 160 542 175 528 q 146 578 146 557 q 160 612 146 597 q 196 626 175 626 q 230 612 215 626 q 244 578 244 597 m 244 443 q 230 408 244 422 q 196 393 215 393 q 160 408 175 393 q 146 443 146 422 q 160 477 146 463 q 196 492 175 492 q 230 477 215 492 q 244 443 244 463 m 244 318 q 230 283 244 297 q 196 269 215 269 q 160 283 175 269 q 146 318 146 297 q 160 353 146 339 q 196 368 175 368 q 230 353 215 368 q 244 318 244 339 m 244 193 q 230 158 244 172 q 196 143 215 143 q 160 158 175 143 q 146 193 146 172 q 160 227 146 213 q 196 242 175 242 q 230 227 215 242 q 244 193 244 213 z "},"j":{"ha":644,"x_min":28,"x_max":607,"o":"m 65 363 l 285 363 l 285 361 q 306 324 292 338 q 338 310 321 311 q 344 310 340 310 q 350 311 347 311 l 350 318 l 350 346 q 349 360 349 353 q 349 374 349 367 l 349 854 l 385 936 l 385 949 l 607 949 l 607 393 q 606 328 607 357 q 593 268 604 299 q 561 204 582 233 l 546 171 q 540 160 542 165 q 473 68 517 107 q 376 13 429 29 q 296 0 340 0 q 115 78 193 0 q 56 165 78 115 q 28 268 33 214 l 65 353 l 65 361 l 65 363 m 414 351 q 389 300 411 321 q 338 279 367 279 l 333 279 q 290 294 310 281 q 263 332 271 308 l 97 332 q 122 247 101 286 q 175 178 143 207 q 248 132 207 149 q 336 115 289 115 q 408 126 375 115 q 505 183 464 143 q 565 278 546 224 q 576 333 575 306 q 578 393 578 360 l 578 918 l 415 918 l 415 463 q 417 407 417 435 q 414 351 417 379 m 446 343 q 460 378 446 364 q 496 393 475 393 q 530 378 515 393 q 544 343 544 364 q 530 309 544 324 q 496 294 515 294 q 460 309 475 294 q 446 343 446 324 m 449 472 q 463 506 449 492 q 497 521 478 521 q 533 506 518 521 q 547 472 547 492 q 533 437 547 451 q 497 422 518 422 q 463 437 478 422 q 449 472 449 451 m 449 594 q 463 628 449 614 q 497 643 478 643 q 533 628 518 643 q 547 594 547 614 q 533 559 547 574 q 497 544 518 544 q 463 559 478 544 q 449 594 449 574 m 446 722 q 460 758 446 743 q 496 772 475 772 q 530 758 515 772 q 544 722 544 743 q 530 688 544 703 q 496 674 515 674 q 460 688 475 674 q 446 722 446 703 m 446 847 q 460 883 446 868 q 496 897 475 897 q 530 883 515 897 q 544 847 544 868 q 530 813 544 826 q 496 799 515 799 q 460 813 475 799 q 446 847 446 826 m 261 264 q 247 228 261 243 q 213 214 232 214 q 177 228 192 214 q 163 264 163 243 q 177 298 163 283 q 213 313 192 313 q 247 298 232 313 q 261 264 261 283 m 372 197 q 358 163 372 178 q 322 149 343 149 q 288 163 303 149 q 274 197 274 178 q 288 233 274 218 q 322 247 303 247 q 358 233 343 247 q 372 197 372 218 m 496 231 q 482 196 496 210 q 447 182 468 182 q 412 196 426 182 q 397 231 397 210 q 412 266 397 251 q 447 281 426 281 q 482 266 468 281 q 496 231 496 251 z "},"k":{"ha":644,"x_min":40,"x_max":625,"o":"m 374 947 l 625 947 l 624 946 l 410 517 l 624 85 l 614 85 l 576 0 l 336 0 l 296 85 l 294 85 l 257 0 l 40 0 l 42 854 l 78 935 l 78 947 l 301 947 l 301 801 l 374 947 m 271 672 l 271 918 l 107 918 l 107 115 l 271 115 l 271 254 l 272 368 l 392 115 l 576 115 l 376 517 l 576 918 l 392 918 l 271 672 m 247 844 q 233 810 247 825 q 199 796 218 796 q 163 810 178 796 q 149 844 149 825 q 163 880 149 865 q 199 894 178 894 q 233 880 218 894 q 247 844 247 865 m 503 850 q 488 816 503 831 q 453 801 474 801 q 419 816 433 801 q 404 850 404 831 q 419 885 404 871 q 453 900 433 900 q 488 885 474 900 q 503 850 503 871 m 443 742 q 428 706 443 721 q 393 692 414 692 q 359 706 374 692 q 344 742 344 721 q 359 777 344 763 q 393 792 374 792 q 428 777 414 792 q 443 742 443 763 m 382 638 q 367 603 382 618 q 332 589 353 589 q 297 603 311 589 q 283 638 283 618 q 297 673 283 658 q 332 688 311 688 q 367 673 353 688 q 382 638 382 658 m 350 514 q 335 479 350 493 q 301 465 321 465 q 266 479 281 465 q 251 514 251 493 q 266 549 251 535 q 301 564 281 564 q 335 549 321 564 q 350 514 350 535 m 389 396 q 375 362 389 376 q 340 347 361 347 q 305 362 319 347 q 290 396 290 376 q 305 431 290 417 q 340 446 319 446 q 375 431 361 446 q 389 396 389 417 m 447 289 q 433 253 447 268 q 397 239 418 239 q 363 253 378 239 q 349 289 349 268 q 363 324 349 310 q 397 338 378 338 q 433 324 418 338 q 447 289 447 310 m 508 185 q 494 150 508 164 q 460 136 479 136 q 424 150 439 136 q 410 185 410 164 q 424 220 410 206 q 460 235 439 235 q 494 220 479 235 q 508 185 508 206 m 243 714 q 228 678 243 693 q 194 664 214 664 q 159 678 174 664 q 144 714 144 693 q 159 748 144 733 q 194 763 174 763 q 228 748 214 763 q 243 714 243 733 m 243 586 q 228 552 243 567 q 194 538 214 538 q 159 552 174 538 q 144 586 144 567 q 159 622 144 607 q 194 636 174 636 q 228 622 214 636 q 243 586 243 607 m 242 449 q 227 413 242 428 q 192 399 213 399 q 158 413 172 399 q 143 449 143 428 q 158 483 143 468 q 192 497 172 497 q 227 483 213 497 q 242 449 242 468 m 242 318 q 227 283 242 297 q 192 268 213 268 q 158 283 172 268 q 143 318 143 297 q 158 352 143 338 q 192 367 172 367 q 227 352 213 367 q 242 318 242 338 m 239 194 q 224 159 239 174 q 190 144 210 144 q 155 159 169 144 q 140 194 140 174 q 155 228 140 214 q 190 243 169 243 q 224 228 210 243 q 239 194 239 214 z "},"l":{"ha":596,"x_min":44,"x_max":558,"o":"m 514 0 l 44 0 l 44 854 l 81 936 l 81 947 l 304 947 l 304 310 l 558 310 l 558 86 l 551 86 l 514 0 m 110 115 l 528 115 l 528 279 l 274 279 l 274 918 l 110 918 l 110 115 m 249 838 q 234 803 249 817 q 199 789 219 789 q 164 803 178 789 q 150 838 150 817 q 164 873 150 858 q 199 888 178 888 q 234 873 219 888 q 249 838 249 858 m 249 710 q 234 676 249 690 q 199 661 219 661 q 164 676 178 661 q 150 710 150 690 q 164 745 150 731 q 199 760 178 760 q 234 745 219 760 q 249 710 249 731 m 249 588 q 234 553 249 567 q 199 539 219 539 q 164 553 178 539 q 150 588 150 567 q 164 623 150 608 q 199 638 178 638 q 234 623 219 638 q 249 588 249 608 m 249 453 q 234 419 249 433 q 199 404 219 404 q 164 419 178 404 q 150 453 150 433 q 164 488 150 474 q 199 503 178 503 q 234 488 219 503 q 249 453 249 474 m 249 329 q 234 294 249 308 q 199 279 219 279 q 164 294 178 279 q 150 329 150 308 q 164 363 150 349 q 199 378 178 378 q 234 363 219 378 q 249 329 249 349 m 249 203 q 234 169 249 183 q 199 154 219 154 q 164 169 178 154 q 150 203 150 183 q 164 238 150 224 q 199 253 178 253 q 234 238 219 253 q 249 203 249 224 m 371 199 q 356 163 371 178 q 322 149 342 149 q 287 163 301 149 q 272 199 272 178 q 287 233 272 219 q 322 247 301 247 q 356 233 342 247 q 371 199 371 219 m 481 199 q 466 163 481 178 q 432 149 451 149 q 397 163 411 149 q 382 199 382 178 q 397 233 382 219 q 432 247 411 247 q 466 233 451 247 q 481 199 481 219 z "},"m":{"ha":982,"x_min":42,"x_max":942,"o":"m 681 0 l 681 571 q 664 627 681 614 q 629 640 647 640 l 626 640 q 621 640 622 642 l 621 86 l 614 86 l 576 0 l 361 0 l 361 571 q 344 627 361 614 q 310 640 328 640 l 307 640 q 301 640 303 642 l 301 86 l 294 86 l 257 0 l 42 0 l 42 590 q 64 696 42 644 l 65 700 q 67 703 65 703 l 69 707 l 72 715 l 88 750 q 163 874 104 817 q 250 930 201 910 q 351 950 299 950 q 510 896 436 950 q 668 950 582 950 q 768 931 719 950 q 856 875 817 911 q 940 679 938 793 l 940 582 l 940 532 q 942 508 942 521 q 942 483 942 496 q 942 458 942 471 q 940 433 942 446 l 940 383 l 940 86 l 933 86 l 896 0 l 681 0 m 350 756 q 374 752 361 756 q 399 739 388 749 q 419 710 411 729 q 428 661 428 692 l 428 117 l 592 117 l 592 661 q 600 710 592 692 q 620 739 608 729 q 645 752 632 749 q 669 756 658 756 q 694 752 681 756 q 719 739 707 749 q 739 710 731 729 q 747 661 747 692 l 747 117 l 911 117 l 911 288 l 911 679 q 890 774 910 729 q 836 853 871 818 q 756 902 800 885 q 668 919 713 919 q 524 871 589 919 l 510 860 l 494 871 q 351 919 429 919 q 262 901 306 919 q 183 851 218 883 q 108 679 108 781 q 108 415 106 547 l 108 286 l 108 117 l 272 117 l 272 661 q 281 710 272 692 q 301 739 289 729 q 326 752 313 749 q 350 756 339 756 m 239 688 q 224 652 239 667 q 189 638 210 638 q 153 652 168 638 q 139 688 139 667 q 153 722 139 707 q 189 736 168 736 q 224 722 210 736 q 239 688 239 707 m 236 564 q 222 530 236 544 q 188 515 207 515 q 152 530 167 515 q 138 564 138 544 q 152 599 138 585 q 188 614 167 614 q 222 599 207 614 q 236 564 236 585 m 236 443 q 222 408 236 422 q 188 393 207 393 q 152 408 167 393 q 138 443 138 422 q 152 477 138 463 q 188 492 167 492 q 222 477 207 492 q 236 443 236 463 m 239 319 q 224 285 239 300 q 189 271 210 271 q 153 285 168 271 q 139 319 139 300 q 153 355 139 340 q 189 369 168 369 q 224 355 210 369 q 239 319 239 340 m 239 196 q 224 160 239 175 q 189 146 210 146 q 153 160 168 146 q 139 196 139 175 q 153 230 139 215 q 189 244 168 244 q 224 230 210 244 q 239 196 239 215 m 563 681 q 548 645 563 660 q 513 631 533 631 q 477 645 492 631 q 463 681 463 660 q 477 715 463 701 q 513 729 492 729 q 548 715 533 729 q 563 681 563 701 m 560 558 q 545 523 560 538 q 510 508 531 508 q 476 523 490 508 q 461 558 461 538 q 476 592 461 578 q 510 607 490 607 q 545 592 531 607 q 560 558 560 578 m 560 436 q 545 401 560 415 q 510 386 531 386 q 476 401 490 386 q 461 436 461 415 q 476 471 461 457 q 510 485 490 485 q 545 471 531 485 q 560 436 560 457 m 560 318 q 545 283 560 297 q 510 268 531 268 q 476 283 490 268 q 461 318 461 297 q 476 352 461 338 q 510 367 490 367 q 545 352 531 367 q 560 318 560 338 m 563 189 q 548 153 563 168 q 513 139 533 139 q 477 153 492 139 q 463 189 463 168 q 477 223 463 208 q 513 238 492 238 q 548 223 533 238 q 563 189 563 208 m 883 678 q 869 644 883 658 q 835 629 854 629 q 799 644 814 629 q 785 678 785 658 q 799 713 785 699 q 835 728 814 728 q 869 713 854 728 q 883 678 883 699 m 883 558 q 869 523 883 538 q 835 508 854 508 q 799 523 814 508 q 785 558 785 538 q 799 592 785 578 q 835 607 814 607 q 869 592 854 607 q 883 558 883 578 m 883 436 q 869 401 883 415 q 835 386 854 386 q 799 401 814 386 q 785 436 785 415 q 799 471 785 457 q 835 485 814 485 q 869 471 854 485 q 883 436 883 457 m 883 315 q 869 281 883 296 q 835 267 854 267 q 799 281 814 267 q 785 315 785 296 q 799 351 785 336 q 835 365 814 365 q 869 351 854 365 q 883 315 883 336 m 886 189 q 872 153 886 168 q 836 139 857 139 q 802 153 817 139 q 788 189 788 168 q 802 223 788 208 q 836 238 817 238 q 872 223 857 238 q 886 189 886 208 m 421 789 q 435 824 421 810 q 471 839 450 839 q 505 824 490 839 q 519 789 519 810 q 505 755 519 769 q 471 740 490 740 q 435 755 450 740 q 421 789 421 769 m 304 835 q 319 869 304 854 q 354 883 333 883 q 388 869 374 883 q 403 835 403 854 q 388 799 403 814 q 354 785 374 785 q 319 799 333 785 q 304 835 304 814 m 189 796 q 203 830 189 815 q 238 844 217 844 q 273 830 258 844 q 288 796 288 815 q 273 760 288 775 q 238 746 258 746 q 203 760 217 746 q 189 796 189 775 m 756 790 q 770 825 756 811 q 806 839 785 839 q 840 825 825 839 q 854 790 854 811 q 840 755 854 769 q 806 740 825 740 q 770 755 785 740 q 756 790 756 769 m 650 842 q 665 876 650 861 q 699 890 679 890 q 734 876 719 890 q 749 842 749 861 q 734 806 749 821 q 699 792 719 792 q 665 806 679 792 q 650 842 650 821 m 538 807 q 552 841 538 826 q 588 856 567 856 q 622 841 607 856 q 636 807 636 826 q 622 772 636 786 q 588 757 607 757 q 552 772 567 757 q 538 807 538 786 z "},"n":{"ha":644,"x_min":35,"x_max":614,"o":"m 342 949 q 467 919 408 949 q 561 836 525 889 q 608 724 601 778 q 613 613 614 669 l 613 86 l 607 86 l 569 0 l 354 0 l 354 569 q 349 606 354 592 q 335 627 343 619 q 317 637 326 635 q 301 639 308 639 l 299 639 q 294 639 294 643 l 294 86 l 288 86 l 250 0 l 35 0 l 35 524 q 38 614 35 572 q 60 699 40 656 q 63 707 60 701 q 63 709 63 708 q 64 711 64 710 l 82 753 q 124 836 92 794 q 220 919 163 889 q 342 949 278 949 m 342 754 q 367 751 353 754 q 392 738 381 747 q 413 709 404 728 q 421 660 421 690 l 421 115 l 583 115 l 583 613 q 579 717 585 667 q 539 818 574 768 q 452 892 504 865 q 342 918 400 918 q 233 892 283 918 q 147 818 182 865 q 119 770 129 794 q 106 720 110 746 q 101 668 101 694 q 100 613 100 642 l 100 115 l 264 115 l 264 660 q 273 710 264 692 q 294 739 282 729 q 320 751 307 749 q 342 754 333 754 m 235 690 q 221 656 235 669 q 186 642 207 642 q 151 656 165 642 q 136 690 136 669 q 151 726 136 711 q 186 740 165 740 q 221 726 207 740 q 235 690 235 711 m 233 568 q 219 533 233 547 q 183 518 204 518 q 149 533 164 518 q 135 568 135 547 q 149 603 135 589 q 183 617 164 617 q 219 603 204 617 q 233 568 233 589 m 233 446 q 219 411 233 425 q 183 397 204 397 q 149 411 164 397 q 135 446 135 425 q 149 481 135 467 q 183 496 164 496 q 219 481 204 496 q 233 446 233 467 m 235 324 q 221 288 235 303 q 186 274 207 274 q 151 288 165 274 q 136 324 136 303 q 151 358 136 344 q 186 372 165 372 q 221 358 207 372 q 235 324 235 344 m 235 199 q 221 163 235 178 q 186 149 207 149 q 151 163 165 149 q 136 199 136 178 q 151 234 136 219 q 186 249 165 249 q 221 234 207 249 q 235 199 235 219 m 558 683 q 544 649 558 664 q 510 635 531 635 q 474 649 489 635 q 460 683 460 664 q 474 719 460 704 q 510 733 489 733 q 544 719 531 733 q 558 683 558 704 m 557 561 q 542 527 557 542 q 507 513 528 513 q 473 527 488 513 q 458 561 458 542 q 473 597 458 582 q 507 611 488 611 q 542 597 528 611 q 557 561 557 582 m 557 439 q 542 405 557 419 q 507 390 528 390 q 473 405 488 390 q 458 439 458 419 q 473 474 458 460 q 507 489 488 489 q 542 474 528 489 q 557 439 557 460 m 557 321 q 542 286 557 300 q 507 272 528 272 q 473 286 488 272 q 458 321 458 300 q 473 356 458 342 q 507 371 488 371 q 542 356 528 371 q 557 321 557 342 m 558 192 q 544 158 558 172 q 510 143 531 143 q 474 158 489 143 q 460 192 460 172 q 474 227 460 213 q 510 242 489 242 q 544 227 531 242 q 558 192 558 213 m 418 793 q 433 827 418 813 q 467 842 447 842 q 502 827 488 842 q 517 793 517 813 q 502 758 517 772 q 467 743 488 743 q 433 758 447 743 q 418 793 418 772 m 301 838 q 316 873 301 858 q 350 888 331 888 q 385 873 371 888 q 400 838 400 858 q 385 803 400 818 q 350 789 371 789 q 316 803 331 789 q 301 838 301 818 m 185 799 q 199 834 185 819 q 235 849 214 849 q 269 834 256 849 q 283 799 283 819 q 269 765 283 779 q 235 750 256 750 q 199 765 214 750 q 185 799 185 779 z "},"o":{"ha":644,"x_min":33,"x_max":613,"o":"m 301 0 q 163 38 226 0 q 64 143 99 76 q 40 207 47 174 q 33 283 33 240 l 33 571 q 39 641 33 611 q 60 703 44 671 l 63 713 l 78 743 l 78 747 q 100 803 86 776 q 144 863 118 836 q 201 910 169 890 q 342 949 267 949 q 482 910 415 949 q 582 803 547 868 q 606 736 599 769 q 613 661 613 703 l 613 372 q 606 296 613 329 q 582 231 599 263 l 568 207 l 550 165 l 539 143 q 440 38 503 76 q 301 0 376 0 m 342 919 q 216 885 274 919 q 126 790 158 850 q 105 731 111 761 q 99 661 99 701 l 99 372 q 106 303 99 333 q 126 244 113 272 q 216 150 158 185 q 342 115 274 115 q 466 150 408 115 q 556 244 524 185 q 583 372 583 299 l 583 661 q 577 731 583 701 q 556 790 571 761 q 466 885 524 850 q 342 919 408 919 m 342 278 q 287 301 310 278 q 264 357 264 325 l 264 663 q 267 699 264 679 q 290 736 271 718 q 342 756 313 756 q 397 733 374 756 q 419 678 419 710 l 419 371 q 416 336 419 356 q 392 297 413 317 q 342 278 369 278 m 353 588 q 338 625 353 610 q 301 640 322 640 q 298 640 299 640 q 296 639 297 639 l 293 639 l 293 357 q 308 323 293 338 q 342 308 322 308 q 353 310 349 308 l 353 588 m 229 703 q 215 667 229 682 q 179 653 200 653 q 144 667 158 653 q 129 703 129 682 q 144 737 129 722 q 179 751 158 751 q 215 737 200 751 q 229 703 229 722 m 226 579 q 212 545 226 560 q 176 531 197 531 q 142 545 157 531 q 128 579 128 560 q 142 615 128 600 q 176 629 157 629 q 212 615 197 629 q 226 579 226 600 m 226 457 q 212 423 226 438 q 176 408 197 408 q 142 423 157 408 q 128 457 128 438 q 142 492 128 478 q 176 507 157 507 q 212 492 197 507 q 226 457 226 478 m 411 804 q 426 840 411 825 q 461 854 440 854 q 495 840 481 854 q 510 804 510 825 q 495 770 510 785 q 461 756 481 756 q 426 770 440 756 q 411 804 411 785 m 296 842 q 310 877 296 863 q 346 892 325 892 q 380 877 365 892 q 394 842 394 863 q 380 806 394 821 q 346 792 365 792 q 310 806 325 792 q 296 842 296 821 m 178 811 q 192 845 178 831 q 228 860 207 860 q 263 845 249 860 q 276 811 276 831 q 263 776 276 790 q 228 761 249 761 q 192 776 207 761 q 178 811 178 790 m 133 340 q 148 375 133 361 q 183 389 163 389 q 218 375 204 389 q 232 340 232 361 q 218 305 232 319 q 183 290 204 290 q 148 305 163 290 q 133 340 133 319 m 192 242 q 206 277 192 263 q 240 292 221 292 q 276 277 261 292 q 290 242 290 263 q 276 206 290 221 q 240 192 261 192 q 206 206 221 192 q 192 242 192 221 m 300 201 q 315 236 300 222 q 350 250 329 250 q 385 236 371 250 q 400 201 400 222 q 385 166 400 181 q 350 151 371 151 q 315 166 329 151 q 300 201 300 181 m 410 247 q 424 281 410 267 q 460 296 439 296 q 494 281 479 296 q 508 247 508 267 q 494 212 508 226 q 460 197 479 197 q 424 212 439 197 q 410 247 410 226 m 456 461 q 470 497 456 482 q 506 511 485 511 q 540 497 525 511 q 554 461 554 482 q 540 427 554 442 q 506 413 525 413 q 470 427 485 413 q 456 461 456 442 m 454 349 q 469 383 454 368 q 503 397 483 397 q 538 383 524 397 q 553 349 553 368 q 538 313 553 328 q 503 299 524 299 q 469 313 483 299 q 454 349 454 328 m 456 581 q 470 616 456 601 q 506 631 485 631 q 540 616 525 631 q 554 581 554 601 q 540 547 554 561 q 506 532 525 532 q 470 547 485 532 q 456 581 456 561 m 451 696 q 466 731 451 717 q 501 746 481 746 q 535 731 521 746 q 550 696 550 717 q 535 661 550 675 q 501 647 521 647 q 466 661 481 647 q 451 696 451 675 z "},"p":{"ha":644,"x_min":39,"x_max":618,"o":"m 254 0 l 39 0 l 39 854 l 76 935 l 76 949 l 347 949 q 539 868 456 949 q 598 778 578 828 q 618 676 618 729 q 569 519 618 592 l 556 490 q 553 482 556 488 q 551 480 551 481 q 550 478 551 479 q 452 363 518 406 q 307 319 386 319 l 299 319 l 299 86 l 293 86 l 254 0 m 106 115 l 269 115 l 269 435 l 347 435 q 441 453 397 435 q 518 506 485 472 q 570 583 551 539 q 589 676 589 626 q 518 849 589 775 q 440 900 483 882 q 347 918 396 918 l 106 918 l 106 115 m 425 676 q 402 622 425 644 q 347 599 379 599 l 269 599 l 269 754 l 347 754 q 402 732 379 754 q 425 676 425 710 m 338 629 q 307 639 322 639 l 299 639 l 299 629 l 338 629 m 356 836 q 341 802 356 817 q 306 788 326 788 q 272 802 286 788 q 257 836 257 817 q 272 872 257 857 q 306 886 286 886 q 341 872 326 886 q 356 836 356 857 m 471 831 q 456 795 471 810 q 422 781 442 781 q 387 795 401 781 q 372 831 372 810 q 387 865 372 851 q 422 879 401 879 q 456 865 442 879 q 471 831 471 851 m 556 622 q 541 587 556 601 q 506 572 526 572 q 471 587 485 572 q 457 622 457 601 q 471 656 457 642 q 506 671 485 671 q 541 656 526 671 q 556 622 556 642 m 549 742 q 534 708 549 722 q 500 693 519 693 q 465 708 479 693 q 450 742 450 722 q 465 777 450 763 q 500 792 479 792 q 534 777 519 792 q 549 742 549 763 m 469 536 q 455 501 469 515 q 419 486 440 486 q 385 501 400 486 q 371 536 371 515 q 385 570 371 556 q 419 585 400 585 q 455 570 440 585 q 469 536 469 556 m 349 524 q 335 490 349 504 q 300 475 321 475 q 265 490 279 475 q 250 524 250 504 q 265 559 250 544 q 300 574 279 574 q 335 559 321 574 q 349 524 349 544 m 238 840 q 223 806 238 821 q 189 792 208 792 q 153 806 168 792 q 139 840 139 821 q 153 876 139 861 q 189 890 168 890 q 223 876 208 890 q 238 840 238 861 m 238 714 q 223 678 238 693 q 189 664 208 664 q 153 678 168 664 q 139 714 139 693 q 153 748 139 733 q 189 763 168 763 q 223 748 208 763 q 238 714 238 733 m 238 582 q 223 548 238 563 q 189 533 208 533 q 153 548 168 533 q 139 582 139 563 q 153 617 139 603 q 189 632 168 632 q 223 617 208 632 q 238 582 238 603 m 238 458 q 223 424 238 438 q 189 410 208 410 q 153 424 168 410 q 139 458 139 438 q 153 494 139 479 q 189 508 168 508 q 223 494 208 508 q 238 458 238 479 m 238 332 q 223 297 238 311 q 189 282 208 282 q 153 297 168 282 q 139 332 139 311 q 153 367 139 353 q 189 381 168 381 q 223 367 208 381 q 238 332 238 353 m 238 207 q 223 172 238 186 q 189 157 208 157 q 153 172 168 157 q 139 207 139 186 q 153 241 139 226 q 189 256 168 256 q 223 241 208 256 q 238 207 238 226 z "},"q":{"ha":644,"x_min":35,"x_max":621,"o":"m 303 0 q 183 28 240 0 q 88 108 126 57 q 57 162 68 135 q 41 216 46 189 q 35 271 36 243 q 35 328 35 299 l 35 347 q 36 354 35 353 l 36 361 q 35 374 36 367 q 35 488 35 442 q 35 562 35 533 q 37 604 36 590 q 38 624 38 618 q 58 694 43 658 l 58 697 l 60 699 l 60 700 l 61 701 l 81 744 q 134 851 96 803 q 225 922 172 899 q 343 950 285 950 q 445 930 397 950 q 530 876 493 910 q 590 795 567 842 q 615 694 613 749 q 617 648 617 671 q 617 604 617 625 l 617 575 l 617 569 q 616 566 617 567 q 615 564 615 565 l 615 417 q 611 306 617 356 q 572 207 606 257 l 557 176 l 621 32 l 611 32 l 572 -54 l 336 -54 l 317 0 l 303 0 m 101 418 q 102 364 101 390 q 107 312 103 338 q 121 262 111 286 q 149 214 131 238 q 234 141 183 167 q 343 115 285 115 l 356 115 l 372 117 l 394 61 l 574 61 l 519 189 l 529 201 q 562 251 550 226 q 579 303 574 276 q 585 358 585 329 q 586 418 586 386 l 586 564 l 586 585 q 588 604 588 592 q 588 648 588 626 q 586 693 588 669 q 563 782 583 740 q 510 855 543 824 q 435 903 478 886 q 343 921 392 921 q 238 896 292 921 q 148 819 183 868 q 104 710 113 771 q 102 640 103 700 q 101 468 101 581 q 103 458 103 461 q 103 451 103 454 q 101 438 103 442 l 101 424 l 101 418 m 344 279 q 289 303 313 279 q 265 358 265 326 l 265 663 q 269 699 265 681 q 293 738 272 718 q 343 756 315 756 q 399 733 375 756 q 422 678 422 710 l 422 372 q 419 336 422 356 q 396 299 415 317 q 344 279 372 279 m 356 589 q 340 625 356 610 q 303 640 325 640 l 300 640 q 296 640 296 640 l 296 358 q 310 324 296 339 q 344 310 325 310 q 356 313 347 310 l 356 589 m 235 704 q 220 669 235 683 q 186 654 206 654 q 151 669 165 654 q 136 704 136 683 q 151 740 136 725 q 186 754 165 754 q 220 740 206 754 q 235 704 235 725 m 235 583 q 220 548 235 563 q 186 533 206 533 q 151 548 165 533 q 136 583 136 563 q 151 619 136 604 q 186 633 165 633 q 220 619 206 633 q 235 583 235 604 m 235 453 q 220 417 235 432 q 186 403 206 403 q 151 417 165 403 q 136 453 136 432 q 151 488 136 474 q 186 503 165 503 q 220 488 206 503 q 235 453 235 474 m 233 332 q 219 297 233 311 q 183 282 204 282 q 148 297 163 282 q 133 332 133 311 q 148 367 133 353 q 183 382 163 382 q 219 367 204 382 q 233 332 233 353 m 549 700 q 534 666 549 681 q 500 651 519 651 q 465 666 479 651 q 450 700 450 681 q 465 735 450 721 q 500 750 479 750 q 534 735 519 750 q 549 700 549 721 m 556 588 q 541 553 556 568 q 506 539 526 539 q 470 553 485 539 q 456 588 456 568 q 470 623 456 608 q 506 638 485 638 q 541 623 526 638 q 556 588 556 608 m 556 465 q 541 430 556 444 q 506 415 526 415 q 470 430 485 415 q 456 465 456 444 q 470 501 456 486 q 506 515 485 515 q 541 501 526 515 q 556 465 556 486 m 551 351 q 537 316 551 331 q 501 301 522 301 q 466 316 481 301 q 451 351 451 331 q 466 385 451 371 q 501 400 481 400 q 537 385 522 400 q 551 351 551 371 m 289 228 q 274 194 289 208 q 239 179 260 179 q 203 194 218 179 q 189 228 189 208 q 203 263 189 249 q 239 278 218 278 q 274 263 260 278 q 289 228 289 249 m 400 196 q 385 160 400 175 q 350 146 371 146 q 315 160 329 146 q 300 196 300 175 q 315 230 300 215 q 350 244 329 244 q 385 230 371 244 q 400 196 400 215 m 503 244 q 489 210 503 225 q 454 196 475 196 q 419 210 433 196 q 404 244 404 225 q 419 280 404 265 q 454 294 433 294 q 489 280 475 294 q 503 244 503 265 m 515 121 q 501 85 515 100 q 465 71 486 71 q 430 85 444 71 q 415 121 415 100 q 430 155 415 140 q 465 169 444 169 q 501 155 486 169 q 515 121 515 140 m 406 804 q 420 840 406 825 q 456 854 435 854 q 491 840 476 854 q 506 804 506 825 q 491 770 506 785 q 456 756 476 756 q 420 770 435 756 q 406 804 406 785 m 299 842 q 313 877 299 863 q 349 892 328 892 q 384 877 369 892 q 399 842 399 863 q 384 808 399 822 q 349 793 369 793 q 313 808 328 793 q 299 842 299 822 m 188 808 q 201 844 188 829 q 236 858 215 858 q 272 844 257 858 q 286 808 286 829 q 272 774 286 789 q 236 760 257 760 q 201 774 215 760 q 188 808 188 789 z "},"r":{"ha":644,"x_min":36,"x_max":615,"o":"m 356 0 l 356 214 q 354 265 356 240 q 344 300 353 289 q 322 315 335 311 q 297 321 308 319 l 297 85 l 290 85 l 253 0 l 36 0 l 36 854 l 72 933 l 72 947 l 300 947 q 368 944 335 947 q 434 931 401 942 q 497 900 467 921 q 557 844 528 879 q 600 765 585 808 q 615 676 615 721 q 569 525 615 589 l 564 514 q 608 417 600 465 q 615 308 615 368 l 615 85 l 608 85 l 571 0 l 356 0 m 101 115 l 267 115 l 267 435 l 290 435 q 303 436 299 435 l 324 436 q 404 406 379 436 q 420 361 418 389 q 422 303 422 333 l 422 115 l 585 115 l 585 308 q 578 412 585 367 q 538 501 571 457 l 526 517 l 538 531 q 585 678 586 597 q 533 825 585 760 q 482 876 508 857 q 427 903 456 894 q 367 915 399 913 q 300 918 335 918 l 101 918 l 101 115 m 331 597 q 319 597 325 597 q 310 599 314 597 l 267 599 l 267 754 l 290 754 q 299 754 296 754 q 310 756 303 754 l 331 756 q 365 751 350 756 q 406 722 390 743 q 422 676 422 701 q 406 629 422 650 q 365 601 390 608 q 331 597 350 597 m 335 626 q 317 638 324 635 q 297 640 306 640 l 297 628 l 315 628 q 331 626 322 626 l 335 626 m 353 831 q 338 795 353 810 q 304 781 324 781 q 269 795 283 781 q 254 831 254 810 q 269 865 254 850 q 304 879 283 879 q 338 865 324 879 q 353 831 353 850 m 471 811 q 456 776 471 790 q 422 761 442 761 q 387 776 401 761 q 372 811 372 790 q 387 845 372 831 q 422 860 401 860 q 456 845 442 860 q 471 811 471 831 m 554 726 q 540 692 554 707 q 506 678 525 678 q 470 692 485 678 q 456 726 456 707 q 470 762 456 747 q 506 776 485 776 q 540 762 525 776 q 554 726 554 747 m 536 608 q 522 574 536 589 q 486 560 507 560 q 452 574 467 560 q 438 608 438 589 q 452 644 438 629 q 486 658 467 658 q 522 644 507 658 q 536 608 536 629 m 457 521 q 442 485 457 500 q 407 471 428 471 q 372 485 386 471 q 357 521 357 500 q 372 556 357 542 q 407 571 386 571 q 442 556 428 571 q 457 521 457 542 m 525 422 q 510 387 525 401 q 475 372 496 372 q 441 387 456 372 q 426 422 426 401 q 441 457 426 443 q 475 471 456 471 q 510 457 496 471 q 525 422 525 443 m 550 196 q 535 160 550 175 q 501 146 521 146 q 466 160 481 146 q 451 196 451 175 q 466 230 451 215 q 501 244 481 244 q 535 230 521 244 q 550 196 550 215 m 549 308 q 534 274 549 289 q 499 260 519 260 q 465 274 479 260 q 450 308 450 289 q 465 344 450 329 q 499 358 479 358 q 534 344 519 358 q 549 308 549 329 m 340 518 q 326 483 340 497 q 292 468 311 468 q 256 483 271 468 q 242 518 242 497 q 256 552 242 538 q 292 567 271 567 q 326 552 311 567 q 340 518 340 538 m 233 828 q 219 792 233 807 q 185 778 204 778 q 149 792 164 778 q 135 828 135 807 q 149 863 135 849 q 185 876 164 876 q 219 863 204 876 q 233 828 233 849 m 233 700 q 219 666 233 681 q 185 651 204 651 q 149 666 164 651 q 135 700 135 681 q 149 735 135 721 q 185 750 164 750 q 219 735 204 750 q 233 700 233 721 m 233 569 q 219 534 233 549 q 185 519 204 519 q 149 534 164 519 q 135 569 135 549 q 149 605 135 590 q 185 619 164 619 q 219 605 204 619 q 233 569 233 590 m 233 446 q 219 410 233 425 q 185 396 204 396 q 149 410 164 396 q 135 446 135 425 q 149 480 135 465 q 185 494 164 494 q 219 480 204 494 q 233 446 233 465 m 233 319 q 219 284 233 299 q 185 269 204 269 q 149 284 164 269 q 135 319 135 299 q 149 353 135 339 q 185 368 164 368 q 219 353 204 368 q 233 319 233 339 m 233 193 q 219 159 233 174 q 185 144 204 144 q 149 159 164 144 q 135 193 135 174 q 149 228 135 214 q 185 243 164 243 q 219 228 204 243 q 233 193 233 214 z "},"s":{"ha":644,"x_min":31,"x_max":614,"o":"m 489 79 q 390 15 440 31 q 301 0 339 0 q 201 19 250 0 q 115 74 151 39 q 59 156 81 107 q 31 269 38 206 l 68 353 q 67 363 67 356 l 153 363 q 53 485 85 408 q 32 589 32 535 q 56 697 32 642 q 58 704 58 703 q 60 707 60 706 l 61 710 l 78 746 q 147 868 93 811 q 250 933 199 918 q 339 949 301 949 q 440 929 390 949 q 528 874 489 910 q 583 790 561 842 q 614 672 606 739 l 607 672 l 569 586 l 486 586 q 547 533 519 564 q 592 461 574 501 q 613 357 613 407 q 565 208 613 272 l 544 160 q 519 117 533 136 q 489 79 506 97 m 318 317 q 323 314 321 315 q 328 311 325 313 q 318 317 324 314 m 100 333 q 174 182 108 243 q 251 133 207 150 q 342 115 294 115 q 422 129 376 115 q 511 188 467 143 q 578 310 564 240 q 564 450 592 381 q 475 559 535 519 q 340 599 415 599 q 268 647 290 599 q 265 692 260 669 q 285 732 269 715 q 340 754 310 754 q 386 740 365 754 q 415 701 407 725 l 581 701 q 507 851 572 793 q 428 901 472 883 q 339 919 383 919 q 260 906 306 919 q 169 849 214 893 q 103 724 117 794 q 117 583 89 654 q 206 474 146 514 q 340 435 265 435 q 383 422 364 435 q 413 386 403 410 q 416 342 421 364 q 396 303 411 319 q 342 279 372 279 q 294 294 315 279 q 267 333 274 310 l 100 333 m 313 638 q 318 633 315 635 q 325 631 321 632 q 313 638 317 636 m 236 718 q 222 684 236 699 q 188 669 207 669 q 152 684 167 669 q 138 718 138 699 q 152 753 138 739 q 188 768 167 768 q 222 753 207 768 q 236 718 236 739 m 242 603 q 227 567 242 582 q 193 553 213 553 q 158 567 172 553 q 143 603 143 582 q 158 638 143 624 q 193 651 172 651 q 227 638 213 651 q 242 603 242 624 m 336 528 q 322 492 336 507 q 286 478 307 478 q 251 492 265 478 q 238 528 238 507 q 251 563 238 549 q 286 576 265 576 q 322 563 307 576 q 336 528 336 549 m 454 486 q 440 451 454 465 q 404 436 425 436 q 370 451 385 436 q 356 486 356 465 q 370 520 356 506 q 404 535 385 535 q 440 520 425 535 q 454 486 454 506 m 553 404 q 538 369 553 383 q 503 354 524 354 q 469 369 483 354 q 454 404 454 383 q 469 439 454 425 q 503 453 483 453 q 538 439 524 453 q 553 404 553 425 m 425 774 q 440 808 425 794 q 475 822 454 822 q 509 808 494 822 q 524 774 524 794 q 509 738 524 753 q 475 724 494 724 q 440 738 454 724 q 425 774 425 753 m 321 839 q 335 874 321 860 q 369 889 350 889 q 405 874 390 889 q 419 839 419 860 q 405 805 419 819 q 369 790 390 790 q 335 805 350 790 q 321 839 321 819 m 203 813 q 217 848 203 833 q 251 863 232 863 q 287 848 272 863 q 301 813 301 833 q 287 778 301 792 q 251 764 272 764 q 217 778 232 764 q 203 813 203 792 m 243 274 q 228 238 243 253 q 193 224 214 224 q 159 238 174 224 q 144 274 144 253 q 159 308 144 293 q 193 322 174 322 q 228 308 214 322 q 243 274 243 293 m 333 197 q 319 162 333 176 q 283 147 304 147 q 249 162 263 147 q 235 197 235 176 q 249 231 235 217 q 283 246 263 246 q 319 231 304 246 q 333 197 333 217 m 451 201 q 437 166 451 181 q 401 151 422 151 q 367 166 381 151 q 353 201 353 181 q 367 235 353 221 q 401 250 381 250 q 437 235 422 250 q 451 201 451 221 m 540 283 q 526 249 540 263 q 490 235 511 235 q 456 249 471 235 q 442 283 442 263 q 456 319 442 304 q 490 333 471 333 q 526 319 511 333 q 540 283 540 304 z "},"t":{"ha":604,"x_min":43,"x_max":569,"o":"m 79 949 l 569 949 l 569 725 l 563 725 l 525 640 l 436 640 l 436 86 l 431 86 l 392 0 l 176 0 l 176 640 l 43 640 l 43 856 l 79 938 l 79 949 m 243 756 l 243 115 l 407 115 l 407 756 l 539 756 l 539 919 l 108 919 l 108 756 l 243 756 m 376 838 q 362 802 376 817 q 326 788 347 788 q 291 802 306 788 q 276 838 276 817 q 291 872 276 857 q 326 886 306 886 q 362 872 347 886 q 376 838 376 857 m 258 839 q 244 804 258 818 q 208 790 229 790 q 174 804 188 790 q 160 839 160 818 q 174 874 160 860 q 208 889 188 889 q 244 874 229 889 q 258 839 258 860 m 503 840 q 488 805 503 819 q 453 790 474 790 q 419 805 433 790 q 404 840 404 819 q 419 874 404 860 q 453 889 433 889 q 488 874 474 889 q 503 840 503 860 m 376 710 q 362 674 376 689 q 326 660 347 660 q 291 674 306 660 q 276 710 276 689 q 291 744 276 729 q 326 758 306 758 q 362 744 347 758 q 376 710 376 729 m 376 586 q 362 552 376 567 q 326 538 347 538 q 291 552 306 538 q 276 586 276 567 q 291 622 276 607 q 326 636 306 636 q 362 622 347 636 q 376 586 376 607 m 376 453 q 362 417 376 432 q 326 403 347 403 q 291 417 306 403 q 276 453 276 432 q 291 487 276 472 q 326 501 306 501 q 362 487 347 501 q 376 453 376 472 m 376 328 q 362 292 376 307 q 326 278 347 278 q 291 292 306 278 q 276 328 276 307 q 291 362 276 347 q 326 376 306 376 q 362 362 347 376 q 376 328 376 347 m 376 201 q 362 167 376 182 q 326 153 347 153 q 291 167 306 153 q 276 201 276 182 q 291 237 276 222 q 326 251 306 251 q 362 237 347 251 q 376 201 376 222 z "},"u":{"ha":644,"x_min":36,"x_max":617,"o":"m 304 0 q 166 38 229 0 q 67 143 103 76 q 44 207 51 174 q 36 282 36 240 l 36 854 l 72 935 l 72 949 l 297 949 l 297 374 q 302 340 297 353 q 314 319 307 326 q 329 309 321 311 q 344 307 338 307 q 356 308 351 307 l 356 854 l 393 935 l 393 949 l 617 949 l 617 372 q 585 229 617 285 l 571 208 l 553 167 l 550 161 l 550 160 l 540 143 q 436 40 501 79 q 304 0 371 0 m 422 374 q 413 322 422 342 q 392 293 404 303 q 366 281 379 283 q 344 278 353 278 q 320 281 333 278 q 295 294 307 285 q 275 323 283 304 q 267 374 267 342 l 267 918 l 103 918 l 103 372 q 131 244 103 296 q 219 149 163 183 q 344 115 276 115 q 469 149 413 115 q 558 244 526 183 q 586 372 586 296 l 586 918 l 422 918 l 422 374 m 457 350 q 472 385 457 371 q 506 400 486 400 q 541 385 526 400 q 556 350 556 371 q 541 315 556 329 q 506 301 526 301 q 472 315 486 301 q 457 350 457 329 m 457 472 q 472 508 457 493 q 506 522 486 522 q 541 508 526 522 q 556 472 556 493 q 541 438 556 453 q 506 424 526 424 q 472 438 486 424 q 457 472 457 453 m 458 594 q 473 630 458 615 q 508 644 488 644 q 542 630 528 644 q 557 594 557 615 q 542 560 557 575 q 508 546 528 546 q 473 560 488 546 q 458 594 458 575 m 453 722 q 467 756 453 742 q 501 771 482 771 q 537 756 522 771 q 551 722 551 742 q 537 687 551 701 q 501 672 522 672 q 467 687 482 672 q 453 722 453 701 m 454 840 q 469 876 454 861 q 504 890 483 890 q 538 876 524 890 q 553 840 553 861 q 538 806 553 821 q 504 792 524 792 q 469 806 483 792 q 454 840 454 821 m 142 835 q 156 869 142 854 q 190 883 171 883 q 226 869 211 883 q 240 835 240 854 q 226 799 240 814 q 190 785 211 785 q 156 799 171 785 q 142 835 142 814 m 139 350 q 153 385 139 371 q 189 399 168 399 q 223 385 208 399 q 238 350 238 371 q 223 315 238 329 q 189 300 208 300 q 153 315 168 300 q 139 350 139 329 m 138 471 q 152 505 138 490 q 186 519 167 519 q 222 505 207 519 q 236 471 236 490 q 222 435 236 450 q 186 421 207 421 q 152 435 167 421 q 138 471 138 450 m 138 593 q 152 627 138 613 q 186 642 167 642 q 222 627 207 642 q 236 593 236 613 q 222 558 236 572 q 186 543 207 543 q 152 558 167 543 q 138 593 138 572 m 142 715 q 156 751 142 736 q 190 765 171 765 q 226 751 211 765 q 240 715 240 736 q 226 680 240 694 q 190 665 211 665 q 156 680 171 665 q 142 715 142 694 m 286 246 q 272 210 286 225 q 236 196 257 196 q 202 210 217 196 q 188 246 188 225 q 202 281 188 267 q 236 294 217 294 q 272 281 257 294 q 286 246 286 267 m 399 200 q 384 166 399 181 q 350 151 369 151 q 315 166 329 151 q 300 200 300 181 q 315 235 300 221 q 350 250 329 250 q 384 235 369 250 q 399 200 399 221 m 508 239 q 494 205 508 219 q 460 190 479 190 q 424 205 439 190 q 410 239 410 219 q 424 274 410 260 q 460 289 439 289 q 494 274 479 289 q 508 239 508 260 z "},"v":{"ha":629,"x_min":25,"x_max":604,"o":"m 603 947 l 469 86 l 464 86 l 426 0 l 160 0 l 160 1 l 25 854 l 63 938 l 61 947 l 288 947 l 321 728 l 342 854 l 375 929 l 378 947 l 604 947 l 603 947 m 96 918 l 222 115 l 443 115 l 569 918 l 404 918 l 332 447 l 308 617 l 261 918 l 96 918 m 233 844 q 224 808 236 825 q 192 789 211 792 q 155 799 171 786 q 136 831 139 811 q 145 867 133 850 q 178 886 157 883 q 214 877 197 889 q 233 844 231 865 m 257 717 q 247 679 260 696 q 215 660 235 663 q 178 669 194 657 q 158 701 161 682 q 168 739 156 722 q 200 758 181 756 q 238 749 221 761 q 257 717 254 736 m 275 590 q 265 554 278 571 q 233 535 253 538 q 196 544 213 532 q 176 576 179 557 q 186 613 174 597 q 218 632 199 629 q 256 623 239 635 q 275 590 272 611 m 290 468 q 281 432 293 449 q 249 413 269 415 q 213 422 229 410 q 193 454 196 433 q 202 490 190 474 q 235 510 214 507 q 271 500 254 513 q 290 468 288 488 m 306 340 q 296 304 308 321 q 264 285 283 288 q 226 294 243 282 q 207 326 210 307 q 217 363 204 346 q 249 382 229 379 q 286 373 269 385 q 306 340 303 361 m 526 826 q 507 794 524 807 q 469 785 490 782 q 438 804 450 788 q 428 842 425 821 q 447 874 431 861 q 485 883 464 886 q 517 864 504 881 q 526 826 529 847 m 506 701 q 486 669 503 682 q 450 660 469 657 q 418 679 431 663 q 408 717 406 696 q 428 748 411 736 q 465 757 444 760 q 497 738 485 754 q 506 701 508 721 m 488 576 q 468 544 485 556 q 431 535 451 532 q 399 554 411 538 q 390 590 388 571 q 410 623 393 611 q 446 632 426 635 q 478 613 465 629 q 488 576 490 596 m 468 450 q 449 417 465 429 q 413 408 432 406 q 381 428 393 411 q 371 465 368 444 q 390 497 374 485 q 428 506 407 508 q 459 486 447 503 q 468 450 471 469 m 453 318 q 433 287 450 299 q 397 278 417 275 q 365 297 378 281 q 356 333 353 314 q 375 365 358 353 q 413 375 392 378 q 444 356 432 372 q 453 318 456 339 m 324 189 q 304 156 321 168 q 268 147 288 144 q 235 167 247 150 q 226 203 224 183 q 246 235 229 224 q 282 244 263 247 q 315 225 303 242 q 324 189 326 208 m 442 189 q 422 156 439 168 q 386 147 406 144 q 353 167 365 150 q 344 203 342 183 q 364 235 347 224 q 401 244 381 247 q 433 225 421 242 q 442 189 444 208 z "},"w":{"ha":974,"x_min":36,"x_max":936,"o":"m 713 947 l 936 947 l 936 356 q 924 275 935 314 q 889 204 913 236 l 889 203 l 885 194 l 876 175 l 876 174 l 872 161 l 872 167 l 872 165 l 868 156 q 844 112 858 132 q 810 72 829 92 q 723 19 771 38 q 624 0 675 0 q 540 13 579 0 q 468 50 500 25 l 465 53 q 391 13 432 26 q 307 0 350 0 q 208 18 257 0 q 119 72 160 36 q 62 159 83 107 q 38 265 40 211 q 36 364 36 310 q 36 463 36 418 q 36 560 36 511 q 38 657 36 608 l 38 853 l 38 854 l 75 935 l 75 947 l 297 947 l 297 374 q 313 321 297 333 q 346 308 329 308 q 357 310 353 308 l 357 853 l 357 854 l 393 935 l 393 947 l 617 947 l 617 374 q 622 340 617 353 q 634 319 626 326 q 650 310 642 313 q 665 308 658 308 q 676 310 672 308 l 676 853 l 676 854 l 713 935 l 713 947 m 743 374 q 734 323 743 342 q 713 294 725 304 q 687 282 700 285 q 665 279 674 279 q 641 283 654 279 q 616 296 628 286 q 596 324 604 306 q 588 374 588 343 l 588 918 l 424 918 l 424 374 q 415 324 424 343 q 395 296 407 306 q 370 283 383 286 q 346 279 357 279 q 322 283 335 279 q 297 296 308 286 q 276 324 285 306 q 268 374 268 343 l 268 918 l 104 918 l 104 746 q 104 356 101 553 q 178 181 104 251 q 258 132 214 149 q 347 115 301 115 q 490 164 426 115 l 506 175 l 519 164 q 664 115 583 115 q 753 132 710 115 q 832 181 797 149 q 907 356 904 251 l 907 618 l 907 746 l 907 918 l 743 918 l 743 374 m 783 351 q 798 387 783 372 q 833 401 813 401 q 867 387 853 401 q 882 351 882 372 q 867 317 882 332 q 833 303 853 303 q 798 317 813 303 q 783 351 783 332 m 785 475 q 799 509 785 494 q 835 524 814 524 q 869 509 856 524 q 883 475 883 494 q 869 440 883 454 q 835 425 856 425 q 799 440 814 425 q 785 475 785 454 m 785 596 q 799 631 785 617 q 835 646 814 646 q 869 631 856 646 q 883 596 883 617 q 869 562 883 576 q 835 547 856 547 q 799 562 814 547 q 785 596 785 576 m 783 719 q 798 753 783 739 q 833 768 813 768 q 867 753 853 768 q 882 719 882 739 q 867 684 882 699 q 833 669 853 669 q 798 684 813 669 q 783 719 783 699 m 783 843 q 798 878 783 864 q 833 893 813 893 q 867 878 853 893 q 882 843 882 864 q 867 809 882 824 q 833 794 853 794 q 798 809 813 794 q 783 843 783 824 m 460 358 q 474 394 460 379 q 510 408 489 408 q 544 394 529 408 q 558 358 558 379 q 544 324 558 338 q 510 310 529 310 q 474 324 489 310 q 460 358 460 338 m 463 481 q 476 516 463 501 q 511 531 490 531 q 547 516 532 531 q 561 481 561 501 q 547 447 561 461 q 511 432 532 432 q 476 447 490 432 q 463 481 463 461 m 463 603 q 476 638 463 624 q 511 653 490 653 q 547 638 532 653 q 561 603 561 624 q 547 568 561 582 q 511 554 532 554 q 476 568 490 554 q 463 603 463 582 m 463 721 q 476 756 463 742 q 511 771 490 771 q 547 756 532 771 q 561 721 561 742 q 547 687 561 701 q 511 672 532 672 q 476 687 490 672 q 463 721 463 701 m 460 850 q 474 885 460 871 q 510 900 489 900 q 544 885 529 900 q 558 850 558 871 q 544 815 558 829 q 510 801 529 801 q 474 815 489 801 q 460 850 460 829 m 138 360 q 152 395 138 381 q 188 410 167 410 q 222 395 207 410 q 236 360 236 381 q 222 326 236 340 q 188 311 207 311 q 152 326 167 311 q 138 360 138 340 m 138 481 q 152 516 138 501 q 188 531 167 531 q 222 516 207 531 q 236 481 236 501 q 222 447 236 461 q 188 432 207 432 q 152 447 167 432 q 138 481 138 461 m 138 603 q 152 638 138 624 q 188 653 167 653 q 222 638 207 653 q 236 603 236 624 q 222 568 236 582 q 188 554 207 554 q 152 568 167 554 q 138 603 138 582 m 138 724 q 152 758 138 743 q 188 772 167 772 q 222 758 207 772 q 236 724 236 743 q 222 688 236 703 q 188 674 207 674 q 152 688 167 674 q 138 724 138 703 m 136 850 q 151 885 136 871 q 185 900 165 900 q 220 885 206 900 q 235 850 235 871 q 220 815 235 829 q 185 801 206 801 q 151 815 165 801 q 136 850 136 829 m 601 250 q 587 215 601 229 q 551 200 572 200 q 517 215 531 200 q 503 250 503 229 q 517 284 503 269 q 551 299 531 299 q 587 284 572 299 q 601 250 601 269 m 718 204 q 703 169 718 183 q 668 156 689 156 q 633 169 647 156 q 619 204 619 183 q 633 240 619 225 q 668 254 647 254 q 703 240 689 254 q 718 204 718 225 m 833 243 q 819 209 833 224 q 785 194 804 194 q 749 209 764 194 q 735 243 735 224 q 749 278 735 264 q 785 293 764 293 q 819 278 804 293 q 833 243 833 264 m 265 249 q 251 214 265 228 q 217 200 236 200 q 181 214 196 200 q 167 249 167 228 q 181 284 167 269 q 217 299 196 299 q 251 284 236 299 q 265 249 265 269 m 372 197 q 358 162 372 176 q 322 147 343 147 q 288 162 303 147 q 274 197 274 176 q 288 233 274 218 q 322 247 303 247 q 358 233 343 247 q 372 197 372 218 m 485 232 q 470 198 485 213 q 435 183 456 183 q 399 198 414 183 q 385 232 385 213 q 399 267 385 253 q 435 282 414 282 q 470 267 456 282 q 485 232 485 253 z "},"x":{"ha":644,"x_min":13,"x_max":632,"o":"m 632 946 l 460 517 l 494 429 q 513 383 504 406 q 533 335 522 360 q 585 206 560 269 q 632 88 611 142 l 632 86 l 622 86 l 585 0 l 354 0 l 303 126 l 288 86 l 282 86 l 244 0 l 13 0 l 63 129 l 182 428 q 165 470 174 449 q 147 515 157 492 q 78 686 114 599 q 13 853 43 774 l 13 854 l 50 938 l 46 947 l 288 947 l 338 819 q 345 838 342 829 q 354 854 349 847 l 357 863 l 392 947 l 632 947 l 632 946 m 90 115 l 267 115 l 339 296 l 411 115 l 588 115 l 428 517 l 588 918 l 411 918 l 339 738 l 267 918 l 90 918 l 251 517 l 90 115 m 256 851 q 241 817 256 832 q 207 803 226 803 q 172 817 186 803 q 157 851 157 832 q 172 887 157 872 q 207 901 186 901 q 241 887 226 901 q 256 851 256 872 m 303 739 q 289 705 303 719 q 254 690 275 690 q 219 705 233 690 q 204 739 204 719 q 219 774 204 760 q 254 789 233 789 q 289 774 275 789 q 303 739 303 760 m 343 626 q 328 592 343 607 q 293 578 314 578 q 258 592 272 578 q 243 626 243 607 q 258 662 243 647 q 293 676 272 676 q 328 662 314 676 q 343 626 343 647 m 396 514 q 382 478 396 493 q 347 464 368 464 q 312 478 326 464 q 297 514 297 493 q 312 549 297 535 q 347 563 326 563 q 382 549 368 563 q 396 514 396 535 m 458 400 q 444 366 458 381 q 408 351 429 351 q 374 366 389 351 q 360 400 360 381 q 374 435 360 421 q 408 450 389 450 q 444 435 429 450 q 458 400 458 421 m 494 283 q 481 249 494 264 q 446 235 467 235 q 410 249 425 235 q 396 283 396 264 q 410 319 396 304 q 446 333 425 333 q 481 319 467 333 q 494 283 494 304 m 439 858 q 455 893 440 879 q 489 906 469 907 q 521 889 508 904 q 532 853 533 874 q 517 819 531 833 q 483 807 503 806 q 451 823 464 808 q 439 858 438 838 m 394 749 q 410 783 396 769 q 443 796 424 797 q 476 779 463 794 q 488 744 489 764 q 472 710 486 724 q 439 697 458 696 q 406 713 419 699 q 394 749 393 728 m 356 635 q 372 669 357 656 q 406 682 386 683 q 438 665 425 681 q 449 629 450 650 q 433 596 447 610 q 400 583 419 582 q 367 599 381 585 q 356 635 354 614 m 244 403 q 260 436 246 422 q 294 449 275 450 q 327 433 314 447 q 339 397 340 418 q 323 363 338 376 q 289 350 308 349 q 256 367 269 351 q 244 403 243 382 m 206 286 q 222 321 207 307 q 256 333 236 335 q 288 317 275 332 q 300 282 301 301 q 284 247 299 261 q 250 235 269 233 q 217 251 231 236 q 206 286 204 267 m 156 181 q 171 215 157 201 q 204 228 185 229 q 237 211 224 226 q 249 176 250 196 q 233 142 247 156 q 200 129 219 128 q 167 146 181 131 q 156 181 154 161 m 444 185 q 460 219 446 206 q 493 232 474 233 q 526 215 513 231 q 538 181 539 200 q 522 146 536 160 q 489 133 508 132 q 456 150 469 135 q 444 185 443 165 z "},"y":{"ha":644,"x_min":35,"x_max":614,"o":"m 194 289 q 77 390 119 324 q 35 539 35 457 l 35 854 l 71 936 l 71 949 l 294 949 l 294 642 q 299 608 294 621 q 312 587 304 594 q 328 577 319 579 q 343 575 336 575 q 354 576 350 575 l 354 854 l 390 936 l 390 949 l 614 949 l 614 629 q 565 471 614 544 l 560 456 l 550 433 l 550 435 l 546 426 q 454 315 514 358 l 454 86 l 449 86 l 410 0 l 194 0 l 194 289 m 421 642 q 413 591 421 610 q 392 563 404 572 q 367 549 381 553 q 343 546 354 546 q 319 549 332 546 q 294 563 306 553 q 274 591 282 572 q 265 642 265 610 l 265 918 l 101 918 l 101 629 q 140 492 101 553 q 246 401 179 431 l 261 396 l 261 117 l 425 117 l 425 396 l 439 401 q 546 492 507 431 q 585 629 585 553 l 585 918 l 421 918 l 421 642 m 454 600 q 469 635 454 621 q 503 649 483 649 q 538 635 524 649 q 553 600 553 621 q 538 565 553 579 q 503 550 524 550 q 469 565 483 550 q 454 600 454 579 m 456 722 q 470 758 456 743 q 506 772 485 772 q 540 758 525 772 q 554 722 554 743 q 540 688 554 703 q 506 674 525 674 q 470 688 485 674 q 456 722 456 703 m 456 844 q 470 880 456 865 q 506 894 485 894 q 540 880 525 894 q 554 844 554 865 q 540 810 554 825 q 506 796 525 796 q 470 810 485 796 q 456 844 456 825 m 131 607 q 144 641 131 626 q 179 656 158 656 q 215 641 200 656 q 229 607 229 626 q 215 572 229 586 q 179 557 200 557 q 144 572 158 557 q 131 607 131 586 m 132 729 q 147 765 132 750 q 182 779 161 779 q 216 765 201 779 q 231 729 231 750 q 216 694 231 708 q 182 679 201 679 q 147 694 161 679 q 132 729 132 708 m 132 851 q 147 886 132 872 q 182 900 161 900 q 216 886 201 900 q 231 851 231 872 q 216 816 231 831 q 182 801 201 801 q 147 816 161 801 q 132 851 132 831 m 290 326 q 305 360 290 346 q 339 375 319 375 q 374 360 360 375 q 389 326 389 346 q 374 291 389 306 q 339 276 360 276 q 305 291 319 276 q 290 326 290 306 m 290 199 q 305 234 290 219 q 339 249 319 249 q 374 234 360 249 q 389 199 389 219 q 374 165 389 179 q 339 150 360 150 q 305 165 319 150 q 290 199 290 179 m 271 497 q 256 463 271 478 q 222 449 242 449 q 187 463 201 449 q 172 497 172 478 q 187 533 172 518 q 222 547 201 547 q 256 533 242 547 q 271 497 271 518 m 388 450 q 373 415 388 429 q 339 400 358 400 q 303 415 318 400 q 289 450 289 429 q 303 485 289 471 q 339 500 318 500 q 373 485 358 500 q 388 450 388 471 m 504 492 q 490 456 504 471 q 454 442 475 442 q 420 456 435 442 q 406 492 406 471 q 420 526 406 511 q 454 540 435 540 q 490 526 475 540 q 504 492 504 511 z "},"z":{"ha":679,"x_min":35,"x_max":639,"o":"m 71 294 l 303 626 l 35 626 l 35 842 l 71 924 l 71 936 l 639 936 l 639 714 l 626 696 l 594 626 l 364 297 l 639 297 l 639 74 l 632 74 l 594 -12 l 35 -12 l 35 203 l 71 285 l 71 293 l 71 294 m 421 742 l 419 740 l 101 283 l 101 103 l 610 103 l 610 267 l 289 267 l 610 725 l 610 906 l 101 906 l 101 742 l 421 742 m 406 496 q 387 462 403 475 q 351 451 371 449 q 317 470 331 454 q 307 507 304 486 q 326 540 310 526 q 361 550 342 553 q 395 531 382 547 q 406 496 408 515 m 479 831 q 498 862 482 850 q 533 871 514 874 q 564 851 553 868 q 571 815 575 835 q 552 783 568 794 q 517 774 536 771 q 486 793 497 776 q 479 831 475 810 m 443 714 q 462 745 446 733 q 497 754 478 757 q 528 735 517 751 q 536 699 539 718 q 517 667 532 679 q 482 657 501 654 q 451 676 463 660 q 443 714 440 693 m 374 610 q 392 642 376 631 q 428 651 408 654 q 458 632 447 649 q 467 594 469 615 q 448 563 464 575 q 413 554 432 551 q 382 574 393 557 q 374 610 371 590 m 246 407 q 265 440 249 428 q 300 449 281 451 q 331 429 319 446 q 339 393 342 413 q 320 360 336 372 q 285 351 304 349 q 254 371 265 354 q 246 407 243 388 m 176 311 q 196 343 181 331 q 231 353 211 356 q 261 333 250 350 q 269 296 272 315 q 251 264 267 276 q 215 254 235 251 q 185 274 196 257 q 176 311 174 292 m 142 196 q 160 228 144 215 q 196 238 176 240 q 226 217 215 235 q 235 181 238 200 q 215 149 231 161 q 179 139 199 136 q 149 158 160 142 q 142 196 139 175 m 258 194 q 277 226 261 214 q 313 236 293 239 q 343 217 332 233 q 351 179 354 200 q 333 148 349 160 q 297 139 317 136 q 267 158 278 142 q 258 194 256 175 m 375 196 q 395 228 379 215 q 431 238 411 240 q 460 217 450 235 q 468 181 471 200 q 449 149 465 161 q 414 139 433 136 q 383 158 394 142 q 375 196 372 175 m 488 200 q 506 231 490 219 q 542 240 522 243 q 572 221 561 238 q 579 185 582 204 q 560 153 576 165 q 525 143 544 140 q 494 163 506 146 q 488 200 483 179 m 126 828 q 147 860 131 847 q 182 869 163 872 q 212 850 201 867 q 219 813 222 833 q 201 781 217 793 q 165 772 185 769 q 135 792 146 775 q 126 828 124 808 m 250 831 q 269 863 253 851 q 304 872 285 875 q 335 853 324 869 q 343 815 346 836 q 324 784 340 796 q 289 775 308 772 q 258 794 269 778 q 250 831 247 811 m 361 831 q 380 862 364 850 q 415 871 396 874 q 446 851 435 868 q 454 815 457 835 q 435 783 451 794 q 400 774 419 771 q 369 793 381 776 q 361 831 358 810 z "},"C":{"ha":644,"x_min":33,"x_max":613,"o":"m 542 167 q 444 46 507 90 q 300 0 379 0 q 219 13 263 0 q 115 75 161 31 q 47 181 68 119 q 35 240 36 211 q 33 303 33 268 l 33 553 q 35 616 33 586 q 47 675 36 646 l 53 692 l 76 744 l 83 765 q 152 870 104 824 q 258 936 200 917 q 340 949 297 949 q 439 928 392 949 q 525 868 486 907 q 584 779 561 829 q 613 672 607 729 l 613 671 l 606 671 l 568 585 l 356 585 l 356 586 q 299 639 338 636 q 294 640 296 639 l 290 640 l 290 635 q 290 602 290 618 q 292 569 290 586 l 292 463 q 290 431 290 446 q 290 399 290 415 q 290 376 290 389 q 292 353 290 363 q 308 322 294 333 q 342 310 322 310 q 372 324 357 311 q 393 361 386 338 l 393 363 l 613 363 l 613 361 q 596 283 608 321 q 561 213 583 244 l 542 167 m 340 918 q 268 907 306 918 q 172 850 214 890 q 113 756 131 810 q 100 701 101 729 q 99 642 99 674 l 99 393 q 100 333 99 360 q 113 278 101 306 q 173 183 132 224 q 268 126 214 143 q 308 117 290 119 q 340 115 325 115 q 429 132 388 115 q 503 178 471 149 q 555 247 535 207 q 579 332 575 286 l 414 332 q 388 294 407 308 q 343 279 368 281 l 340 279 q 288 300 310 279 q 263 351 265 321 q 260 408 260 379 q 263 463 261 438 l 263 569 q 260 624 261 596 q 263 682 260 653 q 288 733 265 713 q 340 754 310 754 l 343 754 q 387 738 367 753 q 414 700 407 724 l 579 700 q 555 787 575 747 q 503 856 535 826 q 429 901 471 885 q 340 918 388 918 m 239 679 q 224 644 239 658 q 189 629 210 629 q 155 644 169 629 q 140 679 140 658 q 155 713 140 699 q 189 728 169 728 q 224 713 210 728 q 239 679 239 699 m 238 556 q 223 522 238 536 q 188 507 208 507 q 152 522 167 507 q 138 556 138 536 q 152 591 138 576 q 188 606 167 606 q 223 591 208 606 q 238 556 238 576 m 238 435 q 223 399 238 414 q 188 385 208 385 q 152 399 167 385 q 138 435 138 414 q 152 469 138 454 q 188 483 167 483 q 223 469 208 483 q 238 435 238 454 m 424 775 q 438 809 424 794 q 472 824 453 824 q 508 809 493 824 q 522 775 522 794 q 508 740 522 754 q 472 725 493 725 q 438 740 453 725 q 424 775 424 754 m 304 826 q 319 860 304 846 q 354 875 333 875 q 389 860 375 875 q 403 826 403 846 q 389 791 403 806 q 354 776 375 776 q 319 791 333 776 q 304 826 304 806 m 189 788 q 203 822 189 807 q 238 836 218 836 q 273 822 258 836 q 288 788 288 807 q 273 752 288 767 q 238 738 258 738 q 203 752 218 738 q 189 788 189 767 m 144 315 q 159 349 144 335 q 193 364 174 364 q 228 349 214 364 q 243 315 243 335 q 228 280 243 294 q 193 265 214 265 q 159 280 174 265 q 144 315 144 294 m 214 218 q 228 253 214 239 q 264 268 243 268 q 298 253 283 268 q 313 218 313 239 q 298 184 313 199 q 264 169 283 169 q 228 184 243 169 q 214 218 214 199 m 332 199 q 347 233 332 218 q 381 247 361 247 q 416 233 401 247 q 431 199 431 218 q 416 163 431 178 q 381 149 401 149 q 347 163 361 149 q 332 199 332 178 m 431 271 q 445 306 431 292 q 481 321 460 321 q 515 306 500 321 q 529 271 529 292 q 515 237 529 251 q 481 222 500 222 q 445 237 460 222 q 431 271 431 251 z "},"D":{"ha":644,"x_min":35,"x_max":614,"o":"m 428 442 q 428 350 431 397 q 410 305 426 325 q 369 278 394 285 q 352 276 361 276 q 332 275 343 275 l 311 275 q 301 276 304 276 q 292 276 297 276 l 267 276 l 267 747 q 310 749 279 747 q 374 738 340 750 q 404 717 393 731 q 421 688 415 703 q 428 658 426 672 q 429 633 429 643 q 428 622 428 629 l 428 486 l 428 442 m 367 306 q 365 438 365 376 q 365 489 365 463 q 364 538 364 515 q 363 577 364 560 q 361 603 363 594 q 348 627 358 619 q 326 638 338 635 q 296 638 313 640 l 296 304 q 306 304 300 304 q 317 303 313 304 l 332 303 q 347 303 339 303 q 361 304 354 304 l 361 306 l 367 306 m 546 157 q 447 42 514 85 q 301 0 381 0 l 35 0 l 35 854 l 71 935 l 71 947 l 342 947 q 447 927 397 947 q 535 869 496 907 q 593 781 572 831 q 614 676 614 732 l 614 357 q 601 274 614 314 q 564 200 588 235 l 550 169 q 549 167 550 167 l 546 157 m 100 115 l 342 115 q 435 134 392 115 q 513 186 479 153 q 565 263 546 219 q 583 357 583 307 l 583 676 q 565 770 583 726 q 513 847 546 814 q 435 899 479 881 q 342 918 392 918 l 100 918 l 100 115 m 238 835 q 223 799 238 814 q 188 785 208 785 q 152 799 167 785 q 138 835 138 814 q 152 869 138 854 q 188 883 167 883 q 223 869 208 883 q 238 835 238 854 m 364 835 q 349 799 364 814 q 314 785 335 785 q 280 799 294 785 q 265 835 265 814 q 280 869 265 854 q 314 883 294 883 q 349 869 335 883 q 364 835 364 854 m 481 797 q 466 762 481 776 q 432 747 451 747 q 397 762 411 747 q 382 797 382 776 q 397 832 382 818 q 432 846 411 846 q 466 832 451 846 q 481 797 481 818 m 540 692 q 526 658 540 672 q 492 643 511 643 q 456 658 471 643 q 442 692 442 672 q 456 727 442 713 q 492 742 471 742 q 526 727 511 742 q 540 692 540 713 m 549 578 q 534 542 549 557 q 500 528 519 528 q 465 542 479 528 q 450 578 450 557 q 465 612 450 597 q 500 626 479 626 q 534 612 519 626 q 549 578 549 597 m 549 456 q 534 422 549 436 q 500 407 519 407 q 465 422 479 407 q 450 456 450 436 q 465 491 450 476 q 500 506 479 506 q 534 491 519 506 q 549 456 549 476 m 481 226 q 466 192 481 206 q 431 178 451 178 q 397 192 411 178 q 382 226 382 206 q 397 262 382 247 q 431 276 411 276 q 466 262 451 276 q 481 226 481 247 m 540 336 q 526 301 540 315 q 492 286 511 286 q 456 301 471 286 q 442 336 442 315 q 456 370 442 356 q 492 385 471 385 q 526 370 511 385 q 540 336 540 356 m 363 200 q 348 165 363 179 q 314 150 333 150 q 278 165 293 150 q 264 200 264 179 q 278 234 264 219 q 314 249 293 249 q 348 234 333 249 q 363 200 363 219 m 238 707 q 223 672 238 686 q 188 657 208 657 q 152 672 167 657 q 138 707 138 686 q 152 741 138 726 q 188 756 167 756 q 223 741 208 756 q 238 707 238 726 m 238 585 q 223 549 238 564 q 188 535 208 535 q 152 549 167 535 q 138 585 138 564 q 152 619 138 604 q 188 633 167 633 q 223 619 208 633 q 238 585 238 604 m 238 450 q 223 415 238 429 q 188 400 208 400 q 152 415 167 400 q 138 450 138 429 q 152 484 138 469 q 188 499 167 499 q 223 484 208 499 q 238 450 238 469 m 238 325 q 223 291 238 306 q 188 276 208 276 q 152 291 167 276 q 138 325 138 306 q 152 360 138 346 q 188 375 167 375 q 223 360 208 375 q 238 325 238 346 m 238 200 q 223 165 238 179 q 188 150 208 150 q 152 165 167 150 q 138 200 138 179 q 152 234 138 219 q 188 249 167 249 q 223 234 208 249 q 238 200 238 219 z "},"B":{"ha":644,"x_min":36,"x_max":615,"o":"m 542 149 q 442 40 506 81 q 304 0 378 0 l 36 0 l 36 854 l 72 935 l 72 947 l 344 947 q 484 908 419 947 q 586 797 549 868 q 615 675 615 736 q 568 528 615 596 l 563 514 q 615 358 615 438 q 586 238 615 296 q 578 223 583 231 q 568 208 574 215 l 542 149 m 536 531 q 585 656 579 589 q 560 785 592 722 q 472 883 528 847 q 344 918 415 918 l 103 918 l 103 115 l 344 115 q 472 151 415 115 q 560 249 528 186 q 585 378 592 311 q 536 503 579 444 l 526 517 l 536 531 m 344 754 q 399 731 376 754 q 422 676 422 708 q 399 622 422 644 q 344 599 376 599 l 267 599 l 267 754 l 344 754 m 335 628 q 304 639 321 639 l 296 639 l 296 628 l 335 628 m 344 435 q 399 412 376 435 q 422 357 422 389 q 399 302 422 325 q 344 279 376 279 l 267 279 l 267 435 l 344 435 m 335 308 q 304 319 321 319 l 296 319 l 296 308 l 335 308 m 350 829 q 335 795 350 810 q 301 781 321 781 q 266 795 281 781 q 251 829 251 810 q 266 865 251 850 q 301 879 281 879 q 335 865 321 879 q 350 829 350 850 m 354 194 q 340 160 354 174 q 306 146 325 146 q 270 160 285 146 q 256 194 256 174 q 270 230 256 215 q 306 244 285 244 q 340 230 325 244 q 354 194 354 215 m 472 214 q 458 178 472 193 q 424 164 443 164 q 388 178 403 164 q 374 214 374 193 q 388 248 374 233 q 424 263 403 263 q 458 248 443 263 q 472 214 472 233 m 556 308 q 542 273 556 288 q 507 258 528 258 q 472 273 486 258 q 457 308 457 288 q 472 343 457 329 q 507 357 486 357 q 542 343 528 357 q 556 308 556 329 m 531 424 q 516 390 531 404 q 481 375 501 375 q 446 390 460 375 q 432 424 432 404 q 446 459 432 444 q 481 474 460 474 q 516 459 501 474 q 531 424 531 444 m 467 824 q 452 788 467 803 q 417 774 438 774 q 383 788 397 774 q 368 824 368 803 q 383 858 368 843 q 417 872 397 872 q 452 858 438 872 q 467 824 467 843 m 550 614 q 535 580 550 594 q 501 565 521 565 q 466 580 481 565 q 451 614 451 594 q 466 649 451 635 q 501 664 481 664 q 535 649 521 664 q 550 614 550 635 m 544 735 q 530 701 544 715 q 494 686 515 686 q 460 701 474 686 q 446 735 446 715 q 460 770 446 756 q 494 785 474 785 q 530 770 515 785 q 544 735 544 756 m 458 518 q 444 484 458 499 q 408 469 429 469 q 374 484 389 469 q 360 518 360 499 q 374 553 360 539 q 408 568 389 568 q 444 553 429 568 q 458 518 458 539 m 342 517 q 327 483 342 497 q 293 468 313 468 q 258 483 272 468 q 243 517 243 497 q 258 552 243 538 q 293 567 272 567 q 327 552 313 567 q 342 517 342 538 m 232 831 q 217 797 232 811 q 183 782 203 782 q 148 797 163 782 q 133 831 133 811 q 148 866 133 851 q 183 881 163 881 q 217 866 203 881 q 232 831 232 851 m 232 703 q 217 669 232 683 q 183 654 203 654 q 148 669 163 654 q 133 703 133 683 q 148 738 133 724 q 183 753 163 753 q 217 738 203 753 q 232 703 232 724 m 232 572 q 217 538 232 553 q 183 524 203 524 q 148 538 163 524 q 133 572 133 553 q 148 608 133 593 q 183 622 163 622 q 217 608 203 622 q 232 572 232 593 m 232 449 q 217 413 232 428 q 183 399 203 399 q 148 413 163 399 q 133 449 133 428 q 148 484 133 469 q 183 499 163 499 q 217 484 203 499 q 232 449 232 469 m 232 322 q 217 287 232 301 q 183 272 203 272 q 148 287 163 272 q 133 322 133 301 q 148 356 133 342 q 183 371 163 371 q 217 356 203 371 q 232 322 232 342 m 232 197 q 217 162 232 176 q 183 147 203 147 q 148 162 163 147 q 133 197 133 176 q 148 231 133 217 q 183 246 163 246 q 217 231 203 246 q 232 197 232 217 z "},"A":{"ha":644,"x_min":31,"x_max":611,"o":"m 246 0 l 31 0 l 31 465 q 31 512 31 486 q 31 563 31 538 q 33 607 32 588 q 35 635 33 626 q 42 665 38 650 q 54 697 47 679 l 56 700 q 57 704 56 703 l 74 740 q 115 830 86 789 q 185 901 143 871 q 339 949 256 949 q 468 917 408 949 q 565 828 528 885 q 606 725 600 775 q 611 622 611 675 l 611 86 l 604 86 l 567 0 l 350 0 l 350 213 l 290 213 l 290 86 l 285 86 l 246 0 m 417 328 l 417 115 l 581 115 l 581 622 q 576 718 581 671 q 540 811 571 765 q 454 891 507 863 q 339 919 401 919 q 203 876 265 919 q 136 808 163 849 q 101 719 110 767 q 98 692 99 711 q 97 649 97 674 q 97 600 97 625 q 97 556 97 575 l 97 532 l 97 115 l 261 115 l 261 328 l 417 328 m 417 492 l 261 492 l 261 653 q 260 678 260 664 q 268 708 261 693 q 339 756 290 756 q 410 708 388 756 q 417 678 417 693 q 417 653 418 664 l 417 492 m 350 522 l 350 564 q 351 586 351 575 q 347 608 351 597 q 299 639 332 639 l 290 639 l 290 522 l 350 522 m 232 686 q 217 652 232 667 q 182 638 203 638 q 148 652 163 638 q 133 686 133 667 q 148 722 133 707 q 182 736 163 736 q 217 722 203 736 q 232 686 232 707 m 232 564 q 217 528 232 543 q 182 514 203 514 q 148 528 163 514 q 133 564 133 543 q 148 599 133 585 q 182 613 163 613 q 217 599 203 613 q 232 564 232 585 m 229 442 q 215 406 229 421 q 181 392 201 392 q 145 406 160 392 q 131 442 131 421 q 145 477 131 463 q 181 492 160 492 q 215 477 201 492 q 229 442 229 463 m 236 315 q 222 280 236 294 q 186 265 207 265 q 152 280 167 265 q 138 315 138 294 q 152 349 138 335 q 186 364 167 364 q 222 349 207 364 q 236 315 236 335 m 333 396 q 319 362 333 376 q 285 347 306 347 q 249 362 264 347 q 235 396 235 376 q 249 431 235 417 q 285 446 264 446 q 319 431 306 446 q 333 396 333 417 m 446 396 q 431 362 446 376 q 397 347 417 347 q 362 362 376 347 q 347 396 347 376 q 362 431 347 417 q 397 446 376 446 q 431 431 417 446 q 446 396 446 417 m 233 196 q 219 162 233 176 q 185 147 206 147 q 149 162 164 147 q 135 196 135 176 q 149 231 135 217 q 185 246 164 246 q 219 231 206 246 q 233 196 233 217 m 547 203 q 533 167 547 182 q 497 153 518 153 q 463 167 478 153 q 449 203 449 182 q 463 237 449 222 q 497 251 478 251 q 533 237 518 251 q 547 203 547 222 m 549 686 q 534 652 549 667 q 500 638 519 638 q 465 652 479 638 q 450 686 450 667 q 465 722 450 707 q 500 736 479 736 q 534 722 519 736 q 549 686 549 707 m 551 567 q 537 531 551 546 q 501 517 522 517 q 467 531 482 517 q 453 567 453 546 q 467 601 453 586 q 501 615 482 615 q 537 601 522 615 q 551 567 551 586 m 551 444 q 537 409 551 424 q 501 394 522 394 q 467 409 482 394 q 453 444 453 424 q 467 478 453 464 q 501 493 482 493 q 537 478 522 493 q 551 444 551 464 m 547 321 q 533 287 547 301 q 497 272 518 272 q 463 287 478 272 q 449 321 449 301 q 463 356 449 342 q 497 371 478 371 q 533 356 518 371 q 547 321 547 342 m 403 790 q 417 826 403 811 q 451 840 432 840 q 487 826 472 840 q 501 790 501 811 q 487 756 501 771 q 451 742 472 742 q 417 756 432 742 q 403 790 403 771 m 292 832 q 306 867 292 853 q 342 882 321 882 q 376 867 361 882 q 390 832 390 853 q 376 797 390 811 q 342 783 361 783 q 306 797 321 783 q 292 832 292 811 m 182 793 q 197 828 182 814 q 231 843 211 843 q 266 828 251 843 q 281 793 281 814 q 266 758 281 772 q 231 743 251 743 q 197 758 211 743 q 182 793 182 772 z "}}}
